<?xml version="1.0" encoding="utf-8"?>
<!-- Generator: Adobe Illustrator 22.0.0, SVG Export Plug-In . SVG Version: 6.00 Build 0)  -->
<svg version="1.1" id="Capa_1" xmlns="http://www.w3.org/2000/svg" xmlns:xlink="http://www.w3.org/1999/xlink" x="0px" y="0px"
	 viewBox="0 0 668 366.2" style="enable-background:new 0 0 668 366.2;" xml:space="preserve">
<style type="text/css">
	.st0{fill:#F2D043;}
	.st1{fill:#DD4D3D;}
	.st2{fill:#FF802B;}
	.st3{fill:#773DD5;}
	.st4{fill:#7F7F7F;}
	.st5{font-family:'ArialMT';}
	.st6{font-size:21.3745px;}
	.st7{fill:#4071BA;}
	.st8{fill:url(#SVGID_1_);}
	.st9{font-size:8.0154px;}
	.st10{fill:#E5D900;}
	.st11{fill:#FF970D;}
	.st12{fill:#FF0A47;}
	.st13{fill:#E80C7A;}
	.st14{fill:#FF0AC2;}
	.st15{fill:#5D01BC;}
	.st16{fill:#0018FF;}
	.st17{fill:#0AC2FF;}
	.st18{fill:#00FABC;}
	.st19{fill:#47FF0A;}
</style>
<path class="st0" d="M158.5,122.1c7.4,0,13.4,6,13.4,13.4s-6,13.4-13.4,13.4s-13.4-6-13.4-13.4C145.2,128.1,151.1,122.1,158.5,122.1
	z"/>
<path class="st1" d="M204.4,122.1c7.4,0,13.4,6,13.4,13.4s-6,13.4-13.4,13.4s-13.4-6-13.4-13.4S197,122.1,204.4,122.1z"/>
<path class="st2" d="M250.3,122.1c7.4,0,13.4,6,13.4,13.4s-6,13.4-13.4,13.4s-13.4-6-13.4-13.4S242.9,122.1,250.3,122.1L250.3,122.1
	z"/>
<path class="st3" d="M296.1,122.1c7.4,0,13.4,6,13.4,13.4s-6,13.4-13.4,13.4s-13.4-6-13.4-13.4C282.8,128.1,288.7,122.1,296.1,122.1
	z"/>
<text transform="matrix(1 0 0 1 45.573 60.974)" class="st4 st5 st6">T</text>
<text transform="matrix(1 0 0 1 55.94 60.974)" class="st4 st5 st6">iempos</text>
<text transform="matrix(1 0 0 1 60.047 141.716)" class="st4 st5 st6">A</text>
<text transform="matrix(1 0 0 1 73.059 141.716)" class="st4 st5 st6">le</text>
<text transform="matrix(1 0 0 1 88.822 141.716)" class="st4 st5 st6">r</text>
<text transform="matrix(1 0 0 1 96.33 141.716)" class="st4 st5 st6">tas</text>
<text transform="matrix(1 0 0 1 34 225.103)" class="st4 st5 st6">V</text>
<text transform="matrix(1 0 0 1 45.22 225.103)" class="st4 st5 st6">elocidad</text>
<text transform="matrix(1 0 0 1 69.006 311.189)" class="st4 st5 st6">Rutas</text>
<path class="st0" d="M149.9,40h17.2v29.4h-17.2V40z"/>
<path class="st7" d="M195.8,40H213v29.4h-17.2V40z"/>
<path class="st1" d="M241.7,40h17.2v29.4h-17.2V40z"/>
<linearGradient id="SVGID_1_" gradientUnits="userSpaceOnUse" x1="158.5" y1="1833.8" x2="342" y2="1833.8" gradientTransform="matrix(1 0 0 1 0 -1615)">
	<stop  offset="0" style="stop-color:#F06B05"/>
	<stop  offset="0.25" style="stop-color:#EFA22E"/>
	<stop  offset="0.5" style="stop-color:#61B856"/>
	<stop  offset="0.75" style="stop-color:#FC7D7D"/>
	<stop  offset="1" style="stop-color:#F21C1C"/>
</linearGradient>
<path class="st8" d="M340,233.5H160.5c-1.1,0-2-1.1-2-2.5v-24.4c0-1.4,0.9-2.5,2-2.5H340c1.1,0,2,1.1,2,2.5V231
	C342,232.4,341.1,233.5,340,233.5z"/>
<text transform="matrix(1 0 0 1 142.04 83.496)" class="st4 st5 st9">#F2D043</text>
<text transform="matrix(1 0 0 1 187.91 83.496)" class="st4 st5 st9">#4071BA</text>
<text transform="matrix(1 0 0 1 232.013 83.496)" class="st4 st5 st9">#DD4D3D</text>
<text transform="matrix(1 0 0 1 142.04 161.98)" class="st4 st5 st9">#F2D043</text>
<text transform="matrix(1 0 0 1 186.138 161.98)" class="st4 st5 st9">#DD4D3D</text>
<text transform="matrix(1 0 0 1 233.792 161.98)" class="st4 st5 st9">#FF802B</text>
<text transform="matrix(1 0 0 1 279.192 161.98)" class="st4 st5 st9">#773DD5</text>
<g>
	<path class="st10" d="M491.2,309.5h-24.6c-2,0-3.6-1.8-3.6-4s1.6-4,3.6-4h24.6c2,0,3.6,1.8,3.6,4S493.2,309.5,491.2,309.5z"/>
	<text transform="matrix(1 0 0 1 462.1796 328.2063)" class="st4 st5 st9">#E5D900</text>
</g>
<g>
	<path class="st11" d="M308.3,309.5h-24.6c-2,0-3.6-1.8-3.6-4s1.6-4,3.6-4h24.6c2,0,3.6,1.8,3.6,4S310.3,309.5,308.3,309.5z"/>
	<text transform="matrix(1 0 0 1 279.2753 328.2065)" class="st4 st5 st9">#FF970D</text>
</g>
<g>
	<path class="st12" d="M216.8,309.5h-24.6c-2,0-3.6-1.8-3.6-4s1.6-4,3.6-4h24.6c2,0,3.6,1.8,3.6,4S218.8,309.5,216.8,309.5z"/>
	<text transform="matrix(1 0 0 1 188.0407 328.2062)" class="st4 st5 st9">#FF0A47</text>
</g>
<g>
	<path class="st13" d="M536.9,309.5h-24.6c-2,0-3.6-1.8-3.6-4s1.6-4,3.6-4h24.6c2,0,3.6,1.8,3.6,4
		C540.6,307.7,538.9,309.5,536.9,309.5z"/>
	<text transform="matrix(1 0 0 1 507.4553 328.2063)" class="st4 st5 st9">#E80C7A</text>
</g>
<g>
	<path class="st14" d="M445.5,309.5h-24.6c-2,0-3.6-1.8-3.6-4s1.6-4,3.6-4h24.6c2,0,3.6,1.8,3.6,4S447.5,309.5,445.5,309.5z"/>
	<text transform="matrix(1 0 0 1 416.0135 328.2069)" class="st4 st5 st9">#FF0AC2</text>
</g>
<g>
	<path class="st15" d="M354,309.5h-24.6c-2,0-3.6-1.8-3.6-4s1.6-4,3.6-4H354c2,0,3.6,1.8,3.6,4S356,309.5,354,309.5z"/>
	<text transform="matrix(1 0 0 1 324.3312 328.2065)" class="st4 st5 st9">#5D01BC</text>
</g>
<g>
	<path class="st16" d="M262.6,309.5H238c-2,0-3.6-1.8-3.6-4s1.6-4,3.6-4h24.6c2,0,3.6,1.8,3.6,4S264.6,309.5,262.6,309.5z"/>
	<text transform="matrix(1 0 0 1 234.2127 328.2062)" class="st4 st5 st9">#0018FF</text>
</g>
<g>
	<path class="st17" d="M582.6,309.5H558c-2,0-3.6-1.8-3.6-4s1.6-4,3.6-4h24.6c2,0,3.6,1.8,3.6,4
		C586.3,307.7,584.6,309.5,582.6,309.5z"/>
	<text transform="matrix(1 0 0 1 553.1965 328.2063)" class="st4 st5 st9">#0AC2FF</text>
</g>
<g>
	<path class="st18" d="M399.7,309.5h-24.6c-2,0-3.6-1.8-3.6-4s1.6-4,3.6-4h24.6c2,0,3.6,1.8,3.6,4S401.7,309.5,399.7,309.5z"/>
	<text transform="matrix(1 0 0 1 370.2823 328.2065)" class="st4 st5 st9">#00FABC</text>
</g>
<g>
	<path class="st19" d="M171.1,309.5h-24.6c-2,0-3.6-1.8-3.6-4s1.6-4,3.6-4h24.6c2,0,3.6,1.8,3.6,4S173.1,309.5,171.1,309.5z"/>
	<text transform="matrix(1 0 0 1 142.3058 328.2062)" class="st4 st5 st9">#47FF0A</text>
</g>
<text transform="matrix(1 0 0 1 142.26 249.817)" class="st4 st5 st9">#F06B05</text>
<text transform="matrix(1 0 0 1 187.247 249.817)" class="st4 st5 st9">#EFA22E</text>
<text transform="matrix(1 0 0 1 234.23 249.817)" class="st4 st5 st9">#61B856</text>
<text transform="matrix(1 0 0 1 278.308 249.817)" class="st4 st5 st9">#FC7D7D</text>
<text transform="matrix(1 0 0 1 324.875 249.817)" class="st4 st5 st9">#F21C1C</text>
</svg>
