<?xml version="1.0" encoding="UTF-8" standalone="no"?>
<!DOCTYPE svg PUBLIC "-//W3C//DTD SVG 1.1//EN" "http://www.w3.org/Graphics/SVG/1.1/DTD/svg11.dtd">
<svg version="1.1" xmlns="http://www.w3.org/2000/svg" xmlns:xlink="http://www.w3.org/1999/xlink" preserveAspectRatio="xMidYMid meet" viewBox="0 0 640 640" width="640" height="640"><defs><path d="M438.33 405.08C442.02 405.11 444.07 405.13 444.48 405.13C453.71 405.2 461.35 412.06 461.28 420.21C461.28 420.62 461.26 423.88 461.25 424.29C461.19 432.44 453.45 439.17 444.22 439.1C443.61 439.09 438.69 439.06 438.07 439.05C434.87 456.7 418.62 469.49 395.55 471.34C374.77 473.9 354 475.11 334.01 474.96C333.55 474.95 329.86 474.93 329.4 474.92C310.18 474.78 291.74 473.28 272.54 470.41C253.34 467.56 234.22 454.5 230.51 437.48C229.81 437.48 224.28 437.44 223.59 437.43C214.36 437.36 206.72 430.51 206.78 422.36C206.78 422.02 206.8 419.3 206.81 418.96C206.87 410.81 214.61 404.07 223.84 404.14C224.3 404.15 226.6 404.16 230.76 404.2C232.26 205.68 233.09 95.39 233.26 73.33C233.35 60.42 245.74 49.65 260.34 49.76C270.6 49.84 321.84 50.22 414.1 50.92C431.98 57.84 440.89 65.84 440.82 74.9C440.65 96.91 439.82 206.98 438.33 405.08Z" id="b6NVbBfzDr"></path><path d="M438.33 405.08C442.02 405.11 444.07 405.13 444.48 405.13C453.71 405.2 461.35 412.06 461.28 420.21C461.28 420.62 461.26 423.88 461.25 424.29C461.19 432.44 453.45 439.17 444.22 439.1C443.61 439.09 438.69 439.06 438.07 439.05C434.87 456.7 418.62 469.49 395.55 471.34C374.77 473.9 354 475.11 334.01 474.96C333.55 474.95 329.86 474.93 329.4 474.92C310.18 474.78 291.74 473.28 272.54 470.41C253.34 467.56 234.22 454.5 230.51 437.48C229.81 437.48 224.28 437.44 223.59 437.43C214.36 437.36 206.72 430.51 206.78 422.36C206.78 422.02 206.8 419.3 206.81 418.96C206.87 410.81 214.61 404.07 223.84 404.14C224.3 404.15 226.6 404.16 230.76 404.2C232.26 205.68 233.09 95.39 233.26 73.33C233.35 60.42 245.74 49.65 260.34 49.76C270.6 49.84 321.84 50.22 414.1 50.92C431.98 57.84 440.89 65.84 440.82 74.9C440.65 96.91 439.82 206.98 438.33 405.08Z" id="a1GJYp3iT9"></path><path d="M263.88 394.93C263.88 394.93 263.88 394.93 264.65 394.94C279.03 395.05 394.04 395.92 408.41 396.03C410.72 396.04 412.24 397.42 412.23 399.46C412.97 403.46 418.88 435.58 419.62 439.59C418.8 445.71 413.38 450.42 406.45 451.72C382.6 454.94 357.98 456.8 334.15 456.62C309.55 455.75 285.74 453.53 261.93 450.63C254.24 449.89 248.9 444.42 248.18 438.3C249.78 430.97 255.35 405.33 256.15 401.67C256.18 397.6 259.27 394.9 263.88 394.93Z" id="gjZCpz1Hk"></path><path d="M263.88 394.93C263.88 394.93 263.88 394.93 264.65 394.94C279.03 395.05 394.04 395.92 408.41 396.03C410.72 396.04 412.24 397.42 412.23 399.46C412.97 403.46 418.88 435.58 419.62 439.59C418.8 445.71 413.38 450.42 406.45 451.72C382.6 454.94 357.98 456.8 334.15 456.62C309.55 455.75 285.74 453.53 261.93 450.63C254.24 449.89 248.9 444.42 248.18 438.3C249.78 430.97 255.35 405.33 256.15 401.67C256.18 397.6 259.27 394.9 263.88 394.93Z" id="a2mqcmyEmR"></path><path d="M408.46 84.17C394.16 84.06 279.77 83.2 265.47 83.09C260.08 83.05 255.51 78.93 255.54 74.18C255.54 74.18 255.54 74.18 255.54 74.18C255.58 69.42 260.22 65.39 265.61 65.43C279.91 65.54 394.29 66.4 408.59 66.51C413.98 66.55 418.56 70.65 418.53 75.41C418.53 75.41 418.53 75.41 418.53 75.41C418.49 80.16 413.85 84.21 408.46 84.17Z" id="eeOGYEHxS"></path><path d="M408.46 84.17C394.16 84.06 279.77 83.2 265.47 83.09C260.08 83.05 255.51 78.93 255.54 74.18C255.54 74.18 255.54 74.18 255.54 74.18C255.58 69.42 260.22 65.39 265.61 65.43C279.91 65.54 394.29 66.4 408.59 66.51C413.98 66.55 418.56 70.65 418.53 75.41C418.53 75.41 418.53 75.41 418.53 75.41C418.49 80.16 413.85 84.21 408.46 84.17Z" id="cNUTmeu9s"></path><path d="M299.52 359.19C299.56 354.5 299.84 317 299.87 312.31C299.9 308.24 303.77 304.87 308.39 304.91C313.69 304.95 356.13 305.27 361.43 305.31C366.05 305.34 369.86 308.77 369.83 312.84C369.8 317.53 369.51 355.03 369.48 359.72C369.45 363.8 365.58 367.16 360.96 367.13C350.35 367.05 313.22 366.77 307.92 366.73C303.3 366.69 299.49 363.27 299.52 359.19Z" id="h1lOD9E8pE"></path><path d="M299.52 359.19C299.56 354.5 299.84 317 299.87 312.31C299.9 308.24 303.77 304.87 308.39 304.91C313.69 304.95 356.13 305.27 361.43 305.31C366.05 305.34 369.86 308.77 369.83 312.84C369.8 317.53 369.51 355.03 369.48 359.72C369.45 363.8 365.58 367.16 360.96 367.13C350.35 367.05 313.22 366.77 307.92 366.73C303.3 366.69 299.49 363.27 299.52 359.19Z" id="b422ejGs9H"></path><path d="M405.47 277.78L406.78 103.86" id="b1q1GE2hAx"></path><path d="M405.47 277.78L406.78 103.86" id="c2aGOVCBJ6"></path><path d="M370.1 277.51L371.41 103.59" id="boaVtWc3d"></path><path d="M370.1 277.51L371.41 103.59" id="b3SvkF4xE"></path><path d="M335.5 277.25L336.81 103.33" id="k18ngLj51j"></path><path d="M335.5 277.25L336.81 103.33" id="a18c1Qm1x1"></path><path d="M300.14 276.99L301.45 103.06" id="b9q0aLxdo"></path><path d="M300.14 276.99L301.45 103.06" id="a1wDPM7T2n"></path><path d="M265.54 276.72L266.86 102.8" id="aktHH0iH4"></path><path d="M265.54 276.72L266.86 102.8" id="ht6nMazLJ"></path></defs><g><g><g><use xlink:href="#b6NVbBfzDr" opacity="1" fill="#91b64f" fill-opacity="1"></use><g><use xlink:href="#b6NVbBfzDr" opacity="1" fill-opacity="0" stroke="#000000" stroke-width="1" stroke-opacity="0"></use></g></g><g><use xlink:href="#a1GJYp3iT9" opacity="1" fill="#000000" fill-opacity="0"></use><g><use xlink:href="#a1GJYp3iT9" opacity="1" fill-opacity="0" stroke="#000000" stroke-width="1" stroke-opacity="0"></use></g></g><g><use xlink:href="#gjZCpz1Hk" opacity="1" fill="#ffffff" fill-opacity="1"></use><g><use xlink:href="#gjZCpz1Hk" opacity="1" fill-opacity="0" stroke="#000000" stroke-width="1" stroke-opacity="0"></use></g></g><g><use xlink:href="#a2mqcmyEmR" opacity="1" fill="#000000" fill-opacity="0"></use><g><use xlink:href="#a2mqcmyEmR" opacity="1" fill-opacity="0" stroke="#000000" stroke-width="1" stroke-opacity="0"></use></g></g><g><use xlink:href="#eeOGYEHxS" opacity="1" fill="#ffffff" fill-opacity="1"></use><g><use xlink:href="#eeOGYEHxS" opacity="1" fill-opacity="0" stroke="#000000" stroke-width="1" stroke-opacity="0"></use></g></g><g><use xlink:href="#cNUTmeu9s" opacity="1" fill="#000000" fill-opacity="0"></use><g><use xlink:href="#cNUTmeu9s" opacity="1" fill-opacity="0" stroke="#000000" stroke-width="1" stroke-opacity="0"></use></g></g><g><use xlink:href="#h1lOD9E8pE" opacity="1" fill="#ffffff" fill-opacity="1"></use><g><use xlink:href="#h1lOD9E8pE" opacity="1" fill-opacity="0" stroke="#000000" stroke-width="1" stroke-opacity="0"></use></g></g><g><use xlink:href="#b422ejGs9H" opacity="1" fill="#000000" fill-opacity="0"></use><g><use xlink:href="#b422ejGs9H" opacity="1" fill-opacity="0" stroke="#000000" stroke-width="1" stroke-opacity="0"></use></g></g><g><use xlink:href="#b1q1GE2hAx" opacity="1" fill="#000000" fill-opacity="0"></use><g><use xlink:href="#b1q1GE2hAx" opacity="1" fill-opacity="0" stroke="#000000" stroke-width="1" stroke-opacity="0"></use></g></g><g><use xlink:href="#c2aGOVCBJ6" opacity="1" fill="#000000" fill-opacity="0"></use><g><use xlink:href="#c2aGOVCBJ6" opacity="1" fill-opacity="0" stroke="#ffffff" stroke-width="0.7" stroke-opacity="1"></use></g></g><g><use xlink:href="#boaVtWc3d" opacity="1" fill="#000000" fill-opacity="0"></use><g><use xlink:href="#boaVtWc3d" opacity="1" fill-opacity="0" stroke="#000000" stroke-width="1" stroke-opacity="0"></use></g></g><g><use xlink:href="#b3SvkF4xE" opacity="1" fill="#000000" fill-opacity="0"></use><g><use xlink:href="#b3SvkF4xE" opacity="1" fill-opacity="0" stroke="#ffffff" stroke-width="0.7" stroke-opacity="1"></use></g></g><g><use xlink:href="#k18ngLj51j" opacity="1" fill="#000000" fill-opacity="0"></use><g><use xlink:href="#k18ngLj51j" opacity="1" fill-opacity="0" stroke="#000000" stroke-width="1" stroke-opacity="0"></use></g></g><g><use xlink:href="#a18c1Qm1x1" opacity="1" fill="#000000" fill-opacity="0"></use><g><use xlink:href="#a18c1Qm1x1" opacity="1" fill-opacity="0" stroke="#ffffff" stroke-width="0.7" stroke-opacity="1"></use></g></g><g><use xlink:href="#b9q0aLxdo" opacity="1" fill="#000000" fill-opacity="0"></use><g><use xlink:href="#b9q0aLxdo" opacity="1" fill-opacity="0" stroke="#000000" stroke-width="1" stroke-opacity="0"></use></g></g><g><use xlink:href="#a1wDPM7T2n" opacity="1" fill="#000000" fill-opacity="0"></use><g><use xlink:href="#a1wDPM7T2n" opacity="1" fill-opacity="0" stroke="#ffffff" stroke-width="0.7" stroke-opacity="1"></use></g></g><g><use xlink:href="#aktHH0iH4" opacity="1" fill="#000000" fill-opacity="0"></use><g><use xlink:href="#aktHH0iH4" opacity="1" fill-opacity="0" stroke="#000000" stroke-width="1" stroke-opacity="0"></use></g></g><g><use xlink:href="#ht6nMazLJ" opacity="1" fill="#000000" fill-opacity="0"></use><g><use xlink:href="#ht6nMazLJ" opacity="1" fill-opacity="0" stroke="#ffffff" stroke-width="0.7" stroke-opacity="1"></use></g></g></g></g></svg>