<?xml version="1.0" encoding="utf-8"?>
<!-- Generator: Adobe Illustrator 22.0.0, SVG Export Plug-In . SVG Version: 6.00 Build 0)  -->
<svg version="1.1" id="Capa_1" xmlns="http://www.w3.org/2000/svg" xmlns:xlink="http://www.w3.org/1999/xlink" x="0px" y="0px"
	 viewBox="0 0 60 60" style="enable-background:new 0 0 60 60;" xml:space="preserve">
<style type="text/css">
	.st0{fill:#666666;}
</style>
<path class="st0" d="M49.4,20.6L15,4.4V3.6c0.6-0.3,1-0.9,1-1.7c0-1-0.8-1.9-1.9-1.9H14l0,0h-0.1c-0.1,0-0.1,0-0.2,0c0,0,0,0-0.1,0
	c-0.8,0.2-1.3,0.9-1.3,1.8c0,0.6,0.3,1.2,0.8,1.5V4v33v3v18h-2.9c-0.6,0-1,0.4-1,1s0.4,1,1,1H18c0.6,0,1-0.4,1-1s-0.4-1-1-1h-3V36.7
	l34.4-14.3c0.4-0.1,0.6-0.5,0.6-0.9C50,21.1,49.8,20.8,49.4,20.6z"/>
</svg>
