<?xml version="1.0" encoding="utf-8"?>
<!-- Generator: Adobe Illustrator 22.0.0, SVG Export Plug-In . SVG Version: 6.00 Build 0)  -->
<svg version="1.1" id="Capa_1" xmlns="http://www.w3.org/2000/svg" xmlns:xlink="http://www.w3.org/1999/xlink" x="0px" y="0px"
	 viewBox="0 0 60 60" style="enable-background:new 0 0 60 60;" xml:space="preserve">
<style type="text/css">
	.st0{fill:#666;}
</style>
<path class="st0" d="M1.9,16.9h1.9v11.2H1.9c-1,0-1.9-0.8-1.9-1.8l0,0v-7.5C0,17.7,0.8,16.9,1.9,16.9L1.9,16.9z M58.1,16.9h-1.9
	v11.2h1.9c1,0,1.9-0.8,1.9-1.8l0,0v-7.5C60,17.7,59.2,16.9,58.1,16.9L58.1,16.9z M52.5,13.1v33.8c0,2.1-1.7,3.7-3.7,3.7l0,0v3.8
	c0,2.1-1.6,3.7-3.7,3.7l0,0h-3.8c-2.1,0-3.7-1.7-3.7-3.7l0,0v-3.8h-15v3.8c0,2.1-1.7,3.7-3.7,3.7l0,0H15c-2.1,0-3.7-1.7-3.7-3.7l0,0
	v-3.8c-2.1,0-3.7-1.7-3.8-3.7V13.1c0-6.2,5-11.2,11.3-11.2h22.5C47.5,1.9,52.5,6.9,52.5,13.1z M22.5,9.4h15V5.6h-15V9.4z M18.8,43.1
	c0-2.1-1.7-3.8-3.7-3.8S11.3,41,11.3,43s1.7,3.8,3.7,3.8l0,0C17.1,46.9,18.7,45.2,18.8,43.1z M48.8,43.1c0-2.1-1.7-3.8-3.7-3.8
	S41.3,41,41.3,43s1.7,3.8,3.7,3.8l0,0C47.1,46.9,48.7,45.2,48.8,43.1L48.8,43.1L48.8,43.1z M48.8,13.1H11.3v22.5h37.5V13.1
	L48.8,13.1z"/>
</svg>
