<?xml version="1.0" encoding="utf-8"?>
<!-- Generator: Adobe Illustrator 22.0.0, SVG Export Plug-In . SVG Version: 6.00 Build 0)  -->
<svg version="1.1" id="Capa_1" xmlns="http://www.w3.org/2000/svg" xmlns:xlink="http://www.w3.org/1999/xlink" x="0px" y="0px"
	 viewBox="0 0 60 60" style="enable-background:new 0 0 60 60;" xml:space="preserve">
<style type="text/css">
	.st0{fill:#345d91;}
</style>
<path class="st0" d="M4.6,20.1c-0.5,0-1-0.4-1-1v-0.9H2.8c-0.5,0-1-0.4-1-0.9l0,0c0-0.5,0.4-1,0.9-1l0,0h1.9c0.5,0,1,0.4,1,1v1.9
	C5.6,19.7,5.1,20.1,4.6,20.1z M4.6,24.9c-0.5,0-1-0.4-1-1v-2.4c0-0.5,0.4-1,1-1c0.5,0,1,0.4,1,1v2.4C5.6,24.4,5.1,24.9,4.6,24.9z
	 M4.6,29.1H2.8c-0.5,0-1-0.4-1-0.9l0,0c0-0.5,0.4-1,0.9-1l0,0h0.9v-0.9c0-0.5,0.4-1,1-1s1,0.4,1,1v1.8C5.6,28.7,5.1,29.1,4.6,29.1z
	 M1,25.8c-0.5,0-1-0.4-1-1v-4.3c0-0.5,0.4-1,1-1s1,0.4,1,1v4.3C1.9,25.4,1.5,25.8,1,25.8z M55.4,20.1c-0.5,0-1-0.4-1-1v-1.9
	c0-0.5,0.4-1,1-1h1.8c0.5,0,1,0.4,1,0.9l0,0c0,0.5-0.4,1-0.9,1l0,0h-0.9v1C56.3,19.7,55.9,20.1,55.4,20.1z M55.4,24.9
	c-0.5,0-1-0.4-1-1v-2.4c0-0.5,0.4-1,1-1c0.5,0,1,0.4,1,1v2.4C56.4,24.4,55.9,24.9,55.4,24.9z M57.3,29.1h-1.9c-0.5,0-1-0.4-1-1v-1.8
	c0-0.5,0.4-1,1-1c0.5,0,1,0.4,1,1v0.9h0.9c0.5,0,1,0.4,1,1C58.1,28.6,57.8,29.1,57.3,29.1z M59,25.8c-0.5,0-1-0.4-1-1v-4.3
	c0-0.5,0.4-1,1-1c0.5,0,1,0.4,1,1v4.3C60,25.4,59.6,25.8,59,25.8z M48.2,52.7c-0.5,0-1-0.4-1-1v-1.8c0-0.5,0.4-1,1-1
	c0.5,0,0.9-0.1,1.3-0.3c0.5-0.3,1-0.2,1.3,0.3s0.2,1-0.3,1.3c0,0-0.1,0-0.1,0.1c-0.4,0.2-0.8,0.4-1.3,0.5v1
	C49.1,52.3,48.7,52.7,48.2,52.7z M40.8,58.2c-1.6,0-3.1-0.9-3.9-2.3c-0.3-0.5-0.1-1.1,0.4-1.3c0.5-0.3,1-0.1,1.3,0.3
	c0.5,0.8,1.3,1.3,2.3,1.3c0.5,0,0.9,0.4,0.9,0.9c0,0,0,0,0,0.1C41.8,57.7,41.4,58.2,40.8,58.2C40.9,58.2,40.9,58.2,40.8,58.2z
	 M44.6,58.2c-0.5,0-1-0.4-1-1c0-0.5,0.4-1,1-1c0.9,0,1.8-0.5,2.2-1.3c0.3-0.5,0.9-0.6,1.3-0.3l0,0c0.4,0.3,0.6,0.9,0.3,1.3
	c0,0,0,0.1-0.1,0.1C47.6,57.4,46.1,58.2,44.6,58.2L44.6,58.2z M37.3,52.7c-0.5,0-1-0.4-1-1v-0.9h-0.9c-0.5,0-1-0.4-1-1
	c0-0.5,0.4-1,1-1h1.9c0.5,0,1,0.4,1,1v1.8C38.3,52.3,37.9,52.7,37.3,52.7L37.3,52.7z M31.8,50.9h-3.6c-0.5,0-1-0.4-1-1
	c0-0.5,0.4-1,1-1h3.6c0.5,0,1,0.4,1,1S32.3,50.9,31.8,50.9z M22.7,52.7c-0.5,0-1-0.4-1-1v-1.8c0-0.5,0.4-1,1-1h1.9c0.5,0,1,0.4,1,1
	c0,0.5-0.4,1-1,1h-0.9v0.9C23.8,52.3,23.4,52.7,22.7,52.7C22.8,52.7,22.8,52.7,22.7,52.7z M15.5,58.2c-1.6,0-3-0.8-3.9-2.2
	c-0.3-0.5-0.1-1,0.3-1.3c0.5-0.3,1.1-0.1,1.3,0.3c0.5,0.8,1.3,1.2,2.2,1.2c0.5,0,0.9,0.4,0.9,0.9l0,0C16.4,57.7,16,58.1,15.5,58.2z
	 M19.2,58.2c-0.5,0-1-0.4-1-1c0-0.5,0.4-1,1-1c0.9,0,1.8-0.5,2.3-1.3c0.3-0.5,0.9-0.6,1.3-0.3s0.6,0.8,0.3,1.3
	C22.3,57.3,20.9,58.1,19.2,58.2L19.2,58.2z M11.9,52.7c-0.5,0-1-0.4-1-1v-1c-0.4-0.1-0.8-0.3-1.2-0.5C9.2,50,9.1,49.4,9.3,49
	c0.3-0.5,0.9-0.6,1.3-0.4c0.4,0.2,0.9,0.3,1.3,0.3c0.5,0,1,0.4,1,1v1.8C12.9,52.3,12.5,52.7,11.9,52.7L11.9,52.7z M8.2,47.3
	c-0.5,0-0.9-0.3-1-0.8l0,0v-3.7c0-0.5,0.4-1,1-1c0.5,0,1,0.4,1,1v3.5C9.2,46.8,8.8,47.3,8.2,47.3L8.2,47.3z M51.8,46.4h-1v-3.7
	c0-0.5,0.4-1,1-1s1,0.4,1,1v3.6L51.8,46.4z M8.2,40.1c-0.5,0-1-0.4-1-1v-3.7c0-0.5,0.4-1,1-1c0.5,0,1,0.4,1,1v3.7
	C9.2,39.6,8.8,40.1,8.2,40.1z M51.8,40.1c-0.5,0-1-0.4-1-1v-3.7c0-0.5,0.4-1,1-1s1,0.4,1,1v3.7C52.7,39.6,52.3,40,51.8,40.1
	L51.8,40.1z M8.2,32.7c-0.5,0-1-0.4-1-1V28c0-0.5,0.4-1,1-1c0.5,0,1,0.4,1,1v3.7C9.2,32.3,8.8,32.7,8.2,32.7z M51.8,32.7
	c-0.5,0-1-0.4-1-1V28c0-0.5,0.4-1,1-1s1,0.4,1,1v3.7C52.8,32.2,52.4,32.7,51.8,32.7L51.8,32.7z M8.2,25.3c-0.5,0-1-0.4-1-1v-3.7
	c0-0.5,0.4-1,1-1c0.5,0,1,0.4,1,1v3.7C9.2,24.9,8.8,25.3,8.2,25.3z M51.8,25.3c-0.5,0-1-0.4-1-1v-3.7c0-0.5,0.4-1,1-1s1,0.4,1,1v3.7
	C52.7,24.8,52.3,25.2,51.8,25.3L51.8,25.3z M8.2,18c-0.5,0-1-0.4-1-1v-3.7c0-0.5,0.5-1,1-0.9c0.5,0,1,0.5,0.9,1c0,0,0,0,0,0.1V17
	C9.2,17.5,8.8,18,8.2,18L8.2,18z M51.8,18c-0.5,0-1-0.4-1-1v-3.7c0-0.5,0.4-1,0.9-1l0,0c0.5-0.1,1,0.3,1,0.8v0.1v3.7
	C52.7,17.4,52.3,17.9,51.8,18L51.8,18z M9,10.7c-0.1,0-0.2,0-0.3,0C8.2,10.5,8,10,8.1,9.5c0.4-1.3,1.1-2.5,2-3.6
	c0.3-0.4,1-0.5,1.4-0.1c0.4,0.3,0.5,1,0.1,1.4l0,0C10.9,8,10.3,9,9.9,10.1C9.7,10.4,9.4,10.7,9,10.7z M51,10.7
	c-0.4,0-0.8-0.2-0.9-0.6c-0.4-1.1-1-2.1-1.7-2.9c-0.3-0.4-0.3-1,0.1-1.3l0,0c0.4-0.3,1-0.3,1.4,0.1c0.9,1,1.6,2.2,2.1,3.4
	c0.2,0.5-0.1,1.1-0.5,1.3l0,0C51.3,10.6,51.1,10.6,51,10.7L51,10.7z M13.6,5.2c-0.5,0-1-0.4-1-1c0-0.3,0.2-0.6,0.5-0.8
	c1.2-0.7,2.4-1.2,3.8-1.4c0.5-0.1,1,0.2,1.1,0.8c0.1,0.5-0.2,1-0.8,1.1l0,0c-1.1,0.2-2.2,0.6-3.1,1.2C14,5.1,13.8,5.2,13.6,5.2z
	 M46.3,5.2c-0.2,0-0.3,0-0.5-0.1c-1-0.6-2-1-3.1-1.2c-0.5-0.1-0.9-0.6-0.8-1.1C42,2.3,42.5,1.9,43,2l0,0c1.3,0.2,2.6,0.7,3.8,1.4
	c0.5,0.3,0.6,0.9,0.3,1.3C46.9,5,46.6,5.2,46.3,5.2z M39.2,3.7h-3.7c-0.5,0-1-0.4-1-1s0.4-1,1-1h3.7c0.5,0,1,0.4,1,1
	S39.7,3.7,39.2,3.7z M31.8,3.7h-3.7c-0.5,0-1-0.4-1-1s0.4-1,1-1h3.7c0.5,0,1,0.4,1,1S32.4,3.7,31.8,3.7z M24.4,3.7h-3.7
	c-0.5,0-1-0.4-1-1s0.4-1,1-1h3.7c0.5,0,1,0.4,1,1S25,3.7,24.4,3.7z"/>
</svg>
