<?xml version="1.0" encoding="utf-8"?>
<!-- Generator: Adobe Illustrator 22.0.0, SVG Export Plug-In . SVG Version: 6.00 Build 0)  -->
<svg version="1.1" id="Capa_1" xmlns="http://www.w3.org/2000/svg" xmlns:xlink="http://www.w3.org/1999/xlink" x="0px" y="0px"
	 viewBox="0 0 71.6 41.2" style="enable-background:new 0 0 71.6 41.2;" xml:space="preserve">
<style type="text/css">
	.st0{fill:#666666;}
	.st1{fill:#FFFFFF;}
</style>
<g>
	<path class="st0" d="M6.3,32.5h-3c-1.3,0-2.4-1.1-2.4-2.4v-2.9c0-1.1,0.7-2,1.7-2.3v-6.5C2.6,14.7,7.7,1,16.7,1h40.4
		c2.4,0,4.3,1.9,4.3,4.3v19.6c0.8,0.4,1.4,1.2,1.4,2.2l0,3v0.1c-0.2,1.3-1.2,2.2-2.4,2.2H54c-0.7,1.8-2.2,3.2-4.1,3.8
		c-0.6,0.1-1.1,0.2-1.7,0.2c-2.5,0-4.8-1.6-5.7-3.9H17.9c-0.7,1.8-2.3,3.2-4.2,3.7c-0.6,0.1-1.1,0.2-1.7,0.2
		C9.4,36.4,7.2,34.8,6.3,32.5z M48,28.6c-0.9,0-1.5,0.7-1.4,1.6c0,0.8,0.7,1.4,1.5,1.4h0.1c0.7-0.1,1.3-0.7,1.4-1.4
		c0.1-0.8-0.5-1.5-1.3-1.6H48z M10.5,30.1c0,0.8,0.7,1.5,1.5,1.5c0.9,0,1.5-0.8,1.5-1.5c0-0.8-0.7-1.5-1.5-1.5S10.5,29.3,10.5,30.1z
		 M20.1,27V8.6h-0.5V27H20.1z M24.1,27V8.6h-0.5V27H24.1z M33.6,14.4V8.7h-4.7v5.7H33.6z M43,14.4V8.7h-4.7v5.7H43z M15,14.3V8.6h-2
		c-2.5,0.6-3.9,3.9-4.3,5.7H15z M53.3,14.3L53.1,11v-0.3c-0.2-2.1-0.3-2.1-1.2-2.1h-4.2v5.7C47.7,14.3,53.3,14.3,53.3,14.3z"/>
	<path class="st1" d="M16.7,2c2.9,0,38.1,0,38.1,0h2.3c1.8,0,3.3,1.5,3.3,3.3v20.5c0.8,0,1.4,0.6,1.4,1.4l0,2.9
		c-0.1,0.7-0.7,1.3-1.4,1.3h-7.1c-0.5,1.8-1.9,3.2-3.7,3.8c-0.5,0.1-0.9,0.2-1.4,0.2c-2.3,0-4.4-1.6-5-3.9H17.1
		c-0.4,1.8-1.9,3.2-3.7,3.7c-0.5,0.1-0.9,0.2-1.4,0.2c-2.3,0-4.4-1.6-5-3.9H3.3c-0.8,0-1.4-0.6-1.4-1.4v-2.9c0-0.8,0.6-1.4,1.4-1.4
		h0.3v-7.4C3.6,15.3,8.3,2,16.7,2 M15.9,15.3V7.6c0,0-2.4,0-3.1,0c-3.7,0.8-5.3,6.3-5.3,7.7H15.9 M21.1,28V7.6h-2.5V28H21.1
		 M25.1,28V7.6h-2.5V28H25.1 M54.4,15.3l-0.3-4.4c-0.2-2.1-0.2-3.3-2.2-3.3h-5.2v7.7H54.4 M34.6,15.4V7.7h-6.7v7.7H34.6 M44,15.4
		V7.7h-6.7v7.7H44 M12,32.6c1.4,0,2.5-1.2,2.5-2.5c0-1.4-1.1-2.5-2.5-2.5s-2.5,1.1-2.5,2.5S10.6,32.6,12,32.6 M48.1,32.6
		c0.1,0,0.1,0,0.2,0c1.2-0.1,2.2-1.1,2.3-2.3c0.1-1.4-0.9-2.6-2.3-2.7c-0.1,0-0.3,0-0.4,0c-1.4,0.1-2.4,1.3-2.3,2.7
		C45.7,31.6,46.8,32.6,48.1,32.6 M16.7,0C12.4,0,8.4,2.8,5.4,7.9c-2.3,3.9-3.7,8.3-3.7,10.4v5.8c-1,0.6-1.7,1.7-1.7,3L0,30
		c0,1.9,1.5,3.4,3.4,3.4h2.3c1.2,2.4,3.7,3.9,6.4,3.9c0.6,0,1.3-0.1,1.9-0.3c1.9-0.5,3.6-1.9,4.5-3.6h23.3c1.2,2.4,3.7,3.9,6.4,3.9
		c0.7,0,1.4-0.1,2-0.3l0,0l0,0c1.9-0.6,3.5-2,4.4-3.7h5.8c1.7,0,3.2-1.3,3.4-3v-0.1v-0.1v-2.9c0-1.2-0.5-2.2-1.4-2.8V5.3
		C62.4,2.4,60,0,57.1,0l-2.3,0L16.7,0L16.7,0z M13.9,9.6v3.7H10c0.5-1.5,1.6-3.3,3-3.7H13.9L13.9,9.6z M51.9,9.6
		c0.1,0.3,0.1,0.8,0.2,1.2v0.3l0.2,2.2h-3.6V9.6H51.9L51.9,9.6L51.9,9.6z M32.6,9.7v3.7h-2.7V9.7H32.6L32.6,9.7z M42,9.7v3.7h-2.7
		V9.7H42L42,9.7z M12,30.6c-0.3,0-0.5-0.2-0.5-0.5s0.2-0.5,0.5-0.5s0.5,0.2,0.5,0.5C12.5,30.3,12.3,30.6,12,30.6L12,30.6z
		 M48.2,29.6c0.3,0,0.4,0.3,0.3,0.5c0,0.3-0.2,0.5-0.4,0.5l0,0c-0.2,0-0.5-0.1-0.5-0.4c0-0.3,0.1-0.6,0.4-0.6H48.2L48.2,29.6z"/>
</g>
</svg>
