<?xml version="1.0" encoding="utf-8"?>
<!-- Generator: Adobe Illustrator 22.0.0, SVG Export Plug-In . SVG Version: 6.00 Build 0)  -->
<svg version="1.1" id="Capa_1" xmlns="http://www.w3.org/2000/svg" xmlns:xlink="http://www.w3.org/1999/xlink" x="0px" y="0px"
	 viewBox="0 0 512 512" style="enable-background:new 0 0 512 512;" xml:space="preserve">
<style type="text/css">
	.st0{fill:#666666;}
</style>
<path class="st0" d="M401.5,15.3c-34,0-61.5,27.6-61.5,61.5c0,17.6,9.3,38.2,27.5,61.3c12.9,16.4,25.8,28,26.3,28.5l7.7,6.9l7.7-6.9
	c0.5-0.5,13.4-12.1,26.3-28.5C453.8,115,463,94.4,463,76.8C463,42.9,435.4,15.3,401.5,15.3L401.5,15.3z M401.5,94.9
	c-10,0-18-8.1-18-18s8.1-18,18-18c10,0,18,8.1,18,18C419.5,86.8,411.5,94.9,401.5,94.9z"/>
<path class="st0" d="M381.5,322.9h-87.2c-27.2,0-49.3-22.1-49.3-49.3s22.1-49.3,49.3-49.3h92.3c3.7,3.6,8.8,5.8,14.4,5.8
	c11.5,0,20.8-9.4,20.8-20.8c0-11.5-9.4-20.8-20.8-20.8c-5.6,0-10.7,2.2-14.4,5.8h-92.3c-43.7,0-79.3,35.6-79.3,79.3
	s35.6,79.3,79.3,79.3h87.2c34,0,61.6,27.6,61.6,61.6s-27.6,61.6-61.6,61.6H95.3c-3.7-3.6-8.8-5.8-14.4-5.8
	c-11.5,0-20.8,9.4-20.8,20.8c0,11.5,9.4,20.8,20.8,20.8c5.6,0,10.7-2.2,14.4-5.8h286.2c50.5,0,91.6-41.1,91.6-91.6
	S432,322.9,381.5,322.9L381.5,322.9z"/>
<path class="st0" d="M5.9,355.2h4.9v29H5.9c-2.6,0-4.9-2.1-4.9-4.7l0,0v-19.5C1,357.3,3.1,355.2,5.9,355.2L5.9,355.2z M151.7,355.2
	h-4.9v29h4.9c2.6,0,4.9-2.1,4.9-4.7l0,0v-19.5C156.6,357.3,154.5,355.2,151.7,355.2L151.7,355.2z M137.2,345.4v87.7
	c0,5.4-4.4,9.6-9.6,9.6l0,0v9.9c0,5.4-4.1,9.6-9.6,9.6l0,0h-9.9c-5.4,0-9.6-4.4-9.6-9.6l0,0v-9.9H59.6v9.9c0,5.4-4.4,9.6-9.6,9.6
	l0,0H39.9c-5.4,0-9.6-4.4-9.6-9.6l0,0v-9.9c-5.4,0-9.6-4.4-9.9-9.6v-87.7c0-16.1,13-29,29.3-29h58.4
	C124.2,316.3,137.2,329.3,137.2,345.4z M59.4,335.8h38.9v-9.9H59.4V335.8z M49.8,423.2c0-5.4-4.4-9.9-9.6-9.9s-9.9,4.4-9.9,9.6
	c0,5.2,4.4,9.9,9.6,9.9l0,0C45.4,433.1,49.5,428.6,49.8,423.2z M127.6,423.2c0-5.4-4.4-9.9-9.6-9.9c-5.2,0-9.9,4.4-9.9,9.6
	c0,5.2,4.4,9.9,9.6,9.9l0,0C123.2,433.1,127.3,428.6,127.6,423.2L127.6,423.2L127.6,423.2z M127.6,345.4H30.3v58.4h97.3V345.4
	L127.6,345.4z"/>
</svg>
