<?xml version="1.0" encoding="utf-8"?>
<!-- Generator: Adobe Illustrator 22.0.0, SVG Export Plug-In . SVG Version: 6.00 Build 0)  -->
<svg version="1.1" id="Capa_1" xmlns="http://www.w3.org/2000/svg" xmlns:xlink="http://www.w3.org/1999/xlink" x="0px" y="0px"
	 viewBox="0 0 67.6 37.4" style="enable-background:new 0 0 67.6 37.4;" xml:space="preserve">
<style type="text/css">
	.st0{fill:#e9e952;}
</style>
<title>Mesa de trabajo 4 copia 7</title>
<path class="st0" d="M66.2,23.8h-0.3v-7.4C65.9,13.3,61.2,0,52.8,0c-2.9,0-38.1,0-38.1,0h-2.3c-1.8,0-3.3,1.5-3.3,3.3v20.5
	c-0.8,0-1.4,0.6-1.4,1.4v2.9c0.1,0.7,0.7,1.3,1.4,1.3h7.1c0.5,1.8,1.9,3.2,3.7,3.8c2.8,0.8,5.7-0.9,6.4-3.7h26.1
	c0.4,1.8,1.9,3.2,3.7,3.7c2.8,0.8,5.7-0.9,6.4-3.7h3.7c0.8,0,1.4-0.6,1.4-1.4v-2.9C67.6,24.4,67,23.8,66.2,23.8z M15.1,13.3l0.3-4.4
	c0.2-2.1,0.2-3.3,2.2-3.3h5.2v7.7H15.1z M21.2,30.6c-1.2-0.1-2.2-1.1-2.3-2.3c-0.1-1.4,0.9-2.6,2.3-2.7c0.1,0,0.3,0,0.4,0
	c1.4,0.1,2.4,1.3,2.3,2.7C23.8,29.7,22.6,30.7,21.2,30.6z M32.2,13.4h-6.7V5.7h6.7V13.4z M41.6,13.4h-6.7V5.7h6.7V13.4z M44.4,5.6
	h2.5V26h-2.5V5.6z M50.9,26h-2.5V5.6h2.5V26z M57.5,30.6c-1.4,0-2.5-1.2-2.5-2.5c0-1.4,1.1-2.5,2.5-2.5c1.4,0,2.5,1.1,2.5,2.5
	S58.9,30.6,57.5,30.6z M53.6,13.3V5.6c0,0,2.4,0,3.1,0c3.7,0.8,5.3,6.3,5.3,7.7H53.6z"/>
</svg>
