<?xml version="1.0" encoding="utf-8"?>
<!-- Generator: Adobe Illustrator 22.0.0, SVG Export Plug-In . SVG Version: 6.00 Build 0)  -->
<svg version="1.1" id="Capa_1" xmlns="http://www.w3.org/2000/svg" xmlns:xlink="http://www.w3.org/1999/xlink" x="0px" y="0px"
	 viewBox="0 0 67.6 37.4" style="enable-background:new 0 0 67.6 37.4;" xml:space="preserve">
<style type="text/css">
	.st0{fill:#D25C2D;}
	.st1{fill:#A5A5A5;}
</style>
<g>
	<polygon class="st0" points="25.2,6.8 25.5,6.9 25.5,5.7 25,6.7 	"/>
	<path class="st0" d="M66.2,23.8h-0.3v-7.4C65.9,13.3,61.2,0,52.8,0C51,0,36.7,0,26.1,0c0.1,0.1,0.2,0.3,0.2,0.4
		c0.5,1.1,0.5,2.4,0,3.5l0,0.1l0,0.1l-0.8,1.6h6.7v5.1c0.7,0.6,1.4,1.2,2.1,1.9c1.7,1.7,1.7,4.5,0,6.2c-0.8,0.8-1.9,1.3-3.1,1.3
		c-0.1,0-0.2,0-0.3,0c0.6,1.6,0.3,3.4-1,4.6c-0.8,0.8-2,1.3-3.1,1.3c-0.1,0-0.2,0-0.4,0c0.4,1.1,0.4,2.3-0.1,3.4h26.1
		c0.4,1.8,1.9,3.2,3.7,3.7c2.8,0.8,5.7-0.9,6.4-3.7h3.7c0.8,0,1.4-0.6,1.4-1.4v-2.9C67.6,24.4,67,23.8,66.2,23.8z M41.6,13.4h-6.7
		V5.7h6.7V13.4z M46.9,26h-2.5V5.6h2.5V26z M50.9,26h-2.5V5.6h2.5V26z M57.5,30.6c-1.4,0-2.5-1.2-2.5-2.5c0-1.4,1.1-2.5,2.5-2.5
		c1.4,0,2.5,1.1,2.5,2.5S58.9,30.6,57.5,30.6z M53.6,13.3V5.6c0,0,2.4,0,3.1,0c3.7,0.8,5.3,6.3,5.3,7.7H53.6z"/>
	<path class="st0" d="M25.5,30.8c-0.8,0.8-1.9,1.3-3.1,1.3c-1.2,0-2.3-0.5-3.1-1.3c-0.5-0.5-1.2-0.9-1.9-1l-1-0.2
		c0.5,1.7,1.9,3,3.6,3.6c2.8,0.8,5.6-0.9,6.4-3.6C26.1,30,25.8,30.4,25.5,30.8z"/>
	<path class="st0" d="M15.4,5.4L18,0.2c0-0.1,0.1-0.2,0.1-0.2c-2.1,0-3.4,0-3.4,0h-2.3c-1.8,0-3.3,1.5-3.3,3.3v3.3
		C11.1,5.9,13.2,5.5,15.4,5.4z"/>
</g>
<g>
	<path class="st1" d="M8.5,34L24.1,3c0.4-1.1-0.1-2.3-1.2-2.7c-1-0.4-2.2,0-2.7,1l-3.3,6.6h-0.3c-6,0-11.7,2.3-15.9,6.6
		c-0.7,0.7-0.7,1.9,0,2.7s1.9,0.7,2.7,0l0,0c3.1-3.1,7.2-5.1,11.6-5.4l-2.2,4.3c-2.9,0.7-5.6,2.2-7.7,4.3c-0.7,0.8-0.6,2,0.2,2.7
		c0.7,0.6,1.8,0.6,2.5,0c0.8-0.7,1.6-1.4,2.5-1.9L3.7,34.3c-0.5,1-0.1,2.3,0.9,2.8c0,0,0,0,0,0c0.3,0.2,0.6,0.2,0.9,0.2
		c0.8,0,1.5-0.4,1.9-1.2l0.9-1.9C8.5,34.2,8.5,34.1,8.5,34z"/>
	<path class="st1" d="M19.5,23.8l-1.8,3.5c1.2,0.2,2.4,0.8,3.2,1.7c0.7,0.7,1.9,0.7,2.7,0s0.7-1.9,0-2.7
		C22.5,25.1,21.1,24.3,19.5,23.8z"/>
	<path class="st1" d="M32.5,14.5c-1.8-1.8-3.9-3.3-6.2-4.4l-1.7,3.4c1.9,0.9,3.7,2.1,5.2,3.6c0.7,0.7,1.9,0.7,2.7,0
		C33.3,16.4,33.3,15.2,32.5,14.5z"/>
	<path class="st1" d="M23,16.9l-1.7,3.4c1.6,0.6,3,1.6,4.2,2.8c0.4,0.4,0.8,0.6,1.4,0.6c0.5,0,1-0.2,1.3-0.6c0.7-0.7,0.7-1.9,0-2.7
		C26.7,18.9,24.9,17.7,23,16.9z"/>
</g>
</svg>
