<?xml version="1.0" encoding="utf-8"?>
<!-- Generator: Adobe Illustrator 22.0.0, SVG Export Plug-In . SVG Version: 6.00 Build 0)  -->
<svg version="1.1" id="Capa_1" xmlns="http://www.w3.org/2000/svg" xmlns:xlink="http://www.w3.org/1999/xlink" x="0px" y="0px"
	 viewBox="0 0 37 71.6" style="enable-background:new 0 0 37 71.6;" xml:space="preserve">
<style type="text/css">
	.st0{fill:#FFFFFF;}
	.st1{fill:#D25C2D;}
	.st2{opacity:0.2;fill:#FFFFFF;enable-background:new    ;}
	.st3{opacity:0.2;}
	.st4{fill:none;stroke:#FFFFFF;stroke-width:0.7;stroke-linecap:round;stroke-miterlimit:10;}
	.st5{clip-path:url(#SVGID_2_);}
	.st6{fill:#A5A5A5;}
</style>
<g>
	<path class="st0" d="M19.1,2c2.4,0,4.8,0.2,7.2,0.6C28.4,2.9,31,4.7,31,7.3v0.1h1.8c0.7,0,1.2,0.6,1.2,1.2v0.6
		c0,0.7-0.5,1.2-1.2,1.2H31v33.5c1.2,0.8,2.4,1.7,3.4,2.8c0,0,0.1,0.1,0.1,0.1c0.7,0.8,0.7,2-0.1,2.7c-0.4,0.3-0.8,0.5-1.3,0.5
		c-0.5,0-1-0.2-1.4-0.6c-0.2-0.2-0.5-0.5-0.8-0.7v11.4c0,1.4-1.1,2.5-2.5,2.5H12.3l-1.9,3.7c0,0.1-0.1,0.1,0,0.2l-1,1.9
		c-0.4,0.7-1.1,1.2-1.9,1.2c-0.3,0-0.6-0.1-0.9-0.2c0,0,0,0,0,0c-1-0.5-1.4-1.8-0.9-2.8l2.1-4.1c-1-0.3-1.7-1.3-1.7-2.4V48.7
		c-0.3,0.2-0.5,0.5-0.8,0.7c-0.4,0.4-0.8,0.6-1.3,0.6c0,0,0,0,0,0c-0.5,0-1-0.2-1.3-0.6c-0.7-0.7-0.7-1.9,0-2.7
		c1.1-1.1,2.2-2,3.4-2.8V10.4H4.2C3.5,10.4,3,9.9,3,9.2V8.6C3,8,3.5,7.4,4.2,7.4H6V7.3c0-2.6,2-4.4,4.7-4.7C13.3,2.2,15.9,2,18.5,2
		C18.7,2,18.9,2,19.1,2 M19.1,0L19.1,0c-0.2,0-0.4,0-0.6,0c-2.7,0-5.4,0.2-8.1,0.6C7.3,1,5,2.8,4.2,5.4h0C2.4,5.4,1,6.9,1,8.6v0.5
		c0,1.7,1.3,3.1,3,3.2v30.4c-1,0.7-2,1.6-2.9,2.5C0.4,46,0,47,0,48.1c0,1,0.4,2,1.1,2.8c0.7,0.7,1.7,1.1,2.7,1.1c0,0,0.1,0,0.1,0
		v8.1c0,1.1,0.4,2.2,1.1,3l-1.3,2.6c-0.5,1-0.6,2.1-0.2,3.1c0.3,1,1.1,1.9,2,2.4c0.6,0.3,1.2,0.4,1.8,0.4c1.6,0,3-0.9,3.7-2.3l1-1.9
		l0.4-0.7l0-0.1l1-2h15c2.5,0,4.5-2,4.5-4.5V52c0.1,0,0.1,0,0.2,0c1,0,1.9-0.4,2.7-1c1.6-1.5,1.7-3.9,0.2-5.5
		c-0.1-0.1-0.1-0.1-0.2-0.2C35,44.4,34,43.6,33,42.9V12.4c1.7-0.1,3-1.5,3-3.2V8.6c0-1.8-1.4-3.2-3.2-3.2h-0.1
		c-0.9-2.6-3.5-4.4-6.1-4.8C24.1,0.2,21.6,0,19.1,0L19.1,0z"/>
</g>
<title>Mesa de trabajo 10 copia 2</title>
<path class="st1" d="M6,7.3v0.2H4.2C3.6,7.4,3,8,3,8.6v0.6c0,0.7,0.5,1.2,1.2,1.2H6v49.7c0,1.4,1.1,2.5,2.5,2.5h20
	c1.4,0,2.5-1.1,2.5-2.5V10.4h1.8c0.7,0,1.2-0.5,1.2-1.2V8.6c0-0.7-0.5-1.2-1.2-1.2H31V7.3c0-2.6-2.6-4.3-4.7-4.7
	C23.7,2.2,21.1,2,18.5,2c-2.6,0-5.2,0.2-7.8,0.5C8,2.9,6,4.7,6,7.3z"/>
<path class="st0" d="M29.7,6.3l-1,5.4c0,0.6-0.4,1-1,1c0,0,0,0-0.1,0H8.9c-0.3,0-0.5-0.2-0.5-0.5l-1-5.9c0.1-0.9,0.8-1.6,1.7-1.8
	c3.1-0.5,6.3-0.8,9.4-0.8c3.2,0.1,6.3,0.4,9.4,0.8C28.9,4.6,29.6,5.4,29.7,6.3z"/>
<path class="st2" d="M7.9,59.9L7.9,59.9c0-0.7,0.6-1.3,1.3-1.3h18.6c0.7,0,1.3,0.6,1.3,1.3l0,0c0,0.7-0.6,1.3-1.3,1.3H9.2
	C8.5,61.2,7.9,60.6,7.9,59.9z"/>
<path class="st2" d="M15.1,17H22c0.6,0,1.1,0.5,1.1,1.1v6.9c0,0.6-0.5,1.1-1.1,1.1h-6.9c-0.6,0-1.1-0.5-1.1-1.1V18
	C14,17.4,14.5,17,15.1,17z"/>
<g class="st3">
	<line class="st4" x1="9.4" y1="30.1" x2="9.4" y2="55.7"/>
	<line class="st4" x1="14" y1="30.1" x2="14" y2="55.7"/>
	<line class="st4" x1="18.5" y1="30.1" x2="18.5" y2="55.7"/>
	<line class="st4" x1="23.1" y1="30.1" x2="23.1" y2="55.7"/>
	<line class="st4" x1="27.7" y1="30.1" x2="27.7" y2="55.7"/>
</g>
<g>
	<defs>
		<path id="SVGID_1_" d="M6,7.3v0.2H4.2C3.6,7.4,3,8,3,8.6v0.6c0,0.7,0.5,1.2,1.2,1.2H6v49.7c0,1.4,1.1,2.5,2.5,2.5h20
			c1.4,0,2.5-1.1,2.5-2.5V10.4h1.8c0.7,0,1.2-0.5,1.2-1.2V8.6c0-0.7-0.5-1.2-1.2-1.2H31V7.3c0-2.6-2.6-4.3-4.7-4.7
			C23.7,2.2,21.1,2,18.5,2c-2.6,0-5.2,0.2-7.8,0.5C8,2.9,6,4.7,6,7.3z"/>
	</defs>
	<clipPath id="SVGID_2_">
		<use xlink:href="#SVGID_1_"  style="overflow:visible;"/>
	</clipPath>
	<g class="st5">
		<path class="st6" d="M7.5,70.8c-0.5,0-1-0.1-1.5-0.4c-1.6-0.8-2.3-2.8-1.5-4.4L9,57.1c-0.2,0-0.4,0.1-0.6,0.1
			c-1.7,0-3.2-1.4-3.2-3.1c0-0.8,0.3-1.6,0.9-2.2c2.2-2.2,4.8-3.7,7.8-4.5l0.8-1.7c-3.3,0.7-6.2,2.3-8.6,4.7
			c-0.6,0.6-1.4,0.9-2.2,0.9c-1.7,0-3.2-1.4-3.2-3.1c0,0,0-0.1,0-0.1c0-0.8,0.3-1.6,0.9-2.2c4.3-4.4,10.2-6.9,16.4-7L21,33
			c0.6-1.1,1.7-1.9,3-1.9c0.5,0,1,0.1,1.5,0.4c1.5,0.8,2.2,2.6,1.6,4.2v0.1L11.6,66.8L11.5,67l-1,1.9C9.9,70.1,8.8,70.8,7.5,70.8z"
			/>
		<path class="st0" d="M24,32.4c0.3,0,0.7,0.1,0.9,0.2c1,0.5,1.4,1.6,1,2.6L10.4,66.3c0,0.1-0.1,0.2-0.1,0.2l-1,1.9
			c-0.4,0.7-1.1,1.2-1.9,1.2c-0.3,0-0.6-0.1-0.9-0.2c-1-0.5-1.4-1.8-0.9-2.8c0,0,0,0,0,0l6.6-13.1c-0.9,0.5-1.8,1.2-2.5,1.9
			C8.9,56,7.7,56,7,55.2c-0.7-0.7-0.7-1.9,0-2.6c2.1-2.1,4.8-3.6,7.7-4.3l2.2-4.3c-4.4,0.4-8.5,2.3-11.7,5.4
			c-0.4,0.4-0.8,0.6-1.3,0.5c-1,0-1.9-0.9-1.9-1.9c0-0.5,0.2-1,0.6-1.3c4.2-4.2,10-6.6,15.9-6.6h0.3l3.3-6.6
			C22.5,32.8,23.2,32.4,24,32.4 M24,29.9c-1.7,0-3.3,1-4.1,2.6l-2.6,5.2c-6.2,0.3-12.1,2.9-16.5,7.3c-1.7,1.7-1.7,4.5,0,6.2
			c0.8,0.8,1.9,1.3,3.1,1.3h0.3C4,52.9,4,53.5,4,54c0,1.9,1.3,3.6,3.1,4.2l-3.6,7.2c-1.2,2.3-0.3,5,2,6.2c2.3,1.2,5,0.3,6.2-2
			c0,0,0-0.1,0.1-0.1l0.9-1.9v-0.1v-0.1c0,0,0-0.1,0.1-0.1l15.5-31l0.1-0.1v-0.1c0.8-2.2-0.1-4.7-2.2-5.7C25.4,30,24.7,29.9,24,29.9
			z"/>
		<path class="st6" d="M24.3,63.1c-0.8,0-1.6-0.3-2.2-0.9c-0.7-0.7-1.6-1.2-2.6-1.4l-1.6-0.3l2.9-5.9l1,0.3c1.8,0.5,3.4,1.5,4.7,2.8
			c1.2,1.2,1.2,3.2,0,4.5C25.9,62.7,25.1,63,24.3,63.1L24.3,63.1z"/>
		<path class="st0" d="M21.4,56.1c1.6,0.5,3,1.3,4.2,2.5c0.7,0.8,0.7,2-0.1,2.7c-0.7,0.7-1.9,0.7-2.6,0c-0.9-0.9-2-1.5-3.2-1.7
			L21.4,56.1 M20.1,53.1l-0.9,1.9l-1.8,3.5l-1.5,3l3.3,0.6c0.7,0.1,1.4,0.5,1.9,1c1.7,1.8,4.5,1.8,6.2,0.2c1.8-1.7,1.8-4.5,0.2-6.2
			c-0.1-0.1-0.1-0.1-0.2-0.2c-1.5-1.5-3.3-2.5-5.2-3.1L20.1,53.1L20.1,53.1z"/>
		<path class="st6" d="M33.1,51.2c-0.8,0-1.6-0.3-2.2-0.9c-1.4-1.4-3.1-2.6-4.9-3.4l-1.1-0.5l2.8-5.6l1.1,0.5
			c2.4,1.2,4.6,2.7,6.5,4.6c1.2,1.2,1.2,3.2,0,4.5C34.7,50.9,34,51.2,33.1,51.2z"/>
		<path class="st0" d="M28.3,42.3c2.3,1.1,4.4,2.6,6.2,4.4c0.7,0.8,0.7,2-0.1,2.7c-0.7,0.7-1.9,0.7-2.6,0c-1.5-1.5-3.3-2.7-5.2-3.7
			L28.3,42.3 M27.2,39L26,41.2l-1.7,3.4l-1.1,2.3l2.3,1.1c1.7,0.8,3.2,1.9,4.5,3.2c0.8,0.8,1.9,1.3,3.1,1.3c2.4,0,4.4-2,4.4-4.4
			c0-1.2-0.5-2.3-1.3-3.1c-2-2-4.3-3.6-6.9-4.9L27.2,39z"/>
		<path class="st6" d="M28.7,57.1c-0.8,0-1.6-0.3-2.2-0.9c-1.1-1.1-2.4-1.9-3.8-2.5l-1.3-0.5l2.8-5.7l1.1,0.5c2.1,0.9,4,2.1,5.6,3.7
			c1.2,1.2,1.2,3.2,0,4.5C30.3,56.8,29.5,57.1,28.7,57.1z"/>
		<path class="st0" d="M24.9,49.2c1.9,0.8,3.7,2,5.2,3.5c0.7,0.7,0.7,1.9,0,2.7c-0.7,0.7-1.9,0.7-2.7,0c-1.2-1.2-2.6-2.1-4.2-2.8
			L24.9,49.2 M23.7,46l-1,2.1L21,51.5l-1.2,2.4l2.5,1c1.3,0.5,2.4,1.3,3.3,2.2c1.7,1.7,4.5,1.7,6.2,0c1.7-1.7,1.7-4.5,0-6.2l0,0
			c-1.7-1.7-3.8-3.1-6-4L23.7,46z"/>
		<polygon class="st0" points="27.2,39.1 26.7,38.8 15.6,61.3 16.1,61.4 17.1,60.7 		"/>
	</g>
</g>
<path class="st6" d="M10.4,66.3L26,35.2c0.4-1,0-2.1-1-2.6c-1-0.5-2.3-0.1-2.8,0.9l-3.3,6.6h-0.3c-6,0-11.8,2.3-16,6.6
	c-0.7,0.7-0.7,1.9,0,2.7c0.4,0.4,0.8,0.6,1.3,0.6c0.5,0,1-0.2,1.3-0.5c3.1-3.1,7.3-5,11.7-5.4l-2.2,4.3C11.8,49,9.2,50.5,7,52.6
	c-0.7,0.7-0.7,1.9,0,2.7c0.7,0.7,1.9,0.7,2.7,0l0,0c0.8-0.7,1.6-1.4,2.5-1.9L5.7,66.5c-0.5,1-0.1,2.3,0.9,2.8c0,0,0,0,0,0
	c0.3,0.1,0.6,0.2,0.9,0.2c0.8,0,1.5-0.5,1.9-1.2l1-1.9C10.4,66.4,10.4,66.3,10.4,66.3z"/>
<path class="st6" d="M21.4,56.1l-1.7,3.5c1.2,0.2,2.4,0.8,3.2,1.7c0.7,0.8,1.9,0.8,2.7,0.1c0.8-0.7,0.8-1.9,0.1-2.7
	c0,0-0.1-0.1-0.1-0.1C24.4,57.4,23,56.5,21.4,56.1z"/>
<path class="st6" d="M34.5,46.7c-1.8-1.8-3.9-3.3-6.2-4.4l-1.7,3.4c1.9,0.9,3.7,2.2,5.2,3.7c0.7,0.8,1.9,0.8,2.7,0.1
	c0.8-0.7,0.8-1.9,0.1-2.7C34.5,46.8,34.5,46.7,34.5,46.7z"/>
<path class="st6" d="M24.9,49.2l-1.7,3.4c1.6,0.6,3,1.6,4.2,2.8c0.8,0.7,2,0.7,2.7-0.1c0.7-0.7,0.7-1.9,0-2.6
	C28.5,51.2,26.8,50,24.9,49.2z"/>
</svg>
