<?xml version="1.0" encoding="utf-8"?>
<!-- Generator: Adobe Illustrator 22.0.0, SVG Export Plug-In . SVG Version: 6.00 Build 0)  -->
<svg version="1.1" id="Capa_1" xmlns="http://www.w3.org/2000/svg" xmlns:xlink="http://www.w3.org/1999/xlink" x="0px" y="0px"
	 viewBox="0 0 37 71.6" style="enable-background:new 0 0 37 71.6;" xml:space="preserve">
<style type="text/css">
	.st0{fill:#D25C2D;}
	.st1{fill:#FFFFFF;}
	.st2{opacity:0.2;fill:#FFFFFF;enable-background:new    ;}
	.st3{opacity:0.2;}
	.st4{fill:none;stroke:#FFFFFF;stroke-width:0.7;stroke-linecap:round;stroke-miterlimit:10;}
</style>
<title>Mesa de trabajo 10 copia</title>
<g>
	<g>
		<path class="st0" d="M8.5,63.6C6.6,63.6,5,62,5,60.1V11.4H4.2C3,11.4,2,10.4,2,9.2V8.6c0-1.2,1-2.2,2.2-2.2h0.8
			c0.4-2.6,2.5-4.5,5.5-4.8C13.2,1.2,15.9,1,18.5,1l0.6,0c2.5,0,4.9,0.2,7.4,0.6c2.5,0.4,5,2.3,5.5,4.8h0.9c1.2,0,2.2,1,2.2,2.2v0.5
			c0,1.2-1,2.2-2.2,2.2H32v48.7c0,1.9-1.6,3.5-3.5,3.5H8.5z"/>
		<path class="st1" d="M19.1,2c2.4,0,4.8,0.2,7.2,0.6C28.4,2.9,31,4.7,31,7.3v0.1h1.8c0.7,0,1.2,0.6,1.2,1.2v0.5
			c0,0.7-0.5,1.2-1.2,1.2H31v49.7c0,1.4-1.1,2.5-2.5,2.5h-20c-1.4,0-2.5-1.1-2.5-2.5V10.4H4.2C3.6,10.4,3,9.9,3,9.2V8.6
			C3,8,3.6,7.4,4.2,7.4H6V7.3c0-2.6,2-4.4,4.7-4.7C13.3,2.2,15.9,2,18.5,2C18.7,2,18.9,2,19.1,2 M19.1,0c-0.2,0-0.4,0-0.6,0
			c-2.7,0-5.4,0.2-8.1,0.6C7.3,1,5,2.8,4.3,5.4h0C2.5,5.4,1,6.9,1,8.6v0.5c0,1.7,1.3,3.1,3,3.2v47.7c0,2.5,2,4.5,4.5,4.5h20
			c2.5,0,4.5-2,4.5-4.5V12.4c1.7-0.1,3-1.5,3-3.2V8.6c0-1.8-1.4-3.2-3.2-3.2h-0.1c-0.9-2.6-3.5-4.4-6.1-4.8C24.1,0.2,21.6,0,19.1,0
			L19.1,0z"/>
	</g>
	<path class="st1" d="M29.7,6.3l-1,5.4c0,0.6-0.4,1-1,1c0,0,0,0-0.1,0H8.9c-0.3,0-0.5-0.2-0.5-0.5l-1-5.9c0.1-0.9,0.8-1.6,1.7-1.8
		c3.1-0.5,6.3-0.8,9.4-0.8c3.2,0.1,6.3,0.4,9.4,0.8C28.9,4.6,29.6,5.4,29.7,6.3z"/>
	<path class="st2" d="M7.9,59.9L7.9,59.9c0-0.7,0.6-1.3,1.3-1.3h18.6c0.7,0,1.3,0.6,1.3,1.3l0,0c0,0.7-0.6,1.3-1.3,1.3H9.2
		C8.5,61.2,7.9,60.6,7.9,59.9z"/>
	<path class="st2" d="M15.1,17H22c0.6,0,1.1,0.5,1.1,1.1v6.9c0,0.6-0.5,1.1-1.1,1.1h-6.9c-0.6,0-1.1-0.5-1.1-1.1V18
		C14,17.4,14.5,17,15.1,17z"/>
	<g class="st3">
		<line class="st4" x1="9.4" y1="30.1" x2="9.4" y2="55.7"/>
		<line class="st4" x1="14" y1="30.1" x2="14" y2="55.7"/>
		<line class="st4" x1="18.5" y1="30.1" x2="18.5" y2="55.7"/>
		<line class="st4" x1="23.1" y1="30.1" x2="23.1" y2="55.7"/>
		<line class="st4" x1="27.6" y1="30.1" x2="27.6" y2="55.7"/>
	</g>
</g>
</svg>
