<?xml version="1.0" encoding="utf-8"?>
<!-- Generator: Adobe Illustrator 22.0.0, SVG Export Plug-In . SVG Version: 6.00 Build 0)  -->
<svg version="1.1" id="Capa_1" xmlns="http://www.w3.org/2000/svg" xmlns:xlink="http://www.w3.org/1999/xlink" x="0px" y="0px"
	 viewBox="0 0 71.6 41.2" style="enable-background:new 0 0 71.6 41.2;" xml:space="preserve">
<style type="text/css">
	.st0{fill:#D25C2D;}
	.st1{fill:#FFFFFF;}
	.st2{fill:#A5A5A5;}
</style>
<g>
	<path class="st0" d="M59.5,36.4c-0.6,0-1.1-0.1-1.7-0.2c-1.9-0.5-3.5-1.9-4.2-3.7H29c-0.9,2.3-3.2,3.9-5.7,3.9
		c-0.6,0-1.1-0.1-1.7-0.2c-1.9-0.6-3.4-2-4.1-3.8h-6.4c-1.2,0-2.2-0.9-2.4-2.2l0-0.1v-3c0-1,0.6-1.8,1.4-2.2V5.3
		C10.1,2.9,12,1,14.4,1h40.4c9,0,14.1,13.7,14.1,17.4v6.5c1,0.3,1.7,1.2,1.7,2.3v2.9c0,1.3-1.1,2.4-2.4,2.4h-3
		C64.3,34.8,62.1,36.4,59.5,36.4z M23.2,28.6c-0.8,0.1-1.4,0.8-1.3,1.6c0.1,0.7,0.7,1.3,1.4,1.4l0.1,0c0.8,0,1.5-0.6,1.5-1.4
		c0.1-0.9-0.5-1.6-1.4-1.6L23.2,28.6z M59.5,28.6c-0.8,0-1.5,0.7-1.5,1.5c0,0.7,0.6,1.5,1.5,1.5c0.8,0,1.5-0.7,1.5-1.5
		S60.3,28.6,59.5,28.6z M51.9,27V8.6h-0.5V27H51.9z M47.9,27V8.6h-0.5V27H47.9z M42.6,14.4V8.7h-4.7v5.7H42.6z M33.2,14.4V8.7h-4.7
		v5.7H33.2z M62.8,14.3c-0.4-1.8-1.8-5.1-4.3-5.7h-2v5.7H62.8z M23.8,14.3V8.6h-4.2c-0.9,0-1,0-1.2,2.1l0,0.3l-0.2,3.3H23.8z"/>
	<path class="st1" d="M54.8,2c8.4,0,13.1,13.3,13.1,16.4v7.4h0.3c0.8,0,1.4,0.6,1.4,1.4v2.9c0,0.8-0.6,1.4-1.4,1.4h-3.7
		c-0.6,2.3-2.7,3.9-5,3.9c-0.5,0-0.9-0.1-1.4-0.2c-1.8-0.5-3.3-1.9-3.7-3.7H28.3c-0.6,2.3-2.7,3.9-5,3.9c-0.5,0-0.9-0.1-1.4-0.2
		c-1.8-0.6-3.2-2-3.7-3.8h-7.1c-0.7,0-1.3-0.6-1.4-1.3v-2.9c0-0.8,0.6-1.4,1.4-1.4V5.3c0-1.8,1.5-3.3,3.3-3.3h2.3
		C16.7,2,51.9,2,54.8,2 M55.6,15.3H64c0-1.4-1.6-6.9-5.3-7.7c-0.7,0-3.1,0-3.1,0V15.3 M50.4,28h2.5V7.6h-2.5V28 M46.4,28h2.5V7.6
		h-2.5V28 M17.1,15.3h7.7V7.6h-5.2c-2,0-2,1.2-2.2,3.3L17.1,15.3 M36.9,15.4h6.7V7.7h-6.7V15.4 M27.5,15.4h6.7V7.7h-6.7V15.4
		 M59.5,32.6c1.4,0,2.5-1.1,2.5-2.5c0-1.4-1.1-2.5-2.5-2.5c-1.4,0-2.5,1.1-2.5,2.5C57,31.4,58.1,32.6,59.5,32.6 M23.4,32.6
		c1.3,0,2.4-1,2.5-2.3c0.1-1.4-0.9-2.6-2.3-2.7c-0.1,0-0.3,0-0.4,0c-1.4,0.1-2.4,1.3-2.3,2.7c0.1,1.2,1.1,2.2,2.3,2.3
		C23.3,32.6,23.3,32.6,23.4,32.6 M54.8,0H16.7h-2.3c-2.9,0-5.3,2.4-5.3,5.3v19.1C8.2,25,7.7,26,7.7,27.2v2.9v0.1l0,0.1
		c0.2,1.7,1.7,3,3.4,3h5.8c0.9,1.7,2.5,3.1,4.4,3.7l0,0l0,0c0.6,0.2,1.3,0.3,2,0.3c2.7,0,5.2-1.5,6.4-3.9H53
		c0.9,1.7,2.6,3.1,4.5,3.6c0.6,0.2,1.3,0.3,1.9,0.3c2.7,0,5.2-1.5,6.4-3.9h2.3c1.9,0,3.4-1.5,3.4-3.4v-2.9c0-1.3-0.7-2.4-1.7-3v-5.8
		c0-2.1-1.4-6.5-3.7-10.4C63.1,2.8,59.1,0,54.8,0L54.8,0z M57.6,9.6h0.9c1.4,0.4,2.5,2.2,3,3.7h-3.9V9.6L57.6,9.6z M19.6,9.6
		C19.6,9.6,19.6,9.6,19.6,9.6l3.2,0v3.7h-3.6l0.2-2.2l0-0.3C19.5,10.4,19.5,9.9,19.6,9.6L19.6,9.6z M38.9,9.7h2.7v3.7h-2.7V9.7
		L38.9,9.7z M29.5,9.7h2.7v3.7h-2.7V9.7L29.5,9.7z M59.5,30.6c-0.3,0-0.5-0.3-0.5-0.5c0-0.3,0.2-0.5,0.5-0.5s0.5,0.2,0.5,0.5
		S59.8,30.6,59.5,30.6L59.5,30.6z M23.3,29.6h0.2c0.3,0,0.4,0.3,0.4,0.6c0,0.3-0.3,0.4-0.5,0.4l0,0c-0.2,0-0.4-0.2-0.4-0.5
		C22.9,29.9,23,29.6,23.3,29.6L23.3,29.6z"/>
</g>
<g>
	<path class="st2" d="M7.5,40.2c-0.5,0-0.9-0.1-1.3-0.3l-0.1,0l-0.1,0c-0.7-0.4-1.2-1-1.5-1.8c-0.3-0.8-0.2-1.6,0.2-2.4l4.7-9.5
		c-0.3,0.1-0.7,0.2-1,0.2c-0.7,0-1.4-0.3-1.9-0.7c-0.6-0.5-0.9-1.2-1-2c-0.1-0.8,0.2-1.5,0.7-2.1c2.2-2.2,4.9-3.7,7.8-4.5l1.1-2.2
		c-3.5,0.7-6.7,2.3-9.2,4.9c-0.6,0.6-1.3,0.9-2.1,0.9c-0.8,0-1.5-0.3-2.1-0.9c-1.1-1.1-1.1-3,0-4.1C6.2,11.3,12,8.8,18.2,8.8l3-6
		C21.7,1.7,22.8,1,24,1c0.4,0,0.8,0.1,1.2,0.2c1.6,0.6,2.3,2.4,1.7,4l-15.5,31c0,0.1-0.1,0.2-0.1,0.3l-1,2
		C9.8,39.5,8.7,40.2,7.5,40.2L7.5,40.2z"/>
	<path class="st2" d="M24.2,32.4c-0.8,0-1.5-0.3-2.1-0.9c-0.7-0.7-1.7-1.2-2.7-1.4l-1.3-0.2l2.7-5.4l0.8,0.2
		c1.7,0.5,3.3,1.5,4.6,2.7c0.6,0.5,0.9,1.3,0.9,2.1c0,0.8-0.3,1.5-0.9,2.1C25.7,32.1,25,32.4,24.2,32.4z"/>
	<path class="st2" d="M33.1,20.6c-0.8,0-1.5-0.3-2.1-0.9c-1.4-1.4-3.1-2.6-4.9-3.5l-0.9-0.4l2.6-5.2l0.9,0.4
		c2.4,1.1,4.6,2.7,6.5,4.6c1.1,1.1,1.1,3,0,4.1C34.6,20.3,33.9,20.6,33.1,20.6z"/>
	<path class="st2" d="M28.7,26.5c-0.8,0-1.5-0.3-2.1-0.9c-1.1-1.1-2.4-1.9-3.8-2.5l-1-0.4l2.6-5.2l0.9,0.4c2.1,0.9,3.9,2.1,5.5,3.7
		c1.1,1.1,1.1,3,0,4.1C30.2,26.2,29.5,26.5,28.7,26.5L28.7,26.5z"/>
</g>
<path class="st1" d="M35.9,14.9c-2-2-4.2-3.6-6.7-4.8l-1.8-0.8l-1.1-0.5l1.5-3.1l0-0.1l0-0.1c0.8-2.1-0.2-4.5-2.3-5.3
	C25.1,0.1,24.6,0,24,0c-1.6,0-3,0.9-3.7,2.3l-2.7,5.5c-6.2,0.2-12,2.7-16.5,7.1C0.4,15.7,0,16.6,0,17.7s0.4,2,1.1,2.8
	s1.7,1.1,2.8,1.1c0.4,0,0.9-0.1,1.3-0.2c-0.5,0.7-0.7,1.6-0.6,2.4c0.1,1,0.6,2,1.3,2.7c0.5,0.5,1.2,0.8,1.9,0.9l-3.9,7.9
	c-1,2-0.2,4.5,1.8,5.5c0.5,0.3,1.2,0.4,1.8,0.4c1.6,0,3-0.9,3.7-2.3l0.9-1.9l0-0.1l0-0.1c0.1-0.1,0.1-0.2,0.1-0.3l3.1-6.2l2,0.4l0,0
	l1.9,0.4c0.8,0.2,1.6,0.5,2.2,1.1c0.7,0.7,1.7,1.1,2.8,1.1s2-0.4,2.8-1.1c1.4-1.4,1.5-3.5,0.4-5c0.4,0.1,0.8,0.2,1.3,0.2
	c1.1,0,2.1-0.4,2.8-1.2c1.3-1.3,1.5-3.5,0.4-5c0.4,0.1,0.8,0.2,1.2,0.2c1,0,2-0.4,2.8-1.1C37.4,18.9,37.4,16.4,35.9,14.9z
	 M10.4,35.9c0,0.1,0,0.2-0.1,0.3l-1,1.9c-0.4,0.7-1.1,1.2-1.9,1.2c0,0,0,0,0,0c-0.3,0-0.6-0.1-0.9-0.2c0,0,0,0,0,0
	c-1-0.5-1.4-1.8-0.9-2.8L12.2,23c-0.9,0.5-1.8,1.2-2.5,1.9c-0.4,0.3-0.8,0.5-1.2,0.5c-0.4,0-0.9-0.2-1.2-0.5
	c-0.8-0.7-0.9-1.9-0.2-2.7c2.1-2.1,4.8-3.6,7.7-4.3l2.2-4.3C12.5,14,8.4,15.9,5.2,19c-0.4,0.4-0.9,0.6-1.3,0.6c-0.5,0-1-0.2-1.3-0.6
	c-0.7-0.7-0.7-1.9,0-2.7c4.2-4.2,9.9-6.6,15.8-6.6c0,0,0.1,0,0.1,0h0.3l3.3-6.6C22.5,2.4,23.2,2,24,2c0.3,0,0.5,0,0.8,0.2
	c1.1,0.4,1.6,1.6,1.2,2.7L10.4,35.9z M25.6,30.9c-0.4,0.4-0.9,0.6-1.3,0.6s-1-0.2-1.3-0.6c-0.9-0.9-2-1.5-3.2-1.7l1.8-3.5
	c1.6,0.5,3,1.3,4.2,2.5C26.3,28.9,26.3,30.1,25.6,30.9z M30.1,25c-0.3,0.4-0.8,0.6-1.3,0.6c0,0,0,0,0,0c0,0,0,0,0,0
	c-0.5,0-1-0.2-1.3-0.6c-1.2-1.2-2.6-2.1-4.2-2.8l1.7-3.4c1.9,0.8,3.7,2,5.2,3.5C30.8,23,30.8,24.2,30.1,25z M34.4,19
	c-0.4,0.4-0.9,0.6-1.3,0.6s-1-0.2-1.3-0.6c-1.5-1.5-3.3-2.7-5.2-3.7l1.7-3.4c2.3,1.1,4.4,2.6,6.2,4.4C35.2,17.1,35.2,18.3,34.4,19z"
	/>
</svg>
