<?xml version="1.0" encoding="utf-8"?>
<!-- Generator: Adobe Illustrator 22.0.0, SVG Export Plug-In . SVG Version: 6.00 Build 0)  -->
<svg version="1.1" id="Capa_1" xmlns="http://www.w3.org/2000/svg" xmlns:xlink="http://www.w3.org/1999/xlink" x="0px" y="0px"
	 viewBox="0 0 82 50" style="enable-background:new 0 0 82 50;" xml:space="preserve">
<style type="text/css">
	.st0{fill:#CCCCCC;}
	.st1{fill: hsl(200, 77%, 92%);}
	.st2{fill: hsl(200, 77%, 96%);}
</style>
<polygon class="st0" points="-16.5,14.6 -16.5,-5.6 -23.8,-5.6 -23.8,-8.3 -23.6,-8.3 -23.6,-8.7 -24.4,-8.7 -24.4,-10.6 
	-24.1,-10.6 -24.1,-11 -25.1,-11 -25.1,-12.7 -26.8,-12.7 -26.8,-15.5 -27.2,-15.5 -27.2,-12.7 -28.9,-12.7 -28.9,-11 -29.8,-11 
	-29.8,-10.6 -29.6,-10.6 -29.6,-8.7 -30.4,-8.7 -30.4,-8.3 -30.2,-8.3 -30.2,-1.5 -33.9,-0.2 -33.9,-8.1 -34.6,-11 -35.4,-11 
	-35.4,-15.2 -35.8,-15.2 -35.8,-11 -40.5,-11 -41.2,-8.1 -41.2,-9.7 -42.8,-9.7 -42.8,-12.5 -43.2,-12.5 -43.2,-9.7 -44.9,-9.7 
	-44.9,-7.9 -45.9,-7.9 -45.9,-7.6 -45.7,-7.6 -45.7,-5.7 -46.4,-5.7 -46.4,-5.3 -46.3,-5.3 -46.3,-3.6 -48.1,-3.6 -48.1,-13.6 
	-51.2,-13.6 -51.2,-12.7 -53.5,-12.7 -53.5,-5.6 -55.6,-5.6 -59.2,-5.6 -63.1,-5.6 -63.1,-8.3 -63,-8.3 -63,-8.7 -63.8,-8.7 
	-63.8,-10.6 -63.5,-10.6 -63.5,-11 -64.5,-11 -64.5,-12.7 -66.2,-12.7 -66.2,-15.5 -66.6,-15.5 -66.6,-12.7 -68.2,-12.7 -68.2,-11 
	-69.2,-11 -69.2,-10.6 -69,-10.6 -69,-8.7 -69.7,-8.7 -69.7,-8.3 -69.6,-8.3 -69.6,-1.5 -73.3,-0.2 -73.3,-8.1 -74,-11 -74.8,-11 
	-74.8,-15.2 -75.1,-15.2 -75.1,-11 -79.9,-11 -80.5,-8.1 -80.5,-9.7 -82.2,-9.7 -82.2,-12.5 -82.6,-12.5 -82.6,-9.7 -84.3,-9.7 
	-84.3,-7.9 -85.3,-7.9 -85.3,-7.6 -85.1,-7.6 -85.1,-5.7 -85.8,-5.7 -85.8,-5.3 -85.7,-5.3 -85.7,-3.6 -87.5,-3.6 -87.5,-13.6 
	-90.6,-13.6 -90.6,-12.7 -92.9,-12.7 -92.9,-5.6 -98.5,-5.6 -98.5,14.6 -80.5,14.6 -80.5,14.6 -74.7,14.6 -73.8,14.6 -73.4,14.6 
	-73,14.6 -73,14.6 -72.6,14.6 -72.2,14.6 -71.9,14.6 -71.4,14.6 -71.1,14.6 -70.7,14.6 -70.3,14.6 -69.6,14.6 -69.3,14.6 
	-63.3,14.6 -63.3,14.6 -59.2,14.6 -55.5,14.6 -41.2,14.6 -41.2,14.6 -35.3,14.6 -34.4,14.6 -34.1,14.6 -33.7,14.6 -33.6,14.6 
	-33.3,14.6 -32.8,14.6 -32.5,14.6 -32.1,14.6 -31.7,14.6 -31.3,14.6 -30.9,14.6 -30.2,14.6 -29.9,14.6 -23.9,14.6 -23.9,14.6 "/>
<g>
	<rect y="35" class="st1" width="82" height="15"/>
	<g>
		<g>
			<rect x="4.6" y="45" class="st2" width="15.5" height="1"/>
		</g>
		<g>
			<rect x="32" y="45" class="st2" width="15.5" height="1"/>
		</g>
		<g>
			<rect x="59.4" y="45" class="st2" width="15.5" height="1"/>
		</g>
	</g>
</g>
<g>
	<path class="st1" d="M49,15.3c0-0.7-0.5-0.9-1-1.3c1.1-0.8,0.8-2.7-0.2-2.8c0.8-1.3,0.3-3-1.1-3.6c-0.2,0.4-0.5,0.8-0.9,1.1
		c-0.4,0.3-0.7-0.3-0.4-0.6c0.5-0.4,0.8-1,1-1.6c-0.2-0.6-0.8-0.8-1.7-1C45,5,45.1,4.2,44.9,3.7c-0.5-0.9-1.3-0.3-1.6-0.6
		c-0.4-0.3-0.1-1.1-0.5-1.8c-0.9-1.6-3.6,0.1-3.5,1.8c-0.8-0.1-1.3-0.4-1.9,0.4c-0.4,0.5-0.1,1.1-0.1,1.7c0,0.4-1.2,0.4-1.4,0.9
		c-0.2,0.5,0,1.3-0.1,1.8c-1.5,0.2-1.4,1.8-0.7,2.7c-0.5,0.1-0.7,0.3-0.8,0.7c0,0.3,0.1,0.8,0.3,1.1c-0.1-0.2-1,0.6-1,0.7
		c-0.3,0.4-0.5,0.9-0.5,1.4c0,0.8,0.9,1.4,1.4,1.5c-0.5,0.2-1,1.3-0.7,1.8c0.3,0.5,1,0.5,1.5,0.5c-0.3,0.5-0.4,1.9,0,2.4
		c0.6,0.8,2.2,0.1,2.4-0.3c0,0.8-0.3,1.8,0.7,2.1c0.9,0.2,1.5-0.6,1.9-1.2c0.1,0.6,0.5,1.4,1.1,1.5c1.1,0.2,1.7-0.6,1.7-1.4
		c0.9,0.8,3-0.3,2.5-1.9c0.4,0.2,1.6,0,1.9-0.5c0.4-0.4,0.8-1.3-0.1-2.5C48.4,16.9,49,16.1,49,15.3z"/>
	<path class="st1" d="M45.4,17.1c0,0-0.1,0-0.1,0l0,0c0,0,0,0-0.1,0.1c0,0-0.1,0.1-0.1,0.1c0,0-0.1,0.1-0.1,0.1
		c-0.2,0.2-0.5,0.4-0.9,0.6c-0.1,0-0.2,0.1-0.2,0.1c-0.1,0-0.2,0.1-0.2,0.1c-0.2,0.1-0.3,0.1-0.4,0.1c-0.1,0-0.1,0-0.2,0
		c0,0,0,0,0,0c0.1-0.5,0.2-0.9,0.4-1.3c0.1-0.5,0.3-0.9,0.5-1.3c0.1-0.2,0.2-0.4,0.2-0.5c0.1-0.2,0.1-0.3,0.2-0.4
		c0.1-0.1,0.1-0.3,0.2-0.4c0.1-0.1,0.1-0.2,0.1-0.3c0.1-0.1,0.1-0.2,0.1-0.2l0,0c0.1-0.2,0-0.4-0.1-0.5c-0.2-0.1-0.4-0.1-0.5,0.1
		c0,0,0,0.1-0.1,0.2c0,0.1-0.1,0.2-0.2,0.3c-0.1,0.1-0.1,0.2-0.2,0.4c-0.1,0.1-0.2,0.3-0.2,0.5c-0.1,0.2-0.2,0.4-0.3,0.5
		c-0.1,0.1-0.1,0.3-0.2,0.4c0-0.1,0-0.1-0.1-0.2c0-0.1-0.1-0.3-0.1-0.4c0-0.2-0.1-0.3-0.1-0.5c0-0.1,0-0.2,0-0.3c0-0.1,0-0.2,0-0.3
		c0-0.2,0-0.4,0-0.5c0-0.2,0-0.4,0-0.5c0-0.2,0.1-0.4,0.1-0.5c0-0.2,0.1-0.3,0.1-0.5c0,0,0,0,0,0c0,0,0,0,0.1,0c0,0,0.1,0,0.1,0
		c0,0,0.1,0,0.1,0c0,0,0.1,0,0.1,0c0.1,0,0.2,0,0.2-0.1c0.1,0,0.2-0.1,0.2-0.1c0.1,0,0.2-0.1,0.2-0.1c0.1-0.1,0.2-0.1,0.2-0.2
		c0.1-0.1,0.3-0.2,0.4-0.3c0.1-0.1,0.2-0.2,0.3-0.3c0.2-0.2,0.3-0.3,0.3-0.3l0,0c0,0,0-0.1,0-0.1c0,0-0.1,0-0.1,0
		c0,0-0.1,0.1-0.3,0.3c-0.1,0.1-0.2,0.2-0.4,0.3c-0.1,0.1-0.3,0.2-0.4,0.3c-0.1,0-0.2,0.1-0.2,0.1c-0.1,0-0.2,0.1-0.2,0.1
		c-0.1,0-0.1,0.1-0.2,0.1c-0.1,0-0.1,0-0.2,0c0,0-0.1,0-0.1,0c0,0-0.1,0-0.1,0c0,0-0.1,0-0.1,0c0,0,0,0,0,0c0-0.1,0.1-0.2,0.1-0.4
		c0.1-0.1,0.1-0.2,0.1-0.3c0.1-0.1,0.1-0.2,0.1-0.2l0,0c0-0.1,0-0.2-0.1-0.2c-0.1,0-0.2,0-0.2,0.1c0,0,0,0.1-0.1,0.2
		c0,0.1-0.1,0.2-0.2,0.3c0,0.1-0.1,0.2-0.1,0.4c-0.1,0.1-0.1,0.3-0.2,0.4c0,0.2-0.1,0.3-0.1,0.5c0,0,0,0,0,0.1c0,0,0-0.1-0.1-0.1
		c0,0-0.1-0.1-0.1-0.2c0-0.1-0.1-0.1-0.1-0.2c-0.1-0.1-0.1-0.3-0.2-0.4c-0.1-0.2-0.1-0.3-0.2-0.5c0-0.1,0-0.1-0.1-0.2
		c0-0.1,0-0.1,0-0.2c0-0.1,0-0.1,0-0.2c0,0,0-0.1,0-0.1c0-0.1,0-0.1,0-0.1l0,0c0,0,0,0,0,0c0,0,0,0,0,0c0,0,0,0,0,0.1
		c0,0,0,0.1,0,0.1c0,0.1,0,0.1,0,0.2c0,0.1,0,0.1,0,0.2c0,0.1,0,0.1,0.1,0.2c0,0.2,0.1,0.3,0.1,0.5c0.1,0.2,0.1,0.3,0.2,0.5
		c0,0.1,0.1,0.1,0.1,0.2c0,0.1,0.1,0.1,0.1,0.2c0.1,0.1,0.1,0.2,0.2,0.3c0,0,0,0,0,0c0,0.1,0,0.1,0,0.2c0,0.2-0.1,0.4-0.1,0.6
		c0,0.2,0,0.4,0,0.6c0,0.1,0,0.2,0,0.3c0,0.1,0,0.2,0,0.3c0,0.2,0,0.4,0.1,0.5c0,0.2,0.1,0.3,0.1,0.5c0,0.1,0.1,0.3,0.1,0.4
		c0,0.1,0.1,0.2,0.1,0.3c0,0,0,0.1,0,0.1c0,0.1-0.1,0.2-0.1,0.3c-0.2,0.5-0.4,1-0.6,1.6c-0.1,0.3-0.2,0.6-0.2,0.9
		c-0.1-0.2-0.2-0.4-0.4-0.6c-0.3-0.5-0.6-1-0.9-1.6c0-0.1-0.1-0.1-0.1-0.2c0-0.1-0.1-0.2-0.1-0.2c-0.1-0.2-0.1-0.3-0.2-0.5
		c-0.1-0.3-0.2-0.6-0.4-1c0-0.1,0-0.1-0.1-0.2c0-0.1,0-0.2,0-0.3c0-0.1,0-0.2,0-0.3c0-0.1,0-0.2,0.1-0.3c0.1-0.2,0.1-0.4,0.2-0.7
		c0-0.1,0.1-0.2,0.1-0.3c0-0.1,0.1-0.2,0.1-0.3c0-0.1,0.1-0.2,0.1-0.3c0-0.1,0.1-0.2,0.1-0.3c0.1-0.3,0.2-0.5,0.2-0.5l0,0
		c0,0,0-0.1,0-0.1c0,0-0.1,0-0.1,0c0,0-0.1,0.2-0.3,0.5c0,0.1-0.1,0.2-0.1,0.3c0,0.1-0.1,0.2-0.1,0.3c0,0.1-0.1,0.2-0.1,0.3
		c0,0.1-0.1,0.2-0.1,0.3c-0.1,0.2-0.1,0.5-0.2,0.7c0,0.1,0,0.2-0.1,0.2c-0.2-0.8-0.4-1.6-0.5-2.3c0.7-0.8,1.1-2.2,1.4-3.2l-1.4,3.2
		c0-0.2-0.1-0.4-0.1-0.5c-0.1-0.5-0.1-1-0.2-1.3c0-0.3,0-0.5,0-0.5l0,0c0-0.1-0.1-0.1-0.2-0.1c-0.1,0-0.2,0.1-0.1,0.2
		c0,0,0,0.2,0,0.5c0,0.3,0,0.8,0.1,1.3c0.1,0.5,0.1,1.1,0.3,1.7c0,0-0.1-0.1-0.1-0.1c0,0-0.1-0.1-0.2-0.2c-0.1-0.1-0.1-0.1-0.1-0.2
		c-0.1-0.1-0.2-0.3-0.3-0.4c-0.1-0.2-0.2-0.3-0.3-0.4c0-0.1-0.1-0.1-0.1-0.2c0-0.1-0.1-0.1-0.1-0.2c-0.1-0.2-0.2-0.4-0.2-0.4l0,0
		c0,0-0.1-0.1-0.1,0c0,0-0.1,0.1,0,0.1c0,0,0.1,0.2,0.2,0.4c0,0.1,0.1,0.1,0.1,0.2c0,0.1,0.1,0.1,0.1,0.2c0.1,0.1,0.2,0.3,0.3,0.5
		c0.1,0.2,0.2,0.3,0.3,0.4c0.1,0.1,0.1,0.1,0.2,0.2c0.1,0.1,0.1,0.1,0.2,0.2c0.2,0.2,0.3,0.3,0.3,0.3c0,0,0,0,0,0c0,0,0,0,0,0
		c0.1,0.6,0.3,1.2,0.4,1.8c0.1,0.3,0.2,0.6,0.3,0.9c-0.1,0-0.1,0-0.2,0c-0.1,0-0.2,0-0.3-0.1c-0.1,0-0.2-0.1-0.3-0.1
		c-0.2-0.1-0.4-0.2-0.6-0.3c-0.2-0.1-0.4-0.2-0.6-0.3c-0.1-0.1-0.2-0.1-0.3-0.2c-0.1-0.1-0.2-0.1-0.2-0.2c-0.1-0.1-0.1-0.1-0.2-0.1
		c-0.1,0-0.1-0.1-0.1-0.1c-0.1-0.1-0.1-0.1-0.1-0.1c0,0-0.1-0.1-0.2,0c0,0-0.1,0.1,0,0.2c0,0,0,0,0.1,0.1c0,0,0.1,0.1,0.1,0.1
		c0.1,0.1,0.1,0.1,0.2,0.2c0.1,0.1,0.2,0.1,0.2,0.2c0.1,0.1,0.2,0.1,0.3,0.2c0.2,0.1,0.3,0.2,0.5,0.3c0,0,0,0-0.1,0.1
		c-0.1,0.1-0.1,0.1-0.2,0.2c-0.1,0.1-0.2,0.1-0.3,0.2c-0.1,0-0.1,0-0.2,0.1c-0.1,0-0.1,0-0.2,0.1c-0.1,0-0.2,0.1-0.3,0.1
		c-0.1,0-0.2,0-0.2,0c-0.1,0-0.1,0-0.1,0l0,0c0,0-0.1,0,0,0.1c0,0,0,0.1,0.1,0.1c0,0,0,0,0.1,0c0.1,0,0.1,0,0.2,0
		c0.1,0,0.2,0,0.3-0.1c0.1,0,0.1,0,0.2,0c0.1,0,0.1,0,0.2-0.1c0.1-0.1,0.2-0.1,0.3-0.2c0.1-0.1,0.2-0.1,0.3-0.2
		c0.1,0,0.1-0.1,0.1-0.1c0.2,0.1,0.3,0.2,0.5,0.2c0.1,0,0.2,0.1,0.3,0.1c0.1,0,0.2,0.1,0.3,0.1c0.1,0,0.2,0,0.3,0.1
		c0.1,0,0.1,0,0.1,0c0,0.1,0.1,0.2,0.1,0.3c0,0.1,0.1,0.2,0.1,0.2c0,0.1,0.1,0.2,0.1,0.2c0.3,0.6,0.6,1.2,0.8,1.6
		c0.3,0.5,0.5,0.9,0.6,1.1c0.1,0.1,0.1,0.2,0.1,0.2c-0.3,1.2-0.5,2.5-0.7,3.9c-0.2,1.4-0.3,2.8-0.4,4.2c0,0.2,0,0.3,0,0.5
		c0,0.2,0,0.3,0,0.5c0,0.3,0,0.6,0,0.9c0,0.6,0,1.2-0.1,1.7c0,0.5,0,1-0.1,1.4c0,0.3,0,0.6,0,1c0,0.2-0.1,0.4,0.1,0.5
		c0.2,0.1,0.4,0,0.7,0c0.3,0,0.6,0,0.8,0c0.2,0,0.4,0.1,0.6-0.1c0,0,0,0,0,0c0.1-0.2,0-0.5,0-0.7c-0.1-0.7-0.1-1.4-0.1-2.1
		c0-0.5,0-1.1-0.1-1.7c0-0.3,0-0.6,0-0.9c0-0.2,0-0.3,0-0.5c0-0.2,0-0.3,0-0.5c0-1.3,0-2.7,0.1-4c0.1-1.4,0.2-2.7,0.5-4
		c0.1-0.6,0.2-1.2,0.3-1.7c0,0,0.1,0,0.2,0c0.1,0,0.1,0,0.2-0.1c0.1,0,0.3-0.1,0.5-0.2c0.1,0,0.2-0.1,0.3-0.1
		c0.1-0.1,0.2-0.1,0.2-0.2c0.3-0.2,0.6-0.5,0.9-0.7c0.1,0,0.1-0.1,0.1-0.1c0,0,0.1-0.1,0.1-0.1c0.1-0.1,0.1-0.1,0.1-0.1
		C45.4,17.2,45.4,17.2,45.4,17.1z"/>
</g>
</svg>
