<svg id="svg" version="1.1" xmlns="http://www.w3.org/2000/svg" xmlns:xlink="http://www.w3.org/1999/xlink" width="400" height="227.77777777777777" viewBox="0, 0, 400,227.77777777777777"><g id="svgg"><path id="path0" d="M74.943 1.367 L 74.943 2.733 70.188 2.733 C 67.573 2.733,65.112 2.798,64.721 2.876 L 64.009 3.018 64.009 5.719 L 64.009 8.420 58.485 8.481 L 52.961 8.542 52.897 11.219 L 52.833 13.895 50.234 13.895 C 47.145 13.895,47.327 13.717,47.197 16.871 L 47.097 19.299 44.448 19.502 L 41.800 19.704 41.735 22.373 L 41.671 25.043 39.002 25.107 L 36.333 25.171 36.272 30.695 L 36.211 36.219 33.508 36.219 C 30.226 36.219,30.531 35.610,30.527 42.169 L 30.524 47.094 28.064 47.195 C 24.875 47.327,25.057 47.143,25.057 50.234 L 25.057 52.833 22.380 52.897 L 19.704 52.961 19.560 54.442 C 19.480 55.256,19.403 58.972,19.389 62.699 L 19.362 69.476 16.902 69.476 C 13.600 69.476,13.895 68.634,13.895 78.064 L 13.895 86.105 11.522 86.105 C 10.217 86.105,8.987 86.167,8.789 86.243 C 8.463 86.368,8.428 88.788,8.428 111.300 L 8.428 136.219 5.723 136.219 L 3.018 136.219 2.876 136.931 C 2.798 137.322,2.733 139.782,2.733 142.397 L 2.733 147.153 1.367 147.153 L 0.000 147.153 0.000 158.314 L 0.000 169.476 1.355 169.476 L 2.710 169.476 2.779 174.811 C 2.816 177.745,2.926 180.224,3.023 180.320 C 3.119 180.416,4.375 180.540,5.813 180.595 L 8.428 180.695 8.451 182.432 C 8.464 183.387,8.455 184.516,8.431 184.940 C 8.366 186.109,8.252 186.098,19.761 186.101 L 30.524 186.105 30.527 188.326 C 30.532 191.797,30.325 191.572,33.512 191.572 L 36.219 191.572 36.234 192.312 C 36.242 192.719,36.236 193.936,36.221 195.016 C 36.187 197.348,36.059 197.259,39.465 197.263 L 41.686 197.267 41.686 199.640 C 41.686 203.064,41.075 202.733,47.398 202.733 L 52.833 202.733 52.897 205.410 L 52.961 208.087 54.442 208.231 C 56.371 208.419,82.581 208.419,84.510 208.231 L 85.991 208.087 86.055 205.410 L 86.119 202.733 91.471 202.733 L 96.822 202.733 97.044 202.149 C 97.167 201.828,97.267 200.598,97.267 199.416 L 97.267 197.267 99.559 197.267 C 102.810 197.267,102.733 197.341,102.733 194.191 L 102.733 191.586 105.410 191.522 L 108.087 191.458 108.291 188.781 L 108.495 186.105 169.509 186.105 L 230.524 186.105 230.527 188.326 C 230.532 191.797,230.325 191.572,233.512 191.572 L 236.219 191.572 236.219 194.279 C 236.219 197.466,235.993 197.259,239.465 197.263 L 241.686 197.267 241.686 199.640 C 241.686 203.064,241.075 202.733,247.398 202.733 L 252.833 202.733 252.897 205.410 L 252.961 208.087 254.442 208.231 C 255.256 208.310,262.022 208.375,269.476 208.375 C 276.931 208.375,283.696 208.310,284.510 208.231 L 285.991 208.087 286.055 205.410 L 286.119 202.733 291.471 202.733 L 296.822 202.733 297.044 202.149 C 297.167 201.828,297.267 200.598,297.267 199.416 L 297.267 197.267 299.559 197.267 C 302.810 197.267,302.733 197.341,302.733 194.191 L 302.733 191.586 305.410 191.522 L 308.087 191.458 308.291 188.781 L 308.495 186.105 327.463 186.105 C 337.896 186.105,346.594 186.043,346.792 185.967 C 347.091 185.852,347.153 185.392,347.153 183.262 L 347.153 180.695 349.768 180.595 C 352.937 180.474,352.683 180.727,352.805 177.558 L 352.905 174.943 355.471 174.943 C 357.601 174.943,358.061 174.882,358.176 174.583 C 358.357 174.112,358.357 137.050,358.176 136.579 C 358.061 136.280,357.599 136.219,355.443 136.219 L 352.847 136.219 352.820 81.378 C 352.806 51.216,352.728 26.230,352.648 25.854 L 352.502 25.171 349.830 25.107 L 347.158 25.043 347.099 16.792 L 347.039 8.542 344.362 8.478 L 341.686 8.414 341.682 5.972 C 341.677 2.579,342.186 2.859,335.886 2.779 L 330.524 2.710 330.524 1.355 L 330.524 0.000 202.733 0.000 L 74.943 0.000 74.943 1.367 M323.451 9.523 C 327.230 9.989,328.801 10.830,329.916 12.984 C 330.317 13.759,330.664 14.092,331.339 14.351 C 333.633 15.228,334.350 16.073,335.226 18.924 C 335.750 20.632,335.935 20.937,337.063 21.970 C 340.074 24.728,339.854 19.940,339.858 82.802 C 339.862 130.588,339.899 136.161,340.234 138.724 C 340.617 141.651,341.021 142.594,341.896 142.599 C 342.911 142.605,344.609 143.955,345.251 145.266 C 346.597 148.019,346.628 167.776,345.290 170.886 C 344.468 172.796,343.191 173.510,338.838 174.491 C 337.585 174.774,336.463 175.094,336.344 175.202 C 336.225 175.310,328.654 175.399,319.519 175.399 L 302.911 175.399 301.676 176.527 C 300.811 177.318,299.934 177.847,298.746 178.293 C 297.034 178.936,296.128 180.015,296.128 181.412 C 296.128 181.603,295.918 182.319,295.662 183.003 C 295.210 184.211,294.905 184.552,292.620 186.396 C 292.188 186.745,291.516 187.595,291.127 188.285 C 290.322 189.711,288.976 190.700,287.097 191.248 C 286.137 191.528,285.870 191.722,285.622 192.320 C 284.523 194.973,282.430 195.765,274.032 196.703 C 272.215 196.906,270.452 197.160,270.113 197.268 C 269.766 197.378,269.169 197.376,268.746 197.263 C 268.333 197.152,266.048 196.850,263.667 196.590 C 255.899 195.744,254.958 195.449,252.733 193.166 C 251.982 192.395,250.957 191.555,250.456 191.301 C 247.785 189.942,243.179 184.236,242.624 181.599 C 242.236 179.753,241.888 179.377,240.167 178.945 C 239.343 178.738,238.048 178.316,237.290 178.009 L 235.912 177.449 169.525 177.449 L 103.138 177.449 101.057 178.227 C 99.912 178.654,98.595 179.075,98.132 179.161 C 97.091 179.354,96.768 179.829,96.262 181.908 C 95.467 185.175,91.800 189.461,88.455 191.031 C 87.258 191.593,86.585 192.089,85.949 192.879 C 83.964 195.344,82.376 195.831,73.121 196.814 C 71.805 196.954,70.452 197.157,70.113 197.266 C 69.763 197.378,69.173 197.376,68.746 197.262 C 68.333 197.151,65.618 196.798,62.711 196.476 C 55.533 195.683,53.246 194.823,51.640 192.312 C 51.540 192.155,50.873 191.655,50.159 191.202 C 46.837 189.092,43.330 184.768,42.613 181.897 C 42.073 179.736,41.957 179.610,40.019 179.055 C 39.178 178.815,37.915 178.355,37.213 178.033 C 35.945 177.453,35.894 177.449,29.935 177.449 C 21.385 177.449,19.569 177.212,18.290 175.933 C 17.747 175.390,16.818 174.697,16.226 174.393 C 15.633 174.089,14.795 173.576,14.363 173.253 C 13.932 172.930,13.468 172.665,13.333 172.665 C 12.864 172.665,11.374 171.249,10.932 170.383 C 9.638 167.846,9.641 148.994,10.936 146.470 C 11.597 145.181,13.602 143.666,16.515 142.256 C 20.533 140.310,20.501 140.497,20.502 118.797 C 20.503 89.859,21.050 84.847,24.454 82.617 C 25.174 82.145,25.360 81.522,26.076 77.187 C 27.059 71.233,27.715 69.520,29.703 67.717 C 30.736 66.779,31.240 65.583,31.914 62.471 C 32.588 59.361,33.870 56.995,35.391 56.055 C 36.277 55.507,36.921 54.194,37.596 51.552 C 38.115 49.525,38.695 48.509,39.818 47.660 C 40.927 46.822,41.913 45.779,41.913 45.444 C 41.913 43.995,45.105 38.998,46.404 38.412 C 47.386 37.969,48.336 36.643,48.726 35.172 C 49.135 33.631,50.111 32.512,51.650 31.821 C 53.267 31.096,53.351 31.005,53.870 29.415 C 54.400 27.791,55.575 26.640,57.424 25.934 C 58.804 25.407,58.898 25.322,59.296 24.250 C 59.907 22.602,60.609 21.811,61.988 21.217 C 64.989 19.925,65.235 19.754,65.914 18.487 C 66.887 16.671,69.795 15.189,73.804 14.466 C 75.210 14.213,75.725 13.885,76.424 12.801 C 77.853 10.582,80.380 9.926,89.289 9.462 C 97.005 9.060,320.162 9.119,323.451 9.523 M74.468 45.422 C 74.416 45.472,73.196 45.636,71.756 45.787 C 68.727 46.105,66.917 46.841,66.219 48.038 C 65.994 48.425,65.430 49.020,64.966 49.361 C 64.502 49.702,63.559 50.505,62.870 51.145 C 62.181 51.786,61.463 52.405,61.274 52.521 C 61.086 52.638,60.634 53.132,60.271 53.618 C 59.908 54.105,59.327 54.667,58.979 54.866 C 58.337 55.234,56.791 57.879,56.284 59.477 C 55.926 60.605,54.663 62.018,53.576 62.508 C 52.490 62.998,52.288 63.396,51.934 65.739 C 51.023 71.764,49.901 74.925,47.939 76.993 C 46.769 78.226,46.320 80.418,47.090 81.141 L 47.645 81.663 66.875 81.735 L 86.106 81.807 86.789 81.321 L 87.472 80.835 87.472 63.916 L 87.472 46.998 86.845 46.173 L 86.219 45.347 80.391 45.339 C 77.186 45.334,74.521 45.371,74.468 45.422 M107.787 46.216 L 107.289 47.101 107.287 97.184 L 107.285 147.267 107.769 149.836 L 108.252 152.405 111.129 152.341 L 114.006 152.278 114.919 150.000 L 115.831 147.722 115.890 97.505 L 115.949 47.288 114.989 46.309 L 114.028 45.330 111.156 45.330 L 108.284 45.330 107.787 46.216 M130.064 46.071 C 129.389 47.175,129.471 148.320,130.150 150.854 L 130.561 152.392 133.368 152.392 L 136.174 152.392 136.445 151.651 C 136.594 151.244,137.014 150.046,137.379 148.989 L 138.041 147.067 138.041 97.175 L 138.041 47.284 137.082 46.307 L 136.124 45.330 133.321 45.330 L 130.517 45.330 130.064 46.071 M263.330 46.232 C 262.881 47.113,262.870 47.528,262.870 63.960 L 262.870 80.786 263.397 81.281 L 263.925 81.777 280.656 81.777 L 297.387 81.777 298.409 81.229 C 299.628 80.575,299.562 81.461,299.139 71.412 C 298.981 67.654,298.752 61.862,298.630 58.542 C 298.428 53.017,297.921 47.993,297.483 47.161 C 296.823 45.905,290.272 45.356,275.802 45.342 L 263.791 45.330 263.330 46.232 M161.731 46.307 L 159.795 47.039 159.737 63.767 C 159.690 76.997,159.738 80.534,159.964 80.682 C 160.122 80.785,161.076 81.125,162.085 81.437 L 163.919 82.005 174.962 82.005 C 186.919 82.005,191.374 81.723,191.970 80.930 C 192.484 80.247,192.374 47.343,191.856 46.735 C 191.047 45.786,187.771 45.557,175.107 45.567 L 163.667 45.576 161.731 46.307 M212.916 46.422 L 212.073 47.286 212.073 63.924 L 212.073 80.562 212.971 81.283 L 213.869 82.005 227.750 82.005 L 241.632 82.005 242.342 81.278 L 243.052 80.551 243.052 63.889 L 243.052 47.226 242.426 46.400 L 241.800 45.575 227.780 45.566 L 213.760 45.558 212.916 46.422 M74.943 63.895 L 74.943 69.476 69.362 69.476 L 63.781 69.476 63.781 66.629 L 63.781 63.781 66.488 63.781 C 69.675 63.781,69.468 64.007,69.473 60.535 L 69.476 58.314 72.210 58.314 L 74.943 58.314 74.943 63.895 M180.638 63.895 L 180.638 69.476 175.057 69.476 L 169.476 69.476 169.476 63.895 L 169.476 58.314 175.057 58.314 L 180.638 58.314 180.638 63.895 M230.524 63.895 L 230.524 69.476 227.790 69.476 L 225.057 69.476 225.057 63.895 L 225.057 58.314 227.790 58.314 L 230.524 58.314 230.524 63.895 M286.105 63.895 L 286.105 69.476 280.524 69.476 L 274.943 69.476 274.943 63.895 L 274.943 58.314 280.524 58.314 L 286.105 58.314 286.105 63.895 M266.462 156.409 C 263.349 156.788,261.555 157.639,260.496 159.240 C 260.169 159.733,259.548 160.367,259.114 160.649 C 256.745 162.190,256.533 170.642,258.838 171.691 C 259.790 172.125,260.949 173.284,261.374 174.225 C 262.038 175.697,263.319 176.243,266.635 176.467 C 272.318 176.851,276.310 175.953,276.310 174.291 C 276.310 173.417,277.287 171.075,277.999 170.244 C 278.730 169.390,278.759 169.279,278.919 166.715 L 279.085 164.067 278.273 163.004 C 277.564 162.075,276.538 159.504,276.538 158.656 C 276.538 158.155,274.971 156.948,274.309 156.940 C 273.779 156.933,271.709 156.599,269.704 156.198 C 269.391 156.135,267.932 156.230,266.462 156.409 M66.169 156.585 C 63.304 156.897,62.072 157.575,61.030 159.412 C 60.575 160.215,60.005 160.829,59.340 161.234 C 56.769 162.799,56.650 169.978,59.173 171.275 C 60.317 171.863,61.153 172.785,61.732 174.094 C 62.715 176.317,66.001 176.998,72.437 176.312 C 75.565 175.979,76.128 175.676,76.520 174.120 C 77.032 172.087,78.092 170.433,79.280 169.815 C 79.859 169.514,80.952 164.004,80.465 163.837 C 79.079 163.363,77.634 161.603,77.075 159.706 C 76.428 157.513,75.783 157.111,72.166 156.647 C 70.498 156.433,68.981 156.276,68.793 156.297 C 68.605 156.318,67.424 156.448,66.169 156.585 " stroke="none" fill="#fafbf8" fill-rule="evenodd"></path><path id="path1" d="M89.289 9.462 C 80.380 9.926,77.853 10.582,76.424 12.801 C 75.725 13.885,75.210 14.213,73.804 14.466 C 69.795 15.189,66.887 16.671,65.914 18.487 C 65.235 19.754,64.989 19.925,61.988 21.217 C 60.609 21.811,59.907 22.602,59.296 24.250 C 58.898 25.322,58.804 25.407,57.424 25.934 C 55.575 26.640,54.400 27.791,53.870 29.415 C 53.351 31.005,53.267 31.096,51.650 31.821 C 50.111 32.512,49.135 33.631,48.726 35.172 C 48.336 36.643,47.386 37.969,46.404 38.412 C 45.105 38.998,41.913 43.995,41.913 45.444 C 41.913 45.779,40.927 46.822,39.818 47.660 C 38.695 48.509,38.115 49.525,37.596 51.552 C 36.921 54.194,36.277 55.507,35.391 56.055 C 33.870 56.995,32.588 59.361,31.914 62.471 C 31.240 65.583,30.736 66.779,29.703 67.717 C 27.715 69.520,27.059 71.233,26.076 77.187 C 25.360 81.522,25.174 82.145,24.454 82.617 C 21.050 84.847,20.503 89.859,20.502 118.797 C 20.501 140.497,20.533 140.310,16.515 142.256 C 13.602 143.666,11.597 145.181,10.936 146.470 C 9.641 148.994,9.638 167.846,10.932 170.383 C 11.374 171.249,12.864 172.665,13.333 172.665 C 13.468 172.665,13.932 172.930,14.363 173.253 C 14.795 173.576,15.633 174.089,16.226 174.393 C 16.818 174.697,17.747 175.390,18.290 175.933 C 19.569 177.212,21.385 177.449,29.935 177.449 C 35.894 177.449,35.945 177.453,37.213 178.033 C 37.915 178.355,39.178 178.815,40.019 179.055 C 41.957 179.610,42.073 179.736,42.613 181.897 C 43.330 184.768,46.837 189.092,50.159 191.202 C 50.873 191.655,51.540 192.155,51.640 192.312 C 53.246 194.823,55.533 195.683,62.711 196.476 C 65.618 196.798,68.333 197.151,68.746 197.262 C 69.173 197.376,69.763 197.378,70.113 197.266 C 70.452 197.157,71.805 196.954,73.121 196.814 C 82.376 195.831,83.964 195.344,85.949 192.879 C 86.585 192.089,87.258 191.593,88.455 191.031 C 91.800 189.461,95.467 185.175,96.262 181.908 C 96.768 179.829,97.091 179.354,98.132 179.161 C 98.595 179.075,99.912 178.654,101.057 178.227 L 103.138 177.449 169.525 177.449 L 235.912 177.449 237.290 178.009 C 238.048 178.316,239.343 178.738,240.167 178.945 C 241.888 179.377,242.236 179.753,242.624 181.599 C 243.179 184.236,247.785 189.942,250.456 191.301 C 250.957 191.555,251.982 192.395,252.733 193.166 C 254.958 195.449,255.899 195.744,263.667 196.590 C 266.048 196.850,268.333 197.152,268.746 197.263 C 269.169 197.376,269.766 197.378,270.113 197.268 C 270.452 197.160,272.215 196.906,274.032 196.703 C 282.430 195.765,284.523 194.973,285.622 192.320 C 285.870 191.722,286.137 191.528,287.097 191.248 C 288.976 190.700,290.322 189.711,291.127 188.285 C 291.516 187.595,292.188 186.745,292.620 186.396 C 294.905 184.552,295.210 184.211,295.662 183.003 C 295.918 182.319,296.128 181.603,296.128 181.412 C 296.128 180.015,297.034 178.936,298.746 178.293 C 299.934 177.847,300.811 177.318,301.676 176.527 L 302.911 175.399 319.519 175.399 C 328.654 175.399,336.225 175.310,336.344 175.202 C 336.463 175.094,337.585 174.774,338.838 174.491 C 343.191 173.510,344.468 172.796,345.290 170.886 C 346.628 167.776,346.597 148.019,345.251 145.266 C 344.609 143.955,342.911 142.605,341.896 142.599 C 341.021 142.594,340.617 141.651,340.234 138.724 C 339.899 136.161,339.862 130.588,339.858 82.802 C 339.854 19.940,340.074 24.728,337.063 21.970 C 335.935 20.937,335.750 20.632,335.226 18.924 C 334.350 16.073,333.633 15.228,331.339 14.351 C 330.664 14.092,330.317 13.759,329.916 12.984 C 328.801 10.830,327.230 9.989,323.451 9.523 C 320.162 9.119,97.005 9.060,89.289 9.462 M321.868 11.001 C 325.173 11.552,325.941 11.881,327.366 13.354 C 328.038 14.048,329.318 15.115,330.211 15.725 C 332.359 17.190,333.357 18.395,333.957 20.248 C 334.225 21.076,334.838 22.625,335.319 23.690 C 335.800 24.755,336.481 26.549,336.832 27.677 L 337.472 29.727 337.600 83.941 C 337.717 133.356,337.762 138.315,338.108 139.962 C 338.547 142.050,339.049 142.698,341.464 144.292 C 344.537 146.320,344.737 147.272,344.585 159.114 C 344.436 170.628,344.234 171.112,338.918 172.648 L 336.492 173.349 319.670 173.351 C 301.932 173.354,302.445 173.327,299.772 174.391 C 297.327 175.364,296.302 176.535,294.979 179.864 C 294.085 182.115,293.325 183.216,291.989 184.197 C 291.378 184.645,290.559 185.488,290.168 186.071 C 288.999 187.811,287.903 188.821,286.220 189.707 C 285.344 190.169,284.012 191.146,283.259 191.878 C 279.705 195.335,270.523 196.411,260.346 194.564 C 257.492 194.045,256.521 193.592,254.886 192.016 C 254.215 191.369,253.143 190.545,252.505 190.185 C 250.864 189.259,249.606 188.124,248.679 186.734 C 248.239 186.075,247.291 185.030,246.572 184.412 C 245.449 183.447,245.097 182.933,244.079 180.767 C 242.504 177.418,242.195 177.093,239.109 175.558 L 236.494 174.257 169.215 174.315 L 101.936 174.374 99.448 175.624 C 96.650 177.030,96.288 177.433,94.968 180.613 C 94.082 182.750,93.685 183.339,91.932 185.123 C 91.170 185.899,89.976 187.129,89.278 187.857 C 88.481 188.689,87.429 189.474,86.446 189.971 C 85.586 190.407,84.311 191.289,83.614 191.933 C 79.990 195.279,71.083 196.326,60.522 194.647 C 57.609 194.184,56.582 193.728,54.948 192.175 C 54.231 191.493,53.030 190.576,52.278 190.137 C 50.714 189.223,49.519 188.127,48.549 186.718 C 48.179 186.179,47.299 185.246,46.595 184.645 C 45.499 183.708,45.121 183.153,43.966 180.785 C 42.261 177.290,42.309 177.340,39.100 175.663 L 36.413 174.260 30.768 174.260 C 20.003 174.260,18.583 173.976,15.144 171.139 C 12.531 168.984,12.000 166.623,12.125 157.711 C 12.258 148.159,13.167 146.073,18.282 143.565 C 21.792 141.844,21.865 141.437,21.876 123.751 C 21.891 97.308,22.315 91.902,24.711 87.585 C 25.671 85.857,26.476 83.351,27.232 79.739 C 28.156 75.330,28.758 73.675,30.184 71.631 C 31.221 70.143,31.615 69.286,32.376 66.856 C 33.753 62.459,34.316 61.210,35.561 59.788 C 36.911 58.246,37.244 57.611,38.486 54.225 C 39.556 51.306,39.907 50.721,41.565 49.089 C 42.383 48.284,43.069 47.248,43.904 45.558 C 44.765 43.816,45.544 42.652,46.773 41.272 C 47.701 40.230,48.807 38.761,49.230 38.008 C 50.693 35.407,51.372 34.519,52.733 33.426 C 53.542 32.776,54.579 31.613,55.278 30.572 C 56.192 29.209,56.830 28.557,58.126 27.659 C 59.214 26.906,60.195 25.970,60.944 24.972 C 62.178 23.330,62.617 22.974,64.940 21.738 C 65.765 21.299,67.095 20.318,67.896 19.559 C 69.599 17.943,71.069 17.153,74.692 15.906 C 76.545 15.268,77.886 14.626,79.179 13.758 C 82.015 11.854,86.292 11.010,94.989 10.638 C 103.051 10.293,319.698 10.640,321.868 11.001 M73.918 43.196 C 73.417 43.382,71.982 43.780,70.729 44.080 C 68.537 44.606,66.395 45.374,64.673 46.252 C 64.224 46.481,63.283 47.378,62.582 48.245 C 61.882 49.112,60.521 50.413,59.559 51.138 C 58.553 51.895,57.576 52.852,57.258 53.391 C 54.567 57.960,53.878 59.027,52.988 60.004 C 51.516 61.619,50.925 62.861,50.160 65.945 C 49.291 69.447,48.669 71.067,47.714 72.319 C 46.478 73.937,46.071 74.944,45.552 77.658 C 44.975 80.673,45.017 80.931,46.328 82.379 L 47.329 83.485 66.715 83.562 C 88.753 83.649,86.582 83.837,88.583 81.666 L 89.522 80.648 89.522 63.891 C 89.522 44.767,89.701 46.456,87.413 44.037 L 86.266 42.825 80.548 42.841 C 76.078 42.853,74.630 42.931,73.918 43.196 M107.650 43.577 C 107.335 43.990,106.817 44.916,106.500 45.633 L 105.923 46.938 105.923 97.289 C 105.923 154.160,105.861 151.908,107.473 153.588 L 108.293 154.442 111.151 154.436 C 115.844 154.425,116.779 153.745,117.864 149.555 L 118.451 147.287 118.451 97.245 L 118.451 47.202 117.695 46.095 C 117.279 45.487,116.299 44.502,115.517 43.907 L 114.097 42.825 111.160 42.825 L 108.224 42.825 107.650 43.577 M129.617 43.956 C 127.857 46.699,128.017 41.340,128.029 97.326 C 128.041 154.271,127.976 152.113,129.720 153.711 L 130.555 154.477 133.568 154.402 C 136.842 154.322,138.973 153.532,139.246 152.299 C 139.304 152.037,139.620 150.797,139.947 149.544 L 140.543 147.267 140.545 97.234 L 140.547 47.202 139.788 46.095 C 139.370 45.487,138.427 44.502,137.692 43.907 L 136.355 42.825 133.349 42.825 L 130.344 42.825 129.617 43.956 M263.252 43.502 C 262.938 43.875,262.391 44.772,262.036 45.495 L 261.390 46.811 261.328 63.679 L 261.267 80.547 261.976 81.617 C 263.419 83.796,261.655 83.616,280.907 83.546 L 297.836 83.485 299.544 82.658 C 300.484 82.203,301.583 81.537,301.987 81.177 L 302.722 80.524 302.285 77.449 C 301.810 74.105,301.564 71.565,301.036 64.579 C 299.594 45.474,299.697 45.785,294.299 44.225 C 289.899 42.953,288.141 42.825,275.183 42.825 L 263.822 42.825 263.252 43.502 M160.934 43.994 C 156.606 45.301,156.948 43.595,156.948 63.922 L 156.948 80.709 157.556 81.527 C 157.891 81.978,158.195 82.385,158.231 82.433 C 158.268 82.480,159.504 82.813,160.978 83.173 L 163.658 83.827 175.280 83.819 C 191.584 83.808,191.776 83.784,193.201 81.561 L 193.850 80.549 193.850 63.958 L 193.850 47.367 193.175 46.064 C 191.712 43.241,191.936 43.275,175.105 43.293 L 163.212 43.306 160.934 43.994 M212.847 43.935 C 211.887 44.644,210.771 45.792,210.171 46.691 C 209.830 47.201,209.795 48.803,209.795 63.867 L 209.795 80.481 210.395 81.267 C 210.725 81.700,211.612 82.453,212.366 82.940 L 213.738 83.827 227.847 83.827 L 241.956 83.827 243.415 82.367 L 244.875 80.908 244.875 64.000 C 244.875 44.770,245.070 46.669,242.855 44.362 L 241.817 43.280 227.776 43.280 L 213.736 43.280 212.847 43.935 M86.845 46.173 L 87.472 46.998 87.472 63.916 L 87.472 80.835 86.789 81.321 L 86.106 81.807 66.875 81.735 L 47.645 81.663 47.090 81.141 C 46.320 80.418,46.769 78.226,47.939 76.993 C 49.901 74.925,51.023 71.764,51.934 65.739 C 52.288 63.396,52.490 62.998,53.576 62.508 C 54.663 62.018,55.926 60.605,56.284 59.477 C 56.791 57.879,58.337 55.234,58.979 54.866 C 59.327 54.667,59.908 54.105,60.271 53.618 C 60.634 53.132,61.086 52.638,61.274 52.521 C 61.463 52.405,62.181 51.786,62.870 51.145 C 63.559 50.505,64.502 49.702,64.966 49.361 C 65.430 49.020,65.994 48.425,66.219 48.038 C 66.917 46.841,68.727 46.105,71.756 45.787 C 73.196 45.636,74.416 45.472,74.468 45.422 C 74.521 45.371,77.186 45.334,80.391 45.339 L 86.219 45.347 86.845 46.173 M114.989 46.309 L 115.949 47.288 115.890 97.505 L 115.831 147.722 114.919 150.000 L 114.006 152.278 111.129 152.341 L 108.252 152.405 107.769 149.836 L 107.285 147.267 107.287 97.184 L 107.289 47.101 107.787 46.216 L 108.284 45.330 111.156 45.330 L 114.028 45.330 114.989 46.309 M137.082 46.307 L 138.041 47.284 138.041 97.175 L 138.041 147.067 137.379 148.989 C 137.014 150.046,136.594 151.244,136.445 151.651 L 136.174 152.392 133.368 152.392 L 130.561 152.392 130.150 150.854 C 129.471 148.320,129.389 47.175,130.064 46.071 L 130.517 45.330 133.321 45.330 L 136.124 45.330 137.082 46.307 M290.205 45.569 C 293.248 45.842,297.250 46.718,297.483 47.161 C 297.921 47.993,298.428 53.017,298.630 58.542 C 298.752 61.862,298.981 67.654,299.139 71.412 C 299.562 81.461,299.628 80.575,298.409 81.229 L 297.387 81.777 280.656 81.777 L 263.925 81.777 263.397 81.281 L 262.870 80.786 262.870 63.960 C 262.870 47.528,262.881 47.113,263.330 46.232 L 263.791 45.330 275.802 45.342 C 282.408 45.348,288.890 45.450,290.205 45.569 M189.002 45.913 C 190.915 46.189,191.546 46.371,191.856 46.735 C 192.374 47.343,192.484 80.247,191.970 80.930 C 191.374 81.723,186.919 82.005,174.962 82.005 L 163.919 82.005 162.085 81.437 C 161.076 81.125,160.122 80.785,159.964 80.682 C 159.738 80.534,159.690 76.997,159.737 63.767 L 159.795 47.039 161.731 46.307 L 163.667 45.576 175.107 45.567 C 184.297 45.560,187.029 45.628,189.002 45.913 M242.426 46.400 L 243.052 47.226 243.052 63.889 L 243.052 80.551 242.342 81.278 L 241.632 82.005 227.750 82.005 L 213.869 82.005 212.971 81.283 L 212.073 80.562 212.073 63.924 L 212.073 47.286 212.916 46.422 L 213.760 45.558 227.780 45.566 L 241.800 45.575 242.426 46.400 M268.990 153.181 C 268.932 153.239,267.696 153.585,266.243 153.950 C 263.183 154.717,258.431 157.281,257.631 158.596 C 256.373 160.665,255.772 163.449,255.849 166.851 L 255.923 170.083 256.894 172.043 C 259.805 177.913,266.162 179.916,274.739 177.666 C 275.936 177.352,277.591 175.783,278.385 174.211 C 278.761 173.465,279.455 172.428,279.926 171.906 C 281.769 169.864,281.777 169.841,281.777 166.507 C 281.777 163.210,281.719 163.025,280.052 160.934 C 279.652 160.433,279.065 159.510,278.748 158.884 C 277.737 156.887,275.893 155.434,273.576 154.809 C 272.762 154.589,271.466 154.109,270.696 153.742 C 269.211 153.034,269.156 153.016,268.990 153.181 M68.679 153.662 C 68.554 153.715,67.352 154.006,66.009 154.309 C 62.419 155.119,58.682 157.609,57.472 159.997 C 52.423 169.961,60.648 180.748,71.471 178.355 C 72.566 178.112,73.703 177.912,73.997 177.909 C 75.304 177.897,77.805 176.021,78.605 174.454 C 78.855 173.964,79.564 173.006,80.182 172.323 C 83.050 169.157,83.159 164.119,80.437 160.478 C 79.969 159.852,79.290 158.936,78.929 158.443 C 77.416 156.378,75.737 155.281,73.137 154.660 C 72.128 154.419,70.930 154.067,70.475 153.876 C 69.663 153.537,69.130 153.473,68.679 153.662 M271.982 156.622 C 272.921 156.792,273.969 156.935,274.309 156.940 C 274.971 156.948,276.538 158.155,276.538 158.656 C 276.538 159.504,277.564 162.075,278.273 163.004 L 279.085 164.067 278.919 166.715 C 278.759 169.279,278.730 169.390,277.999 170.244 C 277.287 171.075,276.310 173.417,276.310 174.291 C 276.310 175.953,272.318 176.851,266.635 176.467 C 263.319 176.243,262.038 175.697,261.374 174.225 C 260.949 173.284,259.790 172.125,258.838 171.691 C 256.533 170.642,256.745 162.190,259.114 160.649 C 259.548 160.367,260.169 159.733,260.496 159.240 C 261.762 157.327,266.888 155.634,269.704 156.198 C 270.017 156.261,271.042 156.451,271.982 156.622 M72.166 156.647 C 75.783 157.111,76.428 157.513,77.075 159.706 C 77.634 161.603,79.079 163.363,80.465 163.837 C 80.952 164.004,79.859 169.514,79.280 169.815 C 78.092 170.433,77.032 172.087,76.520 174.120 C 76.128 175.676,75.565 175.979,72.437 176.312 C 66.001 176.998,62.715 176.317,61.732 174.094 C 61.153 172.785,60.317 171.863,59.173 171.275 C 56.650 169.978,56.769 162.799,59.340 161.234 C 60.005 160.829,60.575 160.215,61.030 159.412 C 62.072 157.575,63.304 156.897,66.169 156.585 C 67.424 156.448,68.605 156.318,68.793 156.297 C 68.981 156.276,70.498 156.433,72.166 156.647 " stroke="none" fill="#dce6c6" fill-rule="evenodd"></path><path id="path2" d="M92.825 11.772 C 87.071 12.145,83.660 12.983,80.484 14.804 C 79.379 15.437,77.758 16.172,76.880 16.437 C 72.714 17.697,71.018 18.551,69.002 20.404 C 67.541 21.748,66.452 22.470,64.920 23.115 C 63.640 23.653,62.819 24.387,61.815 25.891 C 60.998 27.115,60.268 27.753,58.542 28.749 C 57.458 29.375,56.846 30.076,56.088 31.562 C 55.654 32.412,54.279 33.798,52.625 35.050 C 52.206 35.367,51.547 36.329,51.029 37.378 C 49.972 39.518,49.134 40.766,47.656 42.400 C 46.207 44.002,45.286 45.377,44.379 47.295 C 43.894 48.321,43.195 49.293,42.353 50.114 C 40.645 51.778,40.416 52.175,39.394 55.225 C 38.282 58.543,37.879 59.317,36.498 60.788 C 35.135 62.239,34.671 63.248,33.615 67.051 C 32.706 70.326,32.127 71.615,30.742 73.449 C 29.612 74.946,28.973 76.865,28.007 81.663 C 27.143 85.955,26.624 87.614,25.495 89.684 C 23.356 93.606,23.196 95.479,23.009 118.679 C 22.811 143.266,22.951 142.322,19.191 144.425 C 16.469 145.948,15.455 146.965,15.038 148.589 C 14.878 149.214,14.504 150.324,14.207 151.054 C 13.367 153.121,13.380 163.381,14.225 165.886 C 14.532 166.796,14.893 167.969,15.027 168.493 C 15.295 169.538,16.608 170.863,18.451 171.948 L 19.476 172.551 28.132 172.668 L 36.788 172.785 38.610 173.521 C 41.808 174.811,43.584 176.557,44.637 179.445 C 45.400 181.537,45.576 181.806,47.271 183.485 C 48.156 184.362,49.319 185.663,49.855 186.375 C 50.931 187.805,51.765 188.511,53.293 189.289 C 53.851 189.574,54.876 190.339,55.571 190.991 C 57.598 192.892,57.961 193.067,61.048 193.635 C 65.883 194.526,73.793 194.422,77.854 193.416 L 80.878 192.666 82.461 191.213 C 83.453 190.304,84.678 189.460,85.737 188.957 C 87.028 188.345,87.692 187.847,88.533 186.862 C 89.139 186.152,90.312 184.897,91.139 184.072 C 93.083 182.134,93.464 181.552,94.300 179.246 C 95.514 175.894,96.721 174.706,100.228 173.410 L 101.936 172.779 168.793 172.712 C 230.900 172.650,235.754 172.673,237.130 173.030 C 241.539 174.174,243.526 175.920,244.873 179.836 C 245.423 181.433,246.500 182.945,247.664 183.752 C 248.161 184.096,248.961 184.958,249.443 185.667 C 250.533 187.272,252.033 188.609,253.609 189.380 C 254.274 189.706,255.258 190.441,255.794 191.013 C 256.331 191.586,257.143 192.295,257.599 192.590 C 260.094 194.202,272.349 194.817,277.107 193.569 C 280.381 192.710,280.587 192.607,282.270 190.982 C 283.212 190.072,284.288 189.293,285.090 188.938 C 286.907 188.135,287.824 187.373,288.896 185.777 C 289.407 185.018,290.087 184.191,290.407 183.941 C 292.631 182.199,293.167 181.478,294.051 179.036 C 295.527 174.960,296.408 173.946,299.317 172.972 L 301.253 172.324 319.134 172.210 L 337.016 172.096 339.286 171.245 C 343.249 169.758,343.730 168.356,343.734 158.297 C 343.737 148.385,343.380 146.775,340.866 145.384 C 340.126 144.975,338.951 144.043,338.253 143.314 L 336.983 141.988 336.370 138.819 L 335.757 135.649 335.762 83.371 L 335.767 31.093 335.048 28.132 C 334.652 26.503,334.095 24.556,333.809 23.804 C 333.524 23.052,333.111 21.724,332.892 20.851 C 332.411 18.934,331.359 17.662,329.498 16.752 C 328.756 16.389,327.778 15.618,327.057 14.828 C 325.458 13.076,325.063 12.851,322.540 12.257 L 320.387 11.750 207.175 11.724 C 144.909 11.709,93.451 11.731,92.825 11.772 M322.179 13.149 C 323.666 13.547,324.909 13.904,324.941 13.941 C 324.973 13.978,325.157 14.317,325.350 14.692 C 326.072 16.098,328.988 18.222,330.197 18.223 C 330.728 18.223,331.621 19.508,331.780 20.501 C 331.870 21.065,332.180 22.346,332.469 23.349 C 332.757 24.351,333.112 26.039,333.257 27.101 C 333.402 28.162,333.590 29.136,333.674 29.265 C 333.758 29.393,333.878 53.895,333.941 83.713 L 334.055 137.927 334.559 139.699 C 335.307 142.322,337.483 144.936,339.835 146.036 C 340.665 146.424,341.498 146.819,341.686 146.913 C 342.675 147.412,343.550 160.869,342.831 164.524 C 341.979 168.856,341.657 169.294,338.503 170.405 L 335.966 171.298 318.837 171.298 C 294.656 171.297,295.112 171.164,293.066 178.809 C 292.437 181.159,292.137 181.606,290.789 182.203 C 289.691 182.688,288.495 183.983,287.934 185.292 C 287.491 186.325,286.087 187.698,285.470 187.702 C 284.271 187.708,281.896 189.230,280.758 190.720 C 280.055 191.641,279.818 191.770,277.528 192.488 L 275.057 193.263 269.362 193.253 C 262.794 193.241,258.586 192.612,257.859 191.534 C 256.913 190.131,255.198 188.705,253.950 188.283 C 252.427 187.768,251.222 186.705,250.464 185.210 C 249.891 184.080,248.613 182.799,247.719 182.459 C 246.898 182.147,246.093 180.882,245.689 179.271 C 244.571 174.805,242.679 172.942,238.269 171.965 C 235.102 171.263,103.855 171.289,100.405 171.992 C 96.071 172.875,94.347 174.632,93.225 179.305 C 92.794 181.099,92.206 181.864,90.180 183.265 C 89.603 183.663,88.932 184.412,88.594 185.034 C 87.639 186.794,86.698 187.598,84.932 188.166 C 83.049 188.771,81.758 189.654,80.999 190.857 C 80.469 191.697,80.316 191.774,77.750 192.498 L 75.057 193.257 69.362 193.258 C 64.357 193.258,63.364 193.196,61.162 192.747 C 57.791 192.060,57.984 192.149,57.185 190.904 C 56.395 189.672,55.412 188.948,53.478 188.173 C 52.024 187.590,51.037 186.610,50.059 184.776 C 49.576 183.872,49.154 183.447,48.205 182.911 C 46.754 182.093,45.978 181.009,45.597 179.271 C 45.196 177.446,44.406 175.903,43.170 174.535 C 40.787 171.895,38.924 171.526,27.973 171.526 L 19.558 171.526 18.606 170.848 C 18.082 170.475,17.465 170.022,17.234 169.840 C 16.955 169.620,16.674 168.802,16.393 167.386 C 16.160 166.218,15.862 164.904,15.730 164.466 C 15.406 163.394,15.411 153.082,15.735 152.236 C 15.870 151.883,16.181 150.621,16.425 149.431 C 16.942 146.906,17.362 146.412,20.194 144.993 C 21.828 144.175,23.206 142.693,23.251 141.704 C 23.260 141.506,23.373 140.780,23.501 140.091 C 23.640 139.346,23.802 130.756,23.901 118.907 C 24.097 95.659,24.038 96.372,26.103 92.233 C 27.550 89.333,28.258 86.846,28.786 82.802 C 29.309 78.802,30.213 76.120,31.504 74.740 C 33.187 72.941,33.250 72.766,35.338 64.201 C 35.540 63.374,35.730 63.149,37.454 61.690 C 38.697 60.638,39.761 58.137,40.997 53.362 C 41.206 52.554,41.446 52.268,42.459 51.620 C 43.886 50.707,44.523 49.881,45.128 48.159 C 45.724 46.465,47.039 44.531,47.968 43.983 C 49.131 43.297,51.763 38.967,52.481 36.560 C 52.555 36.310,53.167 35.818,53.839 35.467 C 55.448 34.628,56.158 33.852,57.154 31.844 C 57.933 30.275,58.058 30.143,59.440 29.454 C 61.219 28.567,62.204 27.617,63.036 25.982 C 63.648 24.782,63.726 24.720,65.546 24.012 C 67.602 23.212,70.885 21.000,71.460 20.026 C 71.962 19.177,74.416 18.058,76.879 17.556 C 79.542 17.014,82.649 15.746,84.215 14.564 C 85.697 13.445,88.474 12.871,93.964 12.550 C 95.718 12.448,147.175 12.378,208.314 12.395 L 319.476 12.426 322.179 13.149 M73.813 39.763 C 73.129 40.082,72.156 40.676,71.649 41.083 C 70.987 41.617,70.025 42.024,68.223 42.533 C 63.278 43.932,62.054 44.566,60.894 46.335 C 59.856 47.917,58.812 48.936,57.588 49.561 C 56.338 50.201,55.778 50.901,54.418 53.528 C 53.867 54.592,52.953 55.925,52.385 56.490 C 50.320 58.546,49.613 59.786,48.975 62.474 C 48.168 65.871,47.480 67.563,46.335 68.961 C 44.342 71.396,43.629 73.691,43.364 78.524 L 43.211 81.309 43.954 82.816 C 44.531 83.990,44.927 84.470,45.741 84.986 L 46.786 85.649 66.779 85.649 C 86.291 85.649,86.801 85.638,88.003 85.188 C 89.340 84.688,90.670 83.548,91.262 82.393 C 91.468 81.991,91.827 81.418,92.060 81.120 C 92.730 80.260,92.716 47.576,92.045 46.287 C 91.803 45.823,91.327 44.743,90.985 43.887 C 90.283 42.125,88.802 40.431,87.291 39.660 C 85.717 38.857,75.594 38.934,73.813 39.763 M107.124 39.976 C 105.978 40.958,104.986 42.931,104.466 45.261 C 104.062 47.074,103.915 145.472,104.308 150.574 C 104.685 155.457,105.920 156.492,111.366 156.492 C 115.536 156.492,117.555 155.976,119.774 154.342 C 122.508 152.330,122.346 156.051,122.272 96.811 L 122.210 46.811 121.477 45.265 C 119.538 41.171,116.471 39.332,111.403 39.222 L 108.087 39.150 107.124 39.976 M129.661 39.714 C 128.151 40.828,127.133 42.758,126.553 45.605 C 126.147 47.603,126.017 144.172,126.413 149.965 C 126.784 155.400,127.767 156.339,133.195 156.452 C 137.654 156.544,139.588 156.055,141.784 154.281 C 144.358 152.202,144.209 155.843,144.138 96.799 L 144.077 46.787 143.238 45.088 C 142.128 42.844,140.267 40.958,138.161 39.944 C 136.015 38.911,130.935 38.774,129.661 39.714 M262.434 40.209 C 259.522 42.933,259.429 43.702,259.505 64.371 L 259.567 81.468 260.253 82.809 C 260.712 83.706,261.266 84.380,261.924 84.843 L 262.909 85.535 280.373 85.603 C 292.392 85.650,298.262 85.593,299.203 85.421 C 303.829 84.571,305.832 82.727,305.737 79.403 C 305.532 72.200,304.166 60.719,303.180 57.898 C 302.946 57.230,302.587 55.539,302.382 54.139 C 301.039 44.980,300.435 43.794,296.431 42.464 C 295.348 42.104,294.043 41.490,293.530 41.100 C 291.198 39.328,289.789 39.180,275.189 39.180 L 263.534 39.180 262.434 40.209 M160.738 40.168 L 158.264 40.661 157.076 41.938 C 156.281 42.794,155.706 43.697,155.336 44.672 L 154.784 46.128 154.784 63.895 L 154.784 81.663 155.490 82.916 C 157.319 86.158,157.718 86.219,177.107 86.217 C 194.043 86.214,193.405 86.336,195.033 82.802 L 195.558 81.663 195.627 64.579 C 195.709 44.115,195.734 44.334,192.993 41.279 L 191.913 40.076 189.522 39.863 C 184.299 39.400,163.489 39.620,160.738 40.168 M212.681 40.196 C 210.246 41.491,207.831 43.887,206.715 46.115 L 206.150 47.242 206.150 63.835 C 206.150 82.820,205.955 81.080,208.353 83.405 C 211.391 86.349,211.280 86.333,227.751 86.333 C 241.404 86.333,241.537 86.328,242.915 85.828 C 244.828 85.133,246.189 83.739,246.871 81.777 L 247.385 80.296 247.383 63.850 L 247.380 47.404 246.804 45.578 C 246.115 43.398,245.235 42.172,243.315 40.718 L 241.887 39.636 227.811 39.636 L 213.735 39.636 212.681 40.196 M86.524 41.086 C 87.688 41.732,89.345 43.651,90.107 45.234 L 90.888 46.859 90.888 63.811 C 90.888 79.183,90.853 80.817,90.513 81.327 C 89.756 82.462,88.470 83.652,87.422 84.188 L 86.348 84.738 66.775 84.738 L 47.202 84.738 46.069 83.720 C 43.248 81.184,43.649 74.832,46.887 70.774 C 47.678 69.782,48.417 67.920,49.419 64.393 C 50.276 61.379,50.727 60.471,52.139 58.912 C 52.743 58.245,53.989 56.392,54.909 54.795 C 56.116 52.698,56.867 51.660,57.610 51.059 C 58.176 50.602,59.771 49.098,61.154 47.717 C 63.966 44.907,64.632 44.549,69.818 43.060 C 71.196 42.664,72.938 42.041,73.690 41.676 C 75.205 40.940,75.677 40.893,82.232 40.828 C 84.946 40.801,86.139 40.873,86.524 41.086 M115.476 41.668 C 117.215 42.707,118.529 44.009,119.681 45.832 L 120.501 47.131 120.501 97.251 L 120.501 147.372 119.917 149.939 C 118.938 154.238,116.820 155.581,111.020 155.581 L 107.943 155.581 106.735 154.373 C 105.860 153.498,105.478 152.918,105.350 152.266 C 104.948 150.232,104.972 46.708,105.374 45.459 C 105.828 44.051,106.633 42.614,107.556 41.563 L 108.248 40.774 111.115 40.774 L 113.983 40.774 115.476 41.668 M137.485 41.586 C 139.299 42.674,140.405 43.778,141.476 45.571 L 142.369 47.065 142.363 97.394 L 142.358 147.722 141.819 150.189 C 140.926 154.278,139.228 155.405,133.757 155.542 C 128.868 155.665,127.796 154.779,127.351 150.245 C 126.905 145.693,127.020 47.301,127.474 45.770 C 128.009 43.965,128.629 42.835,129.684 41.743 L 130.619 40.774 133.375 40.774 C 136.129 40.774,136.133 40.775,137.485 41.586 M288.859 41.350 C 292.374 42.066,297.350 43.735,298.350 44.532 C 300.304 46.092,300.959 49.001,302.273 61.959 C 302.419 63.400,302.737 66.014,302.980 67.768 C 303.601 72.260,304.328 78.762,304.328 79.828 C 304.328 81.705,302.648 83.183,299.362 84.197 L 297.608 84.738 280.625 84.738 L 263.642 84.738 262.857 84.162 C 260.218 82.225,260.364 83.417,260.364 63.826 C 260.364 44.042,260.298 44.616,262.918 41.773 L 263.839 40.774 274.936 40.774 C 285.906 40.774,286.064 40.781,288.859 41.350 M192.370 42.597 C 192.823 43.035,193.520 44.058,193.920 44.870 L 194.647 46.345 194.703 63.662 L 194.760 80.979 194.000 82.346 C 193.530 83.190,192.870 83.974,192.274 84.395 L 191.309 85.077 177.716 85.159 C 159.262 85.272,158.044 85.082,156.307 81.823 L 155.581 80.460 155.581 63.929 C 155.581 45.259,155.498 46.173,157.404 43.762 L 158.283 42.649 160.634 42.178 C 162.877 41.729,163.636 41.710,177.265 41.753 L 191.547 41.800 192.370 42.597 M242.736 42.273 C 243.967 43.088,244.790 44.074,245.572 45.672 L 246.241 47.039 246.241 63.850 C 246.241 79.047,246.205 80.730,245.864 81.389 C 245.157 82.757,244.533 83.439,243.188 84.317 L 241.843 85.194 227.812 85.193 L 213.781 85.193 212.415 84.545 C 210.811 83.785,209.750 82.936,208.850 81.694 L 208.200 80.797 208.203 63.918 L 208.205 47.039 208.887 45.850 C 209.752 44.341,210.856 43.237,212.365 42.372 L 213.554 41.690 227.702 41.688 L 241.850 41.686 242.736 42.273 M67.540 150.359 C 64.913 150.941,63.759 151.401,62.984 152.177 C 62.608 152.553,61.173 153.533,59.795 154.355 C 55.048 157.188,54.220 158.978,54.220 166.401 C 54.221 174.455,57.008 178.421,63.907 180.185 C 64.829 180.421,65.828 180.774,66.128 180.971 C 66.427 181.167,67.287 181.568,68.037 181.862 C 69.554 182.457,69.549 182.458,71.754 181.089 C 72.318 180.739,73.599 180.226,74.601 179.949 C 77.396 179.177,80.182 177.450,80.182 176.490 C 80.182 176.377,80.840 175.627,81.644 174.822 C 83.817 172.650,84.126 171.712,84.234 166.961 C 84.391 160.031,82.235 156.129,76.783 153.474 C 75.959 153.073,74.812 152.410,74.235 152.001 C 71.858 150.316,69.901 149.835,67.540 150.359 M266.214 150.336 C 264.062 150.797,263.504 151.070,262.476 152.171 C 262.115 152.557,260.595 153.572,259.099 154.426 C 254.926 156.807,254.248 158.326,254.049 165.737 C 253.814 174.455,255.812 177.745,262.613 179.841 C 263.694 180.174,265.296 180.785,266.173 181.198 C 269.279 182.661,270.166 182.638,271.905 181.047 C 272.175 180.799,273.200 180.362,274.182 180.076 C 277.686 179.055,278.855 178.249,279.952 176.102 C 280.325 175.372,280.909 174.635,281.322 174.374 C 285.543 171.701,285.404 162.328,281.071 157.476 C 280.206 156.507,279.499 155.643,279.499 155.554 C 279.499 155.242,277.252 153.746,276.046 153.255 C 275.377 152.982,274.522 152.458,274.146 152.091 C 272.233 150.222,269.536 149.625,266.214 150.336 M271.826 152.449 C 273.112 153.106,274.730 153.880,275.423 154.167 C 277.011 154.826,278.792 156.373,279.738 157.917 C 280.141 158.574,280.781 159.467,281.160 159.902 C 284.075 163.239,283.988 169.648,280.985 172.866 C 280.445 173.445,279.634 174.550,279.182 175.322 C 277.958 177.415,276.464 178.476,273.794 179.150 C 272.985 179.354,271.692 179.726,270.921 179.977 L 269.519 180.433 266.593 179.826 C 261.169 178.701,257.745 176.707,256.270 173.815 C 254.049 169.461,254.355 160.746,256.844 157.483 C 257.690 156.374,263.455 153.037,265.831 152.281 C 266.896 151.942,268.024 151.580,268.337 151.477 C 269.269 151.169,269.392 151.203,271.826 152.449 M71.019 152.246 C 71.862 152.667,73.115 153.194,73.804 153.416 C 74.493 153.639,75.467 154.026,75.968 154.276 C 83.221 157.897,85.930 168.184,81.035 173.513 C 80.485 174.112,79.819 174.960,79.554 175.399 C 78.195 177.651,72.891 180.177,69.362 180.251 C 64.312 180.357,58.088 176.694,56.085 172.437 C 53.947 167.894,54.968 159.586,57.982 157.010 C 60.347 154.988,66.869 151.842,69.425 151.489 C 69.459 151.485,70.177 151.825,71.019 152.246 " stroke="none" fill="#b4cf89" fill-rule="evenodd"></path><path id="path3" d="M94.989 10.638 C 86.292 11.010,82.015 11.854,79.179 13.758 C 77.886 14.626,76.545 15.268,74.692 15.906 C 71.069 17.153,69.599 17.943,67.896 19.559 C 67.095 20.318,65.765 21.299,64.940 21.738 C 62.617 22.974,62.178 23.330,60.944 24.972 C 60.195 25.970,59.214 26.906,58.126 27.659 C 56.830 28.557,56.192 29.209,55.278 30.572 C 54.579 31.613,53.542 32.776,52.733 33.426 C 51.372 34.519,50.693 35.407,49.230 38.008 C 48.807 38.761,47.701 40.230,46.773 41.272 C 45.544 42.652,44.765 43.816,43.904 45.558 C 43.069 47.248,42.383 48.284,41.565 49.089 C 39.907 50.721,39.556 51.306,38.486 54.225 C 37.244 57.611,36.911 58.246,35.561 59.788 C 34.316 61.210,33.753 62.459,32.376 66.856 C 31.615 69.286,31.221 70.143,30.184 71.631 C 28.758 73.675,28.156 75.330,27.232 79.739 C 26.476 83.351,25.671 85.857,24.711 87.585 C 22.315 91.902,21.891 97.308,21.876 123.751 C 21.865 141.437,21.792 141.844,18.282 143.565 C 13.167 146.073,12.258 148.159,12.125 157.711 C 12.000 166.623,12.531 168.984,15.144 171.139 C 18.583 173.976,20.003 174.260,30.768 174.260 L 36.413 174.260 39.100 175.663 C 42.309 177.340,42.261 177.290,43.966 180.785 C 45.121 183.153,45.499 183.708,46.595 184.645 C 47.299 185.246,48.179 186.179,48.549 186.718 C 49.519 188.127,50.714 189.223,52.278 190.137 C 53.030 190.576,54.231 191.493,54.948 192.175 C 56.582 193.728,57.609 194.184,60.522 194.647 C 71.083 196.326,79.990 195.279,83.614 191.933 C 84.311 191.289,85.586 190.407,86.446 189.971 C 87.429 189.474,88.481 188.689,89.278 187.857 C 89.976 187.129,91.170 185.899,91.932 185.123 C 93.685 183.339,94.082 182.750,94.968 180.613 C 96.288 177.433,96.650 177.030,99.448 175.624 L 101.936 174.374 169.215 174.315 L 236.494 174.257 239.109 175.558 C 242.195 177.093,242.504 177.418,244.079 180.767 C 245.097 182.933,245.449 183.447,246.572 184.412 C 247.291 185.030,248.239 186.075,248.679 186.734 C 249.606 188.124,250.864 189.259,252.505 190.185 C 253.143 190.545,254.215 191.369,254.886 192.016 C 256.521 193.592,257.492 194.045,260.346 194.564 C 270.523 196.411,279.705 195.335,283.259 191.878 C 284.012 191.146,285.344 190.169,286.220 189.707 C 287.903 188.821,288.999 187.811,290.168 186.071 C 290.559 185.488,291.378 184.645,291.989 184.197 C 293.325 183.216,294.085 182.115,294.979 179.864 C 296.302 176.535,297.327 175.364,299.772 174.391 C 302.445 173.327,301.932 173.354,319.670 173.351 L 336.492 173.349 338.918 172.648 C 344.234 171.112,344.436 170.628,344.585 159.114 C 344.737 147.272,344.537 146.320,341.464 144.292 C 339.049 142.698,338.547 142.050,338.108 139.962 C 337.762 138.315,337.717 133.356,337.600 83.941 L 337.472 29.727 336.832 27.677 C 336.481 26.549,335.800 24.755,335.319 23.690 C 334.838 22.625,334.225 21.076,333.957 20.248 C 333.357 18.395,332.359 17.190,330.211 15.725 C 329.318 15.115,328.038 14.048,327.366 13.354 C 325.941 11.881,325.173 11.552,321.868 11.001 C 319.698 10.640,103.051 10.293,94.989 10.638 M322.540 12.257 C 325.063 12.851,325.458 13.076,327.057 14.828 C 327.778 15.618,328.756 16.389,329.498 16.752 C 331.359 17.662,332.411 18.934,332.892 20.851 C 333.111 21.724,333.524 23.052,333.809 23.804 C 334.095 24.556,334.652 26.503,335.048 28.132 L 335.767 31.093 335.762 83.371 L 335.757 135.649 336.370 138.819 L 336.983 141.988 338.253 143.314 C 338.951 144.043,340.126 144.975,340.866 145.384 C 343.380 146.775,343.737 148.385,343.734 158.297 C 343.730 168.356,343.249 169.758,339.286 171.245 L 337.016 172.096 319.134 172.210 L 301.253 172.324 299.317 172.972 C 296.408 173.946,295.527 174.960,294.051 179.036 C 293.167 181.478,292.631 182.199,290.407 183.941 C 290.087 184.191,289.407 185.018,288.896 185.777 C 287.824 187.373,286.907 188.135,285.090 188.938 C 284.288 189.293,283.212 190.072,282.270 190.982 C 280.587 192.607,280.381 192.710,277.107 193.569 C 272.349 194.817,260.094 194.202,257.599 192.590 C 257.143 192.295,256.331 191.586,255.794 191.013 C 255.258 190.441,254.274 189.706,253.609 189.380 C 252.033 188.609,250.533 187.272,249.443 185.667 C 248.961 184.958,248.161 184.096,247.664 183.752 C 246.500 182.945,245.423 181.433,244.873 179.836 C 243.526 175.920,241.539 174.174,237.130 173.030 C 235.754 172.673,230.900 172.650,168.793 172.712 L 101.936 172.779 100.228 173.410 C 96.721 174.706,95.514 175.894,94.300 179.246 C 93.464 181.552,93.083 182.134,91.139 184.072 C 90.312 184.897,89.139 186.152,88.533 186.862 C 87.692 187.847,87.028 188.345,85.737 188.957 C 84.678 189.460,83.453 190.304,82.461 191.213 L 80.878 192.666 77.854 193.416 C 73.793 194.422,65.883 194.526,61.048 193.635 C 57.961 193.067,57.598 192.892,55.571 190.991 C 54.876 190.339,53.851 189.574,53.293 189.289 C 51.765 188.511,50.931 187.805,49.855 186.375 C 49.319 185.663,48.156 184.362,47.271 183.485 C 45.576 181.806,45.400 181.537,44.637 179.445 C 43.584 176.557,41.808 174.811,38.610 173.521 L 36.788 172.785 28.132 172.668 L 19.476 172.551 18.451 171.948 C 16.608 170.863,15.295 169.538,15.027 168.493 C 14.893 167.969,14.532 166.796,14.225 165.886 C 13.380 163.381,13.367 153.121,14.207 151.054 C 14.504 150.324,14.878 149.214,15.038 148.589 C 15.455 146.965,16.469 145.948,19.191 144.425 C 22.951 142.322,22.811 143.266,23.009 118.679 C 23.196 95.479,23.356 93.606,25.495 89.684 C 26.624 87.614,27.143 85.955,28.007 81.663 C 28.973 76.865,29.612 74.946,30.742 73.449 C 32.127 71.615,32.706 70.326,33.615 67.051 C 34.671 63.248,35.135 62.239,36.498 60.788 C 37.879 59.317,38.282 58.543,39.394 55.225 C 40.416 52.175,40.645 51.778,42.353 50.114 C 43.195 49.293,43.894 48.321,44.379 47.295 C 45.286 45.377,46.207 44.002,47.656 42.400 C 49.134 40.766,49.972 39.518,51.029 37.378 C 51.547 36.329,52.206 35.367,52.625 35.050 C 54.279 33.798,55.654 32.412,56.088 31.562 C 56.846 30.076,57.458 29.375,58.542 28.749 C 60.268 27.753,60.998 27.115,61.815 25.891 C 62.819 24.387,63.640 23.653,64.920 23.115 C 66.452 22.470,67.541 21.748,69.002 20.404 C 71.018 18.551,72.714 17.697,76.880 16.437 C 77.758 16.172,79.379 15.437,80.484 14.804 C 83.660 12.983,87.071 12.145,92.825 11.772 C 93.451 11.731,144.909 11.709,207.175 11.724 L 320.387 11.750 322.540 12.257 M76.765 40.938 C 75.444 40.995,74.748 41.162,73.690 41.676 C 72.938 42.041,71.196 42.664,69.818 43.060 C 64.632 44.549,63.966 44.907,61.154 47.717 C 59.771 49.098,58.176 50.602,57.610 51.059 C 56.867 51.660,56.116 52.698,54.909 54.795 C 53.989 56.392,52.743 58.245,52.139 58.912 C 50.727 60.471,50.276 61.379,49.419 64.393 C 48.417 67.920,47.678 69.782,46.887 70.774 C 43.649 74.832,43.248 81.184,46.069 83.720 L 47.202 84.738 66.775 84.738 L 86.348 84.738 87.422 84.188 C 88.470 83.652,89.756 82.462,90.513 81.327 C 90.853 80.817,90.888 79.183,90.888 63.811 L 90.888 46.859 90.107 45.234 C 89.345 43.651,87.688 41.732,86.524 41.086 C 86.009 40.801,81.545 40.733,76.765 40.938 M107.556 41.563 C 106.633 42.614,105.828 44.051,105.374 45.459 C 104.972 46.708,104.948 150.232,105.350 152.266 C 105.478 152.918,105.860 153.498,106.735 154.373 L 107.943 155.581 111.020 155.581 C 116.820 155.581,118.938 154.238,119.917 149.939 L 120.501 147.372 120.501 97.251 L 120.501 47.131 119.681 45.832 C 118.529 44.009,117.215 42.707,115.476 41.668 L 113.983 40.774 111.115 40.774 L 108.248 40.774 107.556 41.563 M129.684 41.743 C 128.629 42.835,128.009 43.965,127.474 45.770 C 127.020 47.301,126.905 145.693,127.351 150.245 C 127.796 154.779,128.868 155.665,133.757 155.542 C 139.228 155.405,140.926 154.278,141.819 150.189 L 142.358 147.722 142.363 97.394 L 142.369 47.065 141.476 45.571 C 139.383 42.068,137.199 40.774,133.375 40.774 L 130.619 40.774 129.684 41.743 M262.918 41.773 C 260.298 44.616,260.364 44.042,260.364 63.826 C 260.364 83.417,260.218 82.225,262.857 84.162 L 263.642 84.738 280.625 84.738 L 297.608 84.738 299.362 84.197 C 302.648 83.183,304.328 81.705,304.328 79.828 C 304.328 78.762,303.601 72.260,302.980 67.768 C 302.737 66.014,302.419 63.400,302.273 61.959 C 300.603 45.484,300.356 44.868,294.642 42.929 C 288.614 40.884,287.617 40.774,274.936 40.774 L 263.839 40.774 262.918 41.773 M160.634 42.178 L 158.283 42.649 157.404 43.762 C 155.498 46.173,155.581 45.259,155.581 63.929 L 155.581 80.460 156.307 81.823 C 158.044 85.082,159.262 85.272,177.716 85.159 L 191.309 85.077 192.274 84.395 C 192.870 83.974,193.530 83.190,194.000 82.346 L 194.760 80.979 194.703 63.662 L 194.647 46.345 193.920 44.870 C 193.520 44.058,192.823 43.035,192.370 42.597 L 191.547 41.800 177.265 41.753 C 163.636 41.710,162.877 41.729,160.634 42.178 M212.365 42.372 C 210.856 43.237,209.752 44.341,208.887 45.850 L 208.205 47.039 208.203 63.918 L 208.200 80.797 208.850 81.694 C 209.750 82.936,210.811 83.785,212.415 84.545 L 213.781 85.193 227.812 85.193 L 241.843 85.194 243.188 84.317 C 244.533 83.439,245.157 82.757,245.864 81.389 C 246.205 80.730,246.241 79.047,246.241 63.850 L 246.241 47.039 245.572 45.672 C 244.790 44.074,243.967 43.088,242.736 42.273 L 241.850 41.686 227.702 41.688 L 213.554 41.690 212.365 42.372 M87.413 44.037 C 89.701 46.456,89.522 44.767,89.522 63.891 L 89.522 80.648 88.583 81.666 C 86.582 83.837,88.753 83.649,66.715 83.562 L 47.329 83.485 46.328 82.379 C 45.017 80.931,44.975 80.673,45.552 77.658 C 46.071 74.944,46.478 73.937,47.714 72.319 C 48.669 71.067,49.291 69.447,50.160 65.945 C 50.925 62.861,51.516 61.619,52.988 60.004 C 53.878 59.027,54.567 57.960,57.258 53.391 C 57.576 52.852,58.553 51.895,59.559 51.138 C 60.521 50.413,61.882 49.112,62.582 48.245 C 63.283 47.378,64.224 46.481,64.673 46.252 C 66.395 45.374,68.537 44.606,70.729 44.080 C 71.982 43.780,73.417 43.382,73.918 43.196 C 74.630 42.931,76.078 42.853,80.548 42.841 L 86.266 42.825 87.413 44.037 M115.517 43.907 C 116.299 44.502,117.279 45.487,117.695 46.095 L 118.451 47.202 118.451 97.245 L 118.451 147.287 117.864 149.555 C 116.779 153.745,115.844 154.425,111.151 154.436 L 108.293 154.442 107.473 153.588 C 105.861 151.908,105.923 154.160,105.923 97.289 L 105.923 46.938 106.500 45.633 C 106.817 44.916,107.335 43.990,107.650 43.577 L 108.224 42.825 111.160 42.825 L 114.097 42.825 115.517 43.907 M137.692 43.907 C 138.427 44.502,139.370 45.487,139.788 46.095 L 140.547 47.202 140.545 97.234 L 140.543 147.267 139.947 149.544 C 139.620 150.797,139.304 152.037,139.246 152.299 C 138.973 153.532,136.842 154.322,133.568 154.402 L 130.555 154.477 129.720 153.711 C 127.976 152.113,128.041 154.271,128.029 97.326 C 128.017 41.340,127.857 46.699,129.617 43.956 L 130.344 42.825 133.349 42.825 L 136.355 42.825 137.692 43.907 M288.887 43.081 C 292.274 43.452,297.153 44.903,298.100 45.821 C 299.063 46.754,299.192 47.154,299.746 50.911 C 300.212 54.067,300.367 55.711,301.036 64.579 C 301.564 71.565,301.810 74.105,302.285 77.449 L 302.722 80.524 301.987 81.177 C 301.583 81.537,300.484 82.203,299.544 82.658 L 297.836 83.485 280.907 83.546 C 261.655 83.616,263.419 83.796,261.976 81.617 L 261.267 80.547 261.328 63.679 L 261.390 46.811 262.036 45.495 C 262.391 44.772,262.938 43.875,263.252 43.502 L 263.822 42.825 275.183 42.825 C 282.073 42.825,287.466 42.926,288.887 43.081 M189.342 43.528 C 191.985 43.808,192.017 43.829,193.175 46.064 L 193.850 47.367 193.850 63.958 L 193.850 80.549 193.201 81.561 C 191.776 83.784,191.584 83.808,175.280 83.819 L 163.658 83.827 160.978 83.173 C 159.504 82.813,158.268 82.480,158.231 82.433 C 158.195 82.385,157.891 81.978,157.556 81.527 L 156.948 80.709 156.948 63.922 C 156.948 43.595,156.606 45.301,160.934 43.994 L 163.212 43.306 175.105 43.293 C 182.192 43.285,187.945 43.380,189.342 43.528 M242.855 44.362 C 245.070 46.669,244.875 44.770,244.875 64.000 L 244.875 80.908 243.415 82.367 L 241.956 83.827 227.847 83.827 L 213.738 83.827 212.366 82.940 C 211.612 82.453,210.725 81.700,210.395 81.267 L 209.795 80.481 209.795 63.867 C 209.795 48.803,209.830 47.201,210.171 46.691 C 210.771 45.792,211.887 44.644,212.847 43.935 L 213.736 43.280 227.776 43.280 L 241.817 43.280 242.855 44.362 M268.337 151.477 C 268.024 151.580,266.896 151.942,265.831 152.281 C 263.455 153.037,257.690 156.374,256.844 157.483 C 254.355 160.746,254.049 169.461,256.270 173.815 C 257.745 176.707,261.169 178.701,266.593 179.826 L 269.519 180.433 270.921 179.977 C 271.692 179.726,272.985 179.354,273.794 179.150 C 276.464 178.476,277.958 177.415,279.182 175.322 C 279.634 174.550,280.445 173.445,280.985 172.866 C 283.988 169.648,284.075 163.239,281.160 159.902 C 280.781 159.467,280.141 158.574,279.738 157.917 C 278.792 156.373,277.011 154.826,275.423 154.167 C 274.730 153.880,273.112 153.106,271.826 152.449 C 269.392 151.203,269.269 151.169,268.337 151.477 M66.354 152.508 C 57.413 155.508,54.629 159.197,55.094 167.426 C 55.479 174.234,58.947 178.092,66.079 179.645 C 69.541 180.399,69.183 180.409,72.802 179.454 C 76.649 178.439,78.329 177.430,79.554 175.399 C 79.819 174.960,80.485 174.112,81.035 173.513 C 85.341 168.825,83.730 159.600,77.878 155.441 C 76.600 154.532,75.377 153.924,73.804 153.416 C 73.115 153.194,71.862 152.667,71.019 152.246 C 70.177 151.825,69.459 151.485,69.425 151.489 C 69.390 151.494,68.008 151.952,66.354 152.508 M270.696 153.742 C 271.466 154.109,272.762 154.589,273.576 154.809 C 275.893 155.434,277.737 156.887,278.748 158.884 C 279.065 159.510,279.652 160.433,280.052 160.934 C 281.719 163.025,281.777 163.210,281.777 166.507 C 281.777 169.841,281.769 169.864,279.926 171.906 C 279.455 172.428,278.761 173.465,278.385 174.211 C 277.591 175.783,275.936 177.352,274.739 177.666 C 266.162 179.916,259.805 177.913,256.894 172.043 L 255.923 170.083 255.849 166.851 C 255.772 163.449,256.373 160.665,257.631 158.596 C 258.431 157.281,263.183 154.717,266.243 153.950 C 267.696 153.585,268.932 153.239,268.990 153.181 C 269.156 153.016,269.211 153.034,270.696 153.742 M70.475 153.876 C 70.930 154.067,72.128 154.419,73.137 154.660 C 75.737 155.281,77.416 156.378,78.929 158.443 C 79.290 158.936,79.969 159.852,80.437 160.478 C 83.159 164.119,83.050 169.157,80.182 172.323 C 79.564 173.006,78.855 173.964,78.605 174.454 C 77.805 176.021,75.304 177.897,73.997 177.909 C 73.703 177.912,72.566 178.112,71.471 178.355 C 60.648 180.748,52.423 169.961,57.472 159.997 C 58.682 157.609,62.419 155.119,66.009 154.309 C 67.352 154.006,68.554 153.715,68.679 153.662 C 69.130 153.473,69.663 153.537,70.475 153.876 " stroke="none" fill="#c4d8a0" fill-rule="evenodd"></path><path id="path4" d="M93.964 12.550 C 88.474 12.871,85.697 13.445,84.215 14.564 C 82.649 15.746,79.542 17.014,76.879 17.556 C 74.416 18.058,71.962 19.177,71.460 20.026 C 70.885 21.000,67.602 23.212,65.546 24.012 C 63.726 24.720,63.648 24.782,63.036 25.982 C 62.204 27.617,61.219 28.567,59.440 29.454 C 58.058 30.143,57.933 30.275,57.154 31.844 C 56.158 33.852,55.448 34.628,53.839 35.467 C 53.167 35.818,52.555 36.310,52.481 36.560 C 51.763 38.967,49.131 43.297,47.968 43.983 C 47.039 44.531,45.724 46.465,45.128 48.159 C 44.523 49.881,43.886 50.707,42.459 51.620 C 41.446 52.268,41.206 52.554,40.997 53.362 C 39.761 58.137,38.697 60.638,37.454 61.690 C 35.730 63.149,35.540 63.374,35.338 64.201 C 33.250 72.766,33.187 72.941,31.504 74.740 C 30.213 76.120,29.309 78.802,28.786 82.802 C 28.258 86.846,27.550 89.333,26.103 92.233 C 24.038 96.372,24.097 95.659,23.901 118.907 C 23.802 130.756,23.640 139.346,23.501 140.091 C 23.373 140.780,23.260 141.506,23.251 141.704 C 23.206 142.693,21.828 144.175,20.194 144.993 C 17.362 146.412,16.942 146.906,16.425 149.431 C 16.181 150.621,15.870 151.883,15.735 152.236 C 15.411 153.082,15.406 163.394,15.730 164.466 C 15.862 164.904,16.160 166.218,16.393 167.386 C 16.674 168.802,16.955 169.620,17.234 169.840 C 17.465 170.022,18.082 170.475,18.606 170.848 L 19.558 171.526 27.973 171.526 C 38.924 171.526,40.787 171.895,43.170 174.535 C 44.406 175.903,45.196 177.446,45.597 179.271 C 45.978 181.009,46.754 182.093,48.205 182.911 C 49.154 183.447,49.576 183.872,50.059 184.776 C 51.037 186.610,52.024 187.590,53.478 188.173 C 55.412 188.948,56.395 189.672,57.185 190.904 C 57.984 192.149,57.791 192.060,61.162 192.747 C 63.364 193.196,64.357 193.258,69.362 193.258 L 75.057 193.257 77.750 192.498 C 80.316 191.774,80.469 191.697,80.999 190.857 C 81.758 189.654,83.049 188.771,84.932 188.166 C 86.698 187.598,87.639 186.794,88.594 185.034 C 88.932 184.412,89.603 183.663,90.180 183.265 C 92.206 181.864,92.794 181.099,93.225 179.305 C 94.347 174.632,96.071 172.875,100.405 171.992 C 103.855 171.289,235.102 171.263,238.269 171.965 C 242.679 172.942,244.571 174.805,245.689 179.271 C 246.093 180.882,246.898 182.147,247.719 182.459 C 248.613 182.799,249.891 184.080,250.464 185.210 C 251.222 186.705,252.427 187.768,253.950 188.283 C 255.198 188.705,256.913 190.131,257.859 191.534 C 258.586 192.612,262.794 193.241,269.362 193.253 L 275.057 193.263 277.528 192.488 C 279.818 191.770,280.055 191.641,280.758 190.720 C 281.896 189.230,284.271 187.708,285.470 187.702 C 286.087 187.698,287.491 186.325,287.934 185.292 C 288.495 183.983,289.691 182.688,290.789 182.203 C 292.137 181.606,292.437 181.159,293.066 178.809 C 295.112 171.164,294.656 171.297,318.837 171.298 L 335.966 171.298 338.503 170.405 C 341.657 169.294,341.979 168.856,342.831 164.524 C 343.550 160.869,342.675 147.412,341.686 146.913 C 341.498 146.819,340.665 146.424,339.835 146.036 C 337.483 144.936,335.307 142.322,334.559 139.699 L 334.055 137.927 333.941 83.713 C 333.878 53.895,333.758 29.393,333.674 29.265 C 333.590 29.136,333.402 28.162,333.257 27.101 C 333.112 26.039,332.757 24.351,332.469 23.349 C 332.180 22.346,331.870 21.065,331.780 20.501 C 331.621 19.508,330.728 18.223,330.197 18.223 C 328.988 18.222,326.072 16.098,325.350 14.692 C 325.157 14.317,324.973 13.978,324.941 13.941 C 324.909 13.904,323.666 13.547,322.179 13.149 L 319.476 12.426 208.314 12.395 C 147.175 12.378,95.718 12.448,93.964 12.550 M87.291 39.660 C 88.802 40.431,90.283 42.125,90.985 43.887 C 91.327 44.743,91.803 45.823,92.045 46.287 C 92.716 47.576,92.730 80.260,92.060 81.120 C 91.827 81.418,91.468 81.991,91.262 82.393 C 90.670 83.548,89.340 84.688,88.003 85.188 C 86.801 85.638,86.291 85.649,66.779 85.649 L 46.786 85.649 45.741 84.986 C 44.927 84.470,44.531 83.990,43.954 82.816 L 43.211 81.309 43.364 78.524 C 43.629 73.691,44.342 71.396,46.335 68.961 C 47.480 67.563,48.168 65.871,48.975 62.474 C 49.613 59.786,50.320 58.546,52.385 56.490 C 52.953 55.925,53.867 54.592,54.418 53.528 C 55.778 50.901,56.338 50.201,57.588 49.561 C 58.812 48.936,59.856 47.917,60.894 46.335 C 62.054 44.566,63.278 43.932,68.223 42.533 C 70.025 42.024,70.987 41.617,71.649 41.083 C 73.867 39.297,74.404 39.185,80.704 39.182 C 85.999 39.180,86.409 39.210,87.291 39.660 M116.428 40.139 C 118.586 41.207,120.453 43.102,121.477 45.265 L 122.210 46.811 122.272 96.811 C 122.346 156.051,122.508 152.330,119.774 154.342 C 117.555 155.976,115.536 156.492,111.366 156.492 C 105.920 156.492,104.685 155.457,104.308 150.574 C 103.915 145.472,104.062 47.074,104.466 45.261 C 104.986 42.931,105.978 40.958,107.124 39.976 L 108.087 39.150 111.403 39.222 C 114.709 39.294,114.725 39.297,116.428 40.139 M138.161 39.944 C 140.267 40.958,142.128 42.844,143.238 45.088 L 144.077 46.787 144.138 96.799 C 144.209 155.843,144.358 152.202,141.784 154.281 C 139.588 156.055,137.654 156.544,133.195 156.452 C 127.767 156.339,126.784 155.400,126.413 149.965 C 126.017 144.172,126.147 47.603,126.553 45.605 C 127.133 42.758,128.151 40.828,129.661 39.714 C 130.935 38.774,136.015 38.911,138.161 39.944 M289.253 39.538 C 291.843 39.922,292.107 40.019,293.530 41.100 C 294.043 41.490,295.348 42.104,296.431 42.464 C 300.435 43.794,301.039 44.980,302.382 54.139 C 302.587 55.539,302.946 57.230,303.180 57.898 C 304.166 60.719,305.532 72.200,305.737 79.403 C 305.832 82.727,303.829 84.571,299.203 85.421 C 298.262 85.593,292.392 85.650,280.373 85.603 L 262.909 85.535 261.924 84.843 C 261.266 84.380,260.712 83.706,260.253 82.809 L 259.567 81.468 259.505 64.371 C 259.429 43.702,259.522 42.933,262.434 40.209 L 263.534 39.180 275.189 39.180 C 284.606 39.180,287.306 39.249,289.253 39.538 M189.522 39.863 L 191.913 40.076 192.993 41.279 C 195.734 44.334,195.709 44.115,195.627 64.579 L 195.558 81.663 195.033 82.802 C 193.405 86.336,194.043 86.214,177.107 86.217 C 157.718 86.219,157.319 86.158,155.490 82.916 L 154.784 81.663 154.784 63.895 L 154.784 46.128 155.336 44.672 C 155.706 43.697,156.281 42.794,157.076 41.938 L 158.264 40.661 160.738 40.168 C 163.489 39.620,184.299 39.400,189.522 39.863 M243.315 40.718 C 245.235 42.172,246.115 43.398,246.804 45.578 L 247.380 47.404 247.383 63.850 L 247.385 80.296 246.871 81.777 C 246.189 83.739,244.828 85.133,242.915 85.828 C 241.537 86.328,241.404 86.333,227.751 86.333 C 211.280 86.333,211.391 86.349,208.353 83.405 C 205.955 81.080,206.150 82.820,206.150 63.835 L 206.150 47.242 206.715 46.115 C 207.831 43.887,210.246 41.491,212.681 40.196 L 213.735 39.636 227.811 39.636 L 241.887 39.636 243.315 40.718 M72.413 150.936 C 72.838 151.113,73.658 151.592,74.235 152.001 C 74.812 152.410,75.959 153.073,76.783 153.474 C 82.235 156.129,84.391 160.031,84.234 166.961 C 84.126 171.712,83.817 172.650,81.644 174.822 C 80.840 175.627,80.182 176.377,80.182 176.490 C 80.182 177.450,77.396 179.177,74.601 179.949 C 73.599 180.226,72.318 180.739,71.754 181.089 C 69.549 182.458,69.554 182.457,68.037 181.862 C 67.287 181.568,66.427 181.167,66.128 180.971 C 65.828 180.774,64.829 180.421,63.907 180.185 C 57.008 178.421,54.221 174.455,54.220 166.401 C 54.220 158.978,55.048 157.188,59.795 154.355 C 61.173 153.533,62.608 152.553,62.984 152.177 C 64.932 150.228,69.314 149.652,72.413 150.936 M271.995 150.727 C 272.802 151.109,273.770 151.723,274.146 152.091 C 274.522 152.458,275.377 152.982,276.046 153.255 C 277.252 153.746,279.499 155.242,279.499 155.554 C 279.499 155.643,280.206 156.507,281.071 157.476 C 285.404 162.328,285.543 171.701,281.322 174.374 C 280.909 174.635,280.325 175.372,279.952 176.102 C 278.855 178.249,277.686 179.055,274.182 180.076 C 273.200 180.362,272.175 180.799,271.905 181.047 C 270.166 182.638,269.279 182.661,266.173 181.198 C 265.296 180.785,263.694 180.174,262.613 179.841 C 255.812 177.745,253.814 174.455,254.049 165.737 C 254.248 158.326,254.926 156.807,259.099 154.426 C 260.595 153.572,262.115 152.557,262.476 152.171 C 264.484 150.022,269.051 149.329,271.995 150.727 " stroke="none" fill="#a4c46e" fill-rule="evenodd"></path></g></svg>