<svg id="Capa_1" data-name="Capa 1" xmlns="http://www.w3.org/2000/svg" viewBox="0 0 30 34.29"><title>Mesa de trabajo 10</title><path d="M9.91,19.29H7.23a.81.81,0,0,1-.8-.81V15.8a.8.8,0,0,1,.8-.8H9.91a.8.8,0,0,1,.8.8v2.68A.81.81,0,0,1,9.91,19.29Zm7.23-.81V15.8a.8.8,0,0,0-.8-.8H13.66a.8.8,0,0,0-.8.8v2.68a.81.81,0,0,0,.8.81h2.68A.81.81,0,0,0,17.14,18.48Zm6.43,0V15.8a.8.8,0,0,0-.8-.8H20.09a.8.8,0,0,0-.8.8v2.68a.81.81,0,0,0,.8.81h2.68A.81.81,0,0,0,23.57,18.48Zm-6.43,6.43V22.23a.8.8,0,0,0-.8-.8H13.66a.8.8,0,0,0-.8.8v2.68a.8.8,0,0,0,.8.8h2.68A.8.8,0,0,0,17.14,24.91Zm-6.43,0V22.23a.8.8,0,0,0-.8-.8H7.23a.8.8,0,0,0-.8.8v2.68a.8.8,0,0,0,.8.8H9.91A.8.8,0,0,0,10.71,24.91Zm12.86,0V22.23a.8.8,0,0,0-.8-.8H20.09a.8.8,0,0,0-.8.8v2.68a.8.8,0,0,0,.8.8h2.68A.8.8,0,0,0,23.57,24.91ZM30,7.5V31.07a3.22,3.22,0,0,1-3.21,3.22H3.21A3.22,3.22,0,0,1,0,31.07V7.5A3.21,3.21,0,0,1,3.21,4.29H6.43V.8a.8.8,0,0,1,.8-.8H9.91a.8.8,0,0,1,.8.8V4.29h8.58V.8a.8.8,0,0,1,.8-.8h2.68a.8.8,0,0,1,.8.8V4.29h3.22A3.21,3.21,0,0,1,30,7.5ZM26.79,30.67v-20H3.21v20a.41.41,0,0,0,.41.4H26.38A.41.41,0,0,0,26.79,30.67Z"/></svg>