<?xml version="1.0" encoding="utf-8"?>
<!-- Generator: Adobe Illustrator 22.0.0, SVG Export Plug-In . SVG Version: 6.00 Build 0)  -->
<svg version="1.1" id="Capa_1" xmlns="http://www.w3.org/2000/svg" xmlns:xlink="http://www.w3.org/1999/xlink" x="0px" y="0px"
	 viewBox="0 0 60 60" style="enable-background:new 0 0 60 60;" xml:space="preserve">
<style type="text/css">
	.st0{fill:#fff;}
</style>
<g>
	<path class="st0" d="M43.3,29.3c-0.2,0-0.4,0-0.6,0.1L40.4,30L38,24.2c-0.7-1.6-2.7-3-4.4-3H11.5c-1.8,0-3.7,1.3-4.4,3L4.7,30
		l-2.2-0.6c-0.2-0.1-0.4-0.1-0.6-0.1c-1.1,0-1.9,0.8-1.9,2v1.3C0,33.9,1.1,35,2.4,35h0.3l-0.4,0.9c-0.6,1.5-1.1,4.1-1.1,5.7v11.4
		c0,1.3,1.1,2.4,2.4,2.4h3.1c1.3,0,2.4-1.1,2.4-2.4v-2.9H36v2.9c0,1.3,1.1,2.4,2.4,2.4h3.1c1.3,0,2.4-1.1,2.4-2.4V41.6
		c0-1.6-0.5-4.2-1.1-5.7L42.4,35h0.3c1.3,0,2.4-1.1,2.4-2.4v-1.3C45.1,30.1,44.3,29.3,43.3,29.3z M6.4,33.7L10,25
		c0.4-1,1.6-1.8,2.6-1.8h19.8c1.1,0,2.2,0.8,2.6,1.8l3.6,8.7c0.4,1-0.1,1.8-1.2,1.8H7.6C6.6,35.5,6,34.7,6.4,33.7z M14.4,44.7
		c0,0.5-0.4,1-1,1H6.7c-0.5,0-1-0.4-1-1v-3.3c0-0.5,0.4-1,1-1h6.8c0.5,0,1,0.4,1,1V44.7z M39.3,44.7c0,0.5-0.4,1-1,1h-6.8
		c-0.5,0-1-0.4-1-1v-3.3c0-0.5,0.4-1,1-1h6.8c0.5,0,1,0.4,1,1V44.7z"/>
	<g>
		<path class="st0" d="M58.5,11.2c-0.2,0-0.3,0-0.5,0.1l-1.9,0.5l-2-4.8c-0.6-1.4-2.2-2.5-3.7-2.5H32.1c-1.5,0-3.1,1.1-3.7,2.5
			l-2,4.8l-1.9-0.5c-0.2,0-0.3-0.1-0.5-0.1c-0.9,0-1.5,0.7-1.5,1.6v1.1c0,1.1,0.9,2,2,2h0.2l-0.3,0.8c-0.4,0.9-0.7,2.4-0.9,3.6h10
			c2.2,0,4.5,1.6,5.3,3.6l1.9,4.7h1l0.5-0.1c0.7-0.2,1.4-0.1,2,0.1h8v2.4c0,1.1,0.9,2,2,2H57c1.1,0,2-0.9,2-2v-9.5
			c0-1.4-0.4-3.5-0.9-4.7l-0.3-0.8H58c1.1,0,2-0.9,2-2v-1.1C60,11.9,59.4,11.2,58.5,11.2z M28.9,16.3c-0.9,0-1.3-0.7-1-1.5l3-7.2
			c0.3-0.8,1.3-1.5,2.2-1.5h16.4c0.9,0,1.9,0.7,2.2,1.5l3,7.2c0.3,0.8-0.1,1.5-1,1.5H28.9z M55.2,24c0,0.4-0.4,0.8-0.8,0.8h-5.6
			c-0.4,0-0.8-0.4-0.8-0.8v-2.7c0-0.4,0.4-0.8,0.8-0.8h5.6c0.4,0,0.8,0.4,0.8,0.8V24z"/>
	</g>
</g>
</svg>
