<?xml version="1.0" encoding="utf-8"?>
<!-- Generator: Adobe Illustrator 22.0.0, SVG Export Plug-In . SVG Version: 6.00 Build 0)  -->
<svg version="1.1" id="Capa_1" xmlns="http://www.w3.org/2000/svg" xmlns:xlink="http://www.w3.org/1999/xlink" x="0px" y="0px"
	 viewBox="0 0 924 174" enable-background="new 0 0 924 174" xml:space="preserve">
<g>
	<g>
		<circle fill="#DD4D3D" cx="307.4" cy="130.1" r="19.9"/>
		<circle fill="#DD4D3D" cx="315.7" cy="85.4" r="14.9"/>
		<circle fill="#F2D043" cx="246.2" cy="105.3" r="14.9"/>
		<circle fill="#9DD14C" cx="183.3" cy="88.8" r="13.2"/>
		<circle fill="#6FC3EF" cx="118.7" cy="93.7" r="9.9"/>
		<circle fill="#4071BA" cx="64.1" cy="108.6" r="8.3"/>
		<circle fill="#4071BA" cx="107.1" cy="68.9" r="6.6"/>
		<circle fill="#4071BA" cx="148.5" cy="27.5" r="5"/>
		<circle fill="#355D90" cx="17.7" cy="131.8" r="6.6"/>
		<circle fill="#355D90" cx="65.7" cy="87.1" r="5"/>
		<circle fill="#355D90" cx="113.7" cy="42.4" r="3.3"/>
		<circle fill="#6FC3EF" cx="155.1" cy="54" r="8.3"/>
		<circle fill="#6FC3EF" cx="189.9" cy="15.9" r="6.6"/>
		<circle fill="#9DD14C" cx="211.4" cy="51" r="9.9"/>
		<circle fill="#9DD14C" cx="237.9" cy="14.3" r="8.3"/>
		<circle fill="#F2D043" cx="266" cy="62.3" r="13.2"/>
		<circle fill="#F2D043" cx="284.2" cy="24.2" r="9.9"/>
		<circle fill="#DD4D3D" cx="323.9" cy="44.1" r="9.9"/>
	</g>
	<g>
		<path fill="#355D90" d="M440.3,36.7c-12.1,0-20.3,4.3-20.3,13c0,29.3,84.9,13,84.6,70.3c0,31.2-27.1,48-62.3,48
			c-26.2,0-52.3-10-70.3-25.3l14.3-29.4c16.4,14.6,39.6,23.9,56.4,23.9c14.8,0,23.7-5.5,23.7-15.2c0-30-84.9-12.5-84.9-68.9
			c0-28.9,24.8-47.1,61.7-47.1c22.3,0,44.6,6.8,60.5,17.3l-13.9,29.8C473.1,43.1,453.1,36.7,440.3,36.7z"/>
		<path fill="#355D90" d="M583,7.6v159.3h-36V7.6H583z"/>
		<path fill="#355D90" d="M752.7,7.6v30.5H704v128.8h-36V38.1h-48.5V7.6H752.7z"/>
		<path fill="#355D90" d="M910.4,7.6v29.8h-85.3V72h76.7v29.8h-76.7v35.3h87.8v29.8H789.1V7.6H910.4z"/>
	</g>
</g>
</svg>
