<?xml version="1.0" encoding="UTF-8" standalone="no"?>
<!DOCTYPE svg PUBLIC "-//W3C//DTD SVG 1.1//EN" "http://www.w3.org/Graphics/SVG/1.1/DTD/svg11.dtd">
<svg version="1.1" xmlns="http://www.w3.org/2000/svg" xmlns:xlink="http://www.w3.org/1999/xlink" preserveAspectRatio="xMidYMid meet" viewBox="0 0 640 640" width="640" height="640"><defs><path d="M231.06 451.18C231.06 429.17 231.06 319.1 231.06 120.99C227.37 120.99 225.32 120.99 224.91 120.99C215.68 120.99 207.99 114.19 207.99 106.04C207.99 105.63 207.99 102.37 207.99 101.96C207.99 93.81 215.68 87.02 224.91 87.02C225.52 87.02 230.44 87.02 231.06 87.02C234.13 69.35 250.28 56.44 273.34 54.41C294.1 51.69 314.86 50.33 334.85 50.33C335.31 50.33 339 50.33 339.46 50.33C358.68 50.33 377.13 51.69 396.35 54.41C415.57 57.12 434.79 70.03 438.63 87.02C439.33 87.02 444.86 87.02 445.55 87.02C454.78 87.02 462.47 93.81 462.47 101.96C462.47 102.3 462.47 105.02 462.47 105.36C462.47 113.51 454.78 120.31 445.55 120.31C445.09 120.31 442.79 120.31 438.63 120.31C438.63 318.83 438.63 429.12 438.63 451.18C438.63 464.09 426.33 474.96 411.73 474.96C401.47 474.96 350.22 474.96 257.96 474.96C240.03 468.17 231.06 460.24 231.06 451.18Z" id="g5Z7JHPLE"></path><path d="M413.26 123.03C413.26 127.1 410.19 129.82 405.58 129.82C405.58 129.82 405.58 129.82 404.81 129.82C390.43 129.82 275.42 129.82 261.04 129.82C258.73 129.82 257.2 128.46 257.2 126.42C256.43 122.42 250.28 90.35 249.51 86.34C250.28 80.22 255.66 75.47 262.58 74.11C286.41 70.71 311.01 68.67 334.85 68.67C359.45 69.35 383.28 71.39 407.11 74.11C414.8 74.79 420.18 80.22 420.95 86.34C419.41 93.68 414.03 119.36 413.26 123.03Z" id="bt8Q3ZSA7"></path><path d="M253.35 450.5C253.35 445.75 257.96 441.67 263.35 441.67C277.65 441.67 392.04 441.67 406.34 441.67C411.73 441.67 416.34 445.75 416.34 450.5C416.34 450.5 416.34 450.5 416.34 450.5C416.34 455.26 411.73 459.33 406.34 459.33C392.04 459.33 277.65 459.33 263.35 459.33C257.96 459.33 253.35 455.26 253.35 450.5C253.35 450.5 253.35 450.5 253.35 450.5Z" id="auu73Fb77"></path><path d="M361.75 158.36C366.37 158.36 370.21 161.75 370.21 165.83C370.21 170.52 370.21 208.02 370.21 212.71C370.21 216.78 366.37 220.18 361.75 220.18C356.45 220.18 314.01 220.18 308.71 220.18C304.09 220.18 300.25 216.78 300.25 212.71C300.25 208.02 300.25 170.52 300.25 165.83C300.25 161.75 304.09 158.36 308.71 158.36C319.32 158.36 356.45 158.36 361.75 158.36Z" id="a1tBbNNPyZ"></path><path d="M264.88 248.04L264.88 421.97" id="a1rxPZNPNu"></path><path d="M300.25 248.04L300.25 421.97" id="emmoFqAEr"></path><path d="M334.85 248.04L334.85 421.97" id="bkrXe7TI8"></path><path d="M370.21 248.04L370.21 421.97" id="dLByqyVrD"></path><path d="M404.81 248.04L404.81 421.97" id="a4D6BGi6TW"></path></defs><g><g><g><use xlink:href="#g5Z7JHPLE" opacity="1" fill="#91b64f" fill-opacity="1"></use><g><use xlink:href="#g5Z7JHPLE" opacity="1" fill-opacity="0" stroke="#000000" stroke-width="1" stroke-opacity="0"></use></g></g><path></path><g><use xlink:href="#bt8Q3ZSA7" opacity="1" fill="#ffffff" fill-opacity="1"></use><g><use xlink:href="#bt8Q3ZSA7" opacity="1" fill-opacity="0" stroke="#000000" stroke-width="1" stroke-opacity="0"></use></g></g><g><use xlink:href="#auu73Fb77" opacity="1" fill="#ffffff" fill-opacity="1"></use><g><use xlink:href="#auu73Fb77" opacity="1" fill-opacity="0" stroke="#000000" stroke-width="1" stroke-opacity="0"></use></g></g><g><use xlink:href="#a1tBbNNPyZ" opacity="1" fill="#ffffff" fill-opacity="1"></use><g><use xlink:href="#a1tBbNNPyZ" opacity="1" fill-opacity="0" stroke="#000000" stroke-width="1" stroke-opacity="0"></use></g></g><g><use xlink:href="#a1rxPZNPNu" opacity="1" fill="#000000" fill-opacity="0"></use><g><use xlink:href="#a1rxPZNPNu" opacity="1" fill-opacity="0" stroke="#ffffff" stroke-width="0.7" stroke-opacity="1"></use></g></g><g><use xlink:href="#emmoFqAEr" opacity="1" fill="#000000" fill-opacity="0"></use><g><use xlink:href="#emmoFqAEr" opacity="1" fill-opacity="0" stroke="#ffffff" stroke-width="0.7" stroke-opacity="1"></use></g></g><g><use xlink:href="#bkrXe7TI8" opacity="1" fill="#000000" fill-opacity="0"></use><g><use xlink:href="#bkrXe7TI8" opacity="1" fill-opacity="0" stroke="#ffffff" stroke-width="0.7" stroke-opacity="1"></use></g></g><g><use xlink:href="#dLByqyVrD" opacity="1" fill="#000000" fill-opacity="0"></use><g><use xlink:href="#dLByqyVrD" opacity="1" fill-opacity="0" stroke="#ffffff" stroke-width="0.7" stroke-opacity="1"></use></g></g><g><use xlink:href="#a4D6BGi6TW" opacity="1" fill="#000000" fill-opacity="0"></use><g><use xlink:href="#a4D6BGi6TW" opacity="1" fill-opacity="0" stroke="#ffffff" stroke-width="0.7" stroke-opacity="1"></use></g></g></g></g></svg>